<svg width="504" height="170" viewBox="0 0 504 170" fill="none" xmlns="http://www.w3.org/2000/svg">
<path d="M502.664 167.667V166.167C502.664 165.614 502.216 165.167 501.664 165.167H428.164L435.463 168.573C435.595 168.635 435.74 168.667 435.886 168.667H501.664C502.216 168.667 502.664 168.219 502.664 167.667Z" fill="white"/>
<path d="M2.66406 2.66663L175.074 160.953C178.026 163.663 181.888 165.167 185.895 165.167H428.164M428.164 165.167H501.664C502.216 165.167 502.664 165.614 502.664 166.167V167.667C502.664 168.219 502.216 168.667 501.664 168.667H435.886C435.74 168.667 435.595 168.635 435.463 168.573L428.164 165.167Z" stroke="white"/>
</svg>
