<svg width="504" height="170" viewBox="0 0 504 170" fill="none" xmlns="http://www.w3.org/2000/svg">
<path d="M0.5 1.5V3C0.5 3.55228 0.947715 4 1.5 4H75L67.701 0.593817C67.5686 0.532023 67.4243 0.5 67.2782 0.5H1.5C0.947715 0.5 0.5 0.947715 0.5 1.5Z" fill="white"/>
<path d="M500.5 166.5L328.09 8.21383C325.138 5.50373 321.277 4 317.269 4H75M75 4H1.5C0.947715 4 0.5 3.55228 0.5 3V1.5C0.5 0.947715 0.947715 0.5 1.5 0.5H67.2782C67.4243 0.5 67.5686 0.532023 67.701 0.593817L75 4Z" stroke="white"/>
</svg>
