<svg width="504" height="170" viewBox="0 0 504 170" fill="none" xmlns="http://www.w3.org/2000/svg">
<path d="M0.5 167.667V166.167C0.5 165.614 0.947715 165.167 1.5 165.167H75L67.701 168.573C67.5686 168.635 67.4243 168.667 67.2782 168.667H1.5C0.947715 168.667 0.5 168.219 0.5 167.667Z" fill="white"/>
<path d="M500.5 2.66663L328.09 160.953C325.138 163.663 321.277 165.167 317.269 165.167H75M75 165.167H1.5C0.947715 165.167 0.5 165.614 0.5 166.167V167.667C0.5 168.219 0.947715 168.667 1.5 168.667H67.2782C67.4243 168.667 67.5686 168.635 67.701 168.573L75 165.167Z" stroke="white"/>
</svg>
