<svg width="504" height="170" viewBox="0 0 504 170" fill="none" xmlns="http://www.w3.org/2000/svg">
<path d="M502.664 1.5V3C502.664 3.55228 502.216 4 501.664 4H428.164L435.463 0.593817C435.595 0.532023 435.74 0.5 435.886 0.5H501.664C502.216 0.5 502.664 0.947715 502.664 1.5Z" fill="white"/>
<path d="M2.66406 166.5L175.074 8.21383C178.026 5.50373 181.888 4 185.895 4H428.164M428.164 4H501.664C502.216 4 502.664 3.55228 502.664 3V1.5C502.664 0.947715 502.216 0.5 501.664 0.5H435.886C435.74 0.5 435.595 0.532023 435.463 0.593817L428.164 4Z" stroke="white"/>
</svg>
