<svg width="16" height="14" viewBox="0 0 16 14" fill="none" xmlns="http://www.w3.org/2000/svg">
<path d="M15.8888 7.0193C15.7297 7.58072 15.4117 8.06729 14.9939 8.38892C14.6603 8.64614 14.2814 8.78068 13.9088 8.78068C13.7685 8.78068 13.6313 8.76196 13.4957 8.72362C13.003 8.58267 12.6039 8.19137 12.4012 7.64973C12.2157 7.156 12.2032 6.57509 12.3623 6.0135C12.5228 5.45207 12.8409 4.96551 13.2571 4.64388C13.7155 4.29062 14.2612 4.16853 14.7554 4.30918C15.2481 4.45012 15.6487 4.84142 15.8514 5.38306C16.0353 5.87683 16.0493 6.45771 15.8888 7.0193ZM5.465 5.60026C6.05122 5.60026 6.61091 5.27395 7.00065 4.70459C7.35454 4.18838 7.54943 3.51224 7.54943 2.80038C7.54943 2.08788 7.35454 1.41174 7.00065 0.895529C6.61088 0.326338 6.05118 0 5.465 0C4.87722 0 4.31755 0.326305 3.92778 0.895529C3.57545 1.41174 3.38056 2.08788 3.38056 2.80038C3.38056 3.51224 3.57545 4.18838 3.92778 4.70459C4.31755 5.27395 4.87725 5.60026 5.465 5.60026ZM10.535 5.60026C11.1228 5.60026 11.6825 5.27395 12.0722 4.70459C12.4246 4.18838 12.6195 3.51224 12.6195 2.80038C12.6195 2.08788 12.4246 1.41174 12.0722 0.895529C11.6825 0.326338 11.1228 0 10.535 0C9.94881 0 9.38912 0.326305 8.99938 0.895529C8.64549 1.41174 8.4506 2.08788 8.4506 2.80038C8.4506 3.51224 8.64549 4.18838 8.99938 4.70459C9.38912 5.27395 9.94881 5.60026 10.535 5.60026ZM3.63779 6.01386C3.47723 5.45214 3.15919 4.96557 2.74289 4.64391C2.28454 4.29066 1.73888 4.16857 1.24465 4.30921C0.750444 4.45016 0.35131 4.84146 0.148623 5.3831C-0.0353428 5.87683 -0.049351 6.45774 0.111212 7.01933C0.270248 7.58076 0.588287 8.06732 1.00608 8.38895C1.33972 8.64617 1.71857 8.78071 2.09118 8.78071C2.22993 8.78071 2.36869 8.76199 2.50276 8.72365C2.99697 8.58271 3.3961 8.19141 3.59875 7.64977C3.78435 7.15603 3.79683 6.57512 3.63779 6.01386ZM11.0588 7.38288C10.2045 6.48486 9.11938 5.99066 8.00001 5.99066C6.88062 5.99066 5.79396 6.48486 4.94271 7.38288C4.12887 8.23927 3.56141 9.42758 3.34312 10.7295C3.20437 11.56 3.45691 12.3593 4.03845 12.9223C4.64336 13.5082 5.43379 13.6861 6.2071 13.4111C6.77928 13.2068 7.38263 13.1033 8.00001 13.1033C8.6174 13.1033 9.22075 13.2069 9.79293 13.4111C10.0315 13.4959 10.2716 13.5378 10.507 13.5378C11.0355 13.5378 11.5422 13.3277 11.96 12.9223C12.5431 12.3594 12.7956 11.56 12.6569 10.7295C12.4386 9.42755 11.8711 8.23924 11.0588 7.38288Z" fill="#6839CC"/>
</svg>
