<svg width="160" height="160" viewBox="0 0 160 160" fill="none" xmlns="http://www.w3.org/2000/svg">
<path d="M87.0112 1.99991C89.9581 -1.29249 95.3324 -0.378042 97.0245 3.7037L102.065 15.8624C103.302 18.8467 106.68 20.3157 109.707 19.1855L122.037 14.581C126.177 13.0352 130.51 16.3424 130.112 20.743L128.925 33.8515C128.633 37.069 130.942 39.9395 134.147 40.3452L147.205 41.9983C151.588 42.5533 153.889 47.4957 151.491 51.207L144.348 62.2623C142.594 64.9758 143.304 68.5902 145.954 70.4389L156.748 77.971C160.371 80.4996 160.111 85.9449 156.263 88.1167L144.801 94.5862C141.987 96.1741 140.936 99.7044 142.423 102.573L148.48 114.258C150.514 118.181 147.753 122.882 143.336 123.017L130.18 123.418C126.951 123.517 124.38 126.154 124.363 129.385L124.296 142.547C124.274 146.965 119.645 149.845 115.671 147.912L103.836 142.153C100.931 140.74 97.4282 141.88 95.9123 144.733L89.7362 156.356C87.6628 160.258 82.2259 160.657 79.6061 157.098L71.8021 146.499C69.8867 143.898 66.2554 143.28 63.5873 145.101L52.7171 152.523C49.0679 155.015 44.0687 152.841 43.4025 148.472L41.4181 135.461C40.9311 132.267 38.0028 130.032 34.7939 130.405L21.7197 131.925C17.3307 132.436 13.9144 128.187 15.3545 124.01L19.6442 111.566C20.6971 108.512 19.1428 105.173 16.128 104.012L3.84513 99.2817C-0.278294 97.6938 -1.329 92.3446 1.88745 89.315L11.4686 80.2903C13.8203 78.0753 13.9959 74.3959 11.866 71.9669L3.18822 62.0705C0.27504 58.7483 1.83061 53.5234 6.08656 52.3356L18.7642 48.7973C21.8759 47.9288 23.7413 44.7526 22.9842 41.612L19.8995 28.8163C18.8639 24.5208 22.6694 20.6174 26.9899 21.5434L39.8597 24.302C43.0185 24.9791 46.1464 23.0336 46.9355 19.9008L50.1505 7.13735C51.2298 2.85258 56.4134 1.16476 59.8086 3.99257L69.9224 12.4161C72.4047 14.4836 76.0784 14.2145 78.233 11.8073L87.0112 1.99991Z" fill="#FF791F"/>
</svg>
