<svg width="30" height="30" viewBox="0 0 30 30" fill="none" xmlns="http://www.w3.org/2000/svg">
<path d="M0.732422 6.57234H2.75666V8.58627C2.75666 8.99027 3.08508 9.31869 3.48908 9.31869H5.86143C6.26543 9.31869 6.59385 8.99027 6.59385 8.58627V6.57234H8.61809C9.02209 6.57234 9.35051 6.24387 9.35051 5.83992V3.47877C9.35051 3.07482 9.02209 2.74635 8.61809 2.74635H6.59385V0.732422C6.59385 0.328711 6.26543 0 5.86143 0H3.48908C3.08508 0 2.75666 0.328711 2.75666 0.732422V2.74635H0.732422C0.328418 2.74635 0 3.07482 0 3.47877V5.83992C0 6.24387 0.328418 6.57234 0.732422 6.57234ZM0.878906 3.62525H2.90314C3.30686 3.62525 3.63557 3.29684 3.63557 2.89283V0.878906H5.71494V2.89283C5.71494 3.29684 6.04342 3.62525 6.44736 3.62525H8.4716V5.69344H6.44736C6.04342 5.69344 5.71494 6.02215 5.71494 6.42586V8.43979H3.63557V6.42586C3.63557 6.02215 3.30686 5.69344 2.90314 5.69344H0.878906V3.62525ZM15.7251 6.59314C15.4825 6.59314 15.2856 6.79002 15.2856 7.0326V8.11043C15.2856 8.22698 15.3319 8.33876 15.4144 8.42117C15.4968 8.50358 15.6085 8.54988 15.7251 8.54988C15.8416 8.54988 15.9534 8.50358 16.0358 8.42117C16.1183 8.33876 16.1646 8.22698 16.1646 8.11043V7.0326C16.1646 6.91605 16.1183 6.80427 16.0358 6.72186C15.9534 6.63944 15.8416 6.59314 15.7251 6.59314Z" fill="white"/>
<path d="M24.3283 19.0413C22.2732 19.0413 20.6012 20.7254 20.6012 22.7954C20.6012 23.3705 20.7298 23.9295 20.9767 24.4385C20.9491 24.4508 20.9217 24.464 20.8946 24.4772H18.4417V19.4164C18.4417 19.2999 18.3954 19.1881 18.313 19.1057C18.2306 19.0233 18.1188 18.977 18.0022 18.977C17.9445 18.9769 17.8874 18.9883 17.834 19.0104C17.7807 19.0324 17.7322 19.0648 17.6914 19.1056C17.6506 19.1464 17.6183 19.1949 17.5962 19.2482C17.5741 19.3015 17.5628 19.3587 17.5628 19.4164V27.0622H12.5803C12.5963 25.9599 13.4892 25.0684 14.5842 25.0684H15.4045C15.6471 25.0684 15.8439 24.8715 15.8439 24.629V12.932H16.9959C18.2179 12.932 19.3236 12.4229 20.1169 11.6054L20.9415 15.0349C20.9645 15.1308 21.0191 15.2162 21.0966 15.2773C21.174 15.3384 21.2697 15.3717 21.3684 15.3718C21.4025 15.3718 21.4368 15.3679 21.4714 15.3595C21.5275 15.346 21.5804 15.3217 21.6271 15.2877C21.6738 15.2538 21.7133 15.211 21.7435 15.1618C21.7736 15.1126 21.7938 15.058 21.8028 15.001C21.8118 14.944 21.8095 14.8857 21.796 14.8296L21.6898 14.3877C22.0574 14.6236 22.4105 14.8814 22.7472 15.1597C22.8258 15.2247 22.9247 15.2602 23.0267 15.2601C23.1172 15.2602 23.2055 15.2323 23.2796 15.1802C23.3536 15.1282 23.4098 15.0545 23.4405 14.9694C23.4711 14.8842 23.4747 14.7916 23.4507 14.7043C23.4267 14.6171 23.3764 14.5393 23.3066 14.4817C22.4933 13.8109 21.7896 13.4046 21.4055 13.2059L20.8001 10.6882C21.1692 10.0302 21.3628 9.28822 21.362 8.53373C21.3624 7.95557 21.2489 7.38299 21.0278 6.84875C21.5517 5.48762 21.24 3.94074 20.1947 2.88658C19.6594 2.34711 18.9828 1.99068 18.238 1.85639C18.1647 1.84315 18.0893 1.84874 18.0188 1.87264C17.9483 1.89654 17.885 1.93797 17.8349 1.99303C17.6189 2.23054 17.4349 2.49522 17.2874 2.78035C16.7704 2.30017 16.1353 1.98154 15.4406 1.85633C15.3673 1.84313 15.2919 1.84875 15.2214 1.87266C15.1509 1.89657 15.0877 1.93799 15.0376 1.99303C14.2156 2.89619 13.9185 4.09642 14.1362 5.21498C13.5571 5.72193 13.1113 6.37953 12.8597 7.1266H12.3715C12.2033 7.1266 12.039 7.14195 11.8788 7.16984C11.6675 7.00209 11.4013 6.9009 11.1115 6.9009H10.2718C9.5874 6.9009 9.03053 7.46076 9.03053 8.14877C9.03053 8.59144 9.26197 8.9801 9.60867 9.20164C9.52913 9.47032 9.48873 9.74907 9.48873 10.0293C9.48873 11.6298 10.7819 12.932 12.3713 12.932H14.965V24.1895H14.5841C13.0046 24.1895 11.7183 25.4754 11.7021 27.062H11.1838V27.0583C11.1838 26.661 10.8659 26.3366 10.4711 26.3261V23.6097C10.4711 23.4932 10.4248 23.3814 10.3424 23.299C10.26 23.2166 10.1482 23.1703 10.0317 23.1703C9.91511 23.1703 9.80333 23.2166 9.72092 23.299C9.63851 23.3814 9.59221 23.4932 9.59221 23.6097V26.4724C9.59221 26.8697 9.91014 27.194 10.3049 27.2046V27.5914H8.9676V23.8231C8.9676 23.5805 8.77072 23.3836 8.52814 23.3836C8.28557 23.3836 8.08869 23.5805 8.08869 23.8231V27.062H8.00332V27.0583C8.00332 26.6804 7.71563 26.3684 7.34777 26.33V23.8231C7.34777 23.5802 7.15096 23.3836 6.90832 23.3836C6.66568 23.3836 6.46887 23.5802 6.46887 23.8231V26.4724C6.46887 26.8503 6.75656 27.1622 7.12465 27.2007V27.5912H5.84426V23.8231C5.84426 23.5802 5.64768 23.3836 5.4048 23.3836C5.28825 23.3836 5.17648 23.4299 5.09406 23.5123C5.01165 23.5947 4.96535 23.7065 4.96535 23.8231V27.062H3.22699C3.3092 23.8558 4.28168 21.7787 5.0901 20.5951C5.24564 20.3671 5.41246 20.1471 5.58996 19.9357C6.30135 20.4938 7.23035 20.8332 8.24613 20.8332C8.71787 20.8332 9.17086 20.7595 9.59203 20.6254V21.5004C9.59203 21.6169 9.63833 21.7287 9.72074 21.8111C9.80316 21.8935 9.91493 21.9398 10.0315 21.9398C10.2743 21.9398 10.4709 21.7432 10.4709 21.5004V20.2314C11.5672 19.5799 12.2923 18.4619 12.2923 17.1944C12.2923 16.9982 12.2745 16.806 12.2411 16.6183C12.593 16.2403 12.8403 15.777 12.9583 15.2742C13.0764 14.7714 13.0612 14.2465 12.9142 13.7513C12.8846 13.652 12.8307 13.5617 12.7574 13.4885C12.6841 13.4153 12.5937 13.3615 12.4944 13.332C12.2204 13.2509 11.9361 13.2096 11.6503 13.2096C10.9783 13.2096 10.3406 13.4325 9.82061 13.8422C9.33633 13.6575 8.80418 13.5554 8.24619 13.5554C7.6882 13.5554 7.156 13.6575 6.67189 13.8422C6.15164 13.4325 5.5142 13.2096 4.84201 13.2096C4.5566 13.2096 4.27254 13.2508 3.99855 13.3318C3.89882 13.3615 3.80805 13.4155 3.73441 13.4891C3.66138 13.5625 3.60767 13.6528 3.57809 13.752C3.4312 14.2471 3.41604 14.7719 3.5341 15.2746C3.65217 15.7772 3.89937 16.2404 4.25127 16.6183C4.21746 16.8084 4.20039 17.0011 4.20023 17.1942C4.20023 17.9864 4.48383 18.7193 4.9633 19.3173C4.74964 19.567 4.54968 19.8281 4.3643 20.0994C3.9143 20.7581 3.41789 21.6709 3.02953 22.8663C2.99672 21.7466 3.29244 20.6155 3.9242 19.6286C4.22678 19.156 4.0885 18.5251 3.61611 18.2226C3.4525 18.1175 3.26213 18.0616 3.06768 18.0617C2.89676 18.0612 2.7285 18.104 2.57856 18.186C2.42862 18.2681 2.30187 18.3867 2.2101 18.5309C0.532149 21.152 0.600117 24.5207 2.33871 27.0617H0.439453C0.322903 27.0617 0.211126 27.108 0.128713 27.1904C0.0462994 27.2728 0 27.3846 0 27.5012C0 27.6177 0.0462994 27.7295 0.128713 27.8119C0.211126 27.8943 0.322903 27.9406 0.439453 27.9406H4.99465C5.08301 28.246 5.36455 28.4701 5.69777 28.4701H7.2709C7.60436 28.4701 7.8859 28.246 7.97402 27.9406H8.11799C8.20635 28.246 8.48783 28.4701 8.82111 28.4701H10.4514C10.7847 28.4701 11.0662 28.246 11.1546 27.9406H23.2027C23.3192 27.9406 23.431 27.8943 23.5134 27.8119C23.5958 27.7295 23.6421 27.6177 23.6421 27.5012C23.6421 27.3846 23.5958 27.2728 23.5134 27.1904C23.431 27.108 23.3192 27.0617 23.2027 27.0617H20.1393C20.1533 26.1272 20.8138 25.3108 21.7206 25.1137C21.7911 25.0984 21.8568 25.0659 21.9117 25.0192C21.9667 24.9725 22.0093 24.913 22.0359 24.8459C22.0624 24.7788 22.0721 24.7062 22.0639 24.6345C22.0558 24.5628 22.0301 24.4943 21.9891 24.4348C21.6561 23.9517 21.4799 23.3848 21.4799 22.7952C21.4799 21.2097 22.7577 19.92 24.3283 19.92C24.5709 19.92 24.7678 19.7231 24.7678 19.4805C24.7678 19.2379 24.5709 19.0413 24.3283 19.0413ZM15.5275 2.77625C15.9979 2.9051 16.4248 3.15412 16.7734 3.50545C16.8364 3.56928 16.8964 3.63595 16.9533 3.70525C16.9222 3.8481 16.8995 3.99262 16.8851 4.13809C16.2087 4.15498 15.5458 4.33085 14.9501 4.65148C14.9155 3.99482 15.1066 3.32808 15.5276 2.77625H15.5275ZM10.2718 8.51773C10.072 8.51773 9.90943 8.35226 9.90943 8.14877C9.90943 7.94551 10.072 7.78004 10.2718 7.78004H11.1115C11.3113 7.78004 11.4738 7.94551 11.4738 8.14877C11.4738 8.35226 11.3113 8.51773 11.1115 8.51773H10.2718ZM12.3713 12.053C11.2662 12.053 10.3674 11.1453 10.3674 10.0293C10.3674 9.8082 10.4041 9.5958 10.4693 9.39664H11.1115C11.7959 9.39664 12.3525 8.83678 12.3525 8.14877C12.3525 8.10049 12.3493 8.05308 12.3438 8.00639C12.353 8.00621 12.3621 8.00551 12.3713 8.00551H12.6618C12.6406 8.18081 12.63 8.35722 12.6299 8.53379C12.6299 9.97139 13.3184 11.2501 14.3804 12.0533H12.3713L12.3713 12.053ZM13.5088 8.53379C13.5088 6.62463 15.0229 5.06691 16.9025 5.01652C16.9747 5.54345 17.1593 6.0487 17.4438 6.49807C17.4747 6.54682 17.5148 6.58901 17.562 6.62224C17.6092 6.65546 17.6625 6.67906 17.7188 6.6917C17.7751 6.70434 17.8334 6.70576 17.8902 6.69588C17.9471 6.68601 18.0014 6.66503 18.0502 6.63415C18.0989 6.60327 18.1411 6.56308 18.1744 6.5159C18.2076 6.46871 18.2312 6.41544 18.2438 6.35913C18.2565 6.30281 18.2579 6.24457 18.248 6.18771C18.2381 6.13085 18.2172 6.07649 18.1863 6.02773C17.5461 5.01746 17.6113 3.71463 18.3252 2.77625C18.7955 2.9051 19.2222 3.15435 19.5705 3.50545C20.4465 4.38846 20.6486 5.72445 20.0741 6.82994C19.962 7.0451 20.046 7.31064 20.2613 7.42256C20.2773 7.43076 20.2935 7.43809 20.3101 7.44424C20.4246 7.79607 20.483 8.16377 20.4831 8.53379C20.4831 10.4744 18.9186 12.053 16.9959 12.053C15.0732 12.053 13.5088 10.4745 13.5088 8.53379ZM11.6503 14.0887C11.8041 14.0887 11.9572 14.1057 12.1073 14.1393C12.2196 14.6412 12.1426 15.1669 11.8911 15.6156C11.615 15.1024 11.2086 14.6566 10.711 14.3119C11.0022 14.1646 11.324 14.0881 11.6503 14.0887ZM8.24613 14.4346C9.99252 14.4346 11.4134 15.6726 11.4134 17.1944C11.4134 18.7163 9.99252 19.9545 8.24613 19.9545C6.49975 19.9545 5.07891 18.7163 5.07891 17.1944C5.07914 15.6726 6.4998 14.4346 8.24613 14.4346ZM4.60119 15.6156C4.34978 15.1669 4.27285 14.6412 4.38516 14.1393C4.53512 14.1057 4.68833 14.0887 4.84201 14.0887C5.17389 14.0887 5.49357 14.1661 5.78133 14.3117C5.28398 14.6566 4.87717 15.1024 4.60119 15.6156ZM2.46135 25.4854C1.54178 23.4154 1.69072 20.9725 2.95031 19.0049C2.96286 18.9852 2.9802 18.9689 3.00073 18.9577C3.02126 18.9465 3.04429 18.9407 3.06768 18.9408C3.09428 18.9408 3.11924 18.9481 3.14186 18.9628C3.15724 18.9726 3.17054 18.9854 3.18099 19.0003C3.19144 19.0153 3.19883 19.0322 3.20274 19.05C3.20666 19.0679 3.20701 19.0863 3.20379 19.1043C3.20058 19.1223 3.19384 19.1394 3.18398 19.1548C2.06361 20.9056 1.85877 23.048 2.53805 24.9339C2.5091 25.1172 2.48349 25.3011 2.46135 25.4854ZM19.2604 27.0622H18.4414V25.3561H19.8383C19.4794 25.8382 19.267 26.4317 19.2604 27.0622Z" fill="white"/>
<path d="M7.14676 17.1939C7.26331 17.1939 7.37508 17.1476 7.4575 17.0652C7.53991 16.9828 7.58621 16.871 7.58621 16.7545V16.2544C7.58621 16.0116 7.38939 15.8149 7.14676 15.8149C6.90412 15.8149 6.7073 16.0116 6.7073 16.2544V16.7545C6.7073 16.871 6.7536 16.9828 6.83602 17.0652C6.91843 17.1476 7.03021 17.1939 7.14676 17.1939ZM9.34426 17.1939C9.46081 17.1939 9.57258 17.1476 9.655 17.0652C9.73741 16.9828 9.78371 16.871 9.78371 16.7545V16.2544C9.78371 16.1378 9.73741 16.0261 9.655 15.9437C9.57258 15.8612 9.46081 15.8149 9.34426 15.8149C9.28654 15.8149 9.22939 15.8263 9.17606 15.8483C9.12273 15.8704 9.07428 15.9028 9.03347 15.9436C8.99265 15.9844 8.96029 16.0329 8.93821 16.0862C8.91613 16.1395 8.90478 16.1967 8.9048 16.2544V16.7545C8.9048 16.9974 9.10145 17.1939 9.34426 17.1939ZM7.59975 19.1287C7.83412 19.1287 8.05748 19.0591 8.24545 18.9348C8.43704 19.0615 8.66167 19.1289 8.89133 19.1287C9.53656 19.1287 10.0614 18.6039 10.0614 17.9587C10.0614 17.8421 10.0151 17.7303 9.93267 17.6479C9.85026 17.5655 9.73848 17.5192 9.62193 17.5192C9.56422 17.5192 9.50706 17.5305 9.45374 17.5526C9.40041 17.5747 9.35195 17.607 9.31114 17.6479C9.27033 17.6887 9.23796 17.7371 9.21588 17.7905C9.19381 17.8438 9.18246 17.9009 9.18248 17.9587C9.18237 18.0358 9.15165 18.1098 9.09706 18.1644C9.04247 18.219 8.96846 18.2497 8.89127 18.2498C8.83827 18.2498 8.78628 18.2353 8.7409 18.208C8.69553 18.1806 8.6585 18.1413 8.63381 18.0944C8.59645 18.0238 8.54056 17.9648 8.47214 17.9236C8.40372 17.8824 8.32537 17.8606 8.24551 17.8606C8.16564 17.8606 8.08729 17.8824 8.01888 17.9236C7.95046 17.9648 7.89457 18.0238 7.85721 18.0944C7.83252 18.1413 7.79549 18.1806 7.75011 18.208C7.70474 18.2353 7.65274 18.2498 7.59975 18.2498C7.52255 18.2497 7.44854 18.219 7.39396 18.1644C7.33937 18.1099 7.30867 18.0358 7.30859 17.9587C7.30859 17.8421 7.26229 17.7303 7.17988 17.6479C7.09747 17.5655 6.98569 17.5192 6.86914 17.5192C6.81142 17.5192 6.75427 17.5305 6.70094 17.5526C6.64761 17.5747 6.59916 17.607 6.55835 17.6479C6.51754 17.6887 6.48517 17.7371 6.46309 17.7905C6.44102 17.8438 6.42966 17.9009 6.42969 17.9587C6.42969 18.6039 6.95451 19.1287 7.59975 19.1287ZM29.5591 27.0622H27.935V24.7022C29.0581 23.9206 29.7447 22.7084 29.9414 21.1326C30.1236 19.6718 29.821 18.4334 29.7859 18.2967C29.7058 17.9868 29.427 17.7703 29.108 17.7703C29.0835 17.7703 29.0583 17.7717 29.0267 17.7751C28.6818 17.8154 28.4156 18.1084 28.4079 18.4565C28.3854 19.4244 27.9288 20.2152 27.3994 20.811C26.8984 19.0131 26.0472 17.4038 24.8499 16.0006C24.7742 15.912 24.6664 15.857 24.5502 15.8478C24.434 15.8387 24.319 15.876 24.2303 15.9516C24.1417 16.0273 24.0868 16.1351 24.0776 16.2512C24.0684 16.3674 24.1057 16.4825 24.1813 16.5712C26.0035 18.7067 26.9677 21.3649 27.0504 24.4772L27.0561 25.3561V27.0622H25.3113C25.0687 27.0622 24.8718 27.2591 24.8718 27.5016C24.8718 27.7442 25.0687 27.9411 25.3113 27.9411H29.5591C29.6757 27.9411 29.7874 27.8948 29.8698 27.8124C29.9523 27.73 29.9986 27.6182 29.9986 27.5016C29.9986 27.2588 29.802 27.0622 29.5591 27.0622ZM27.6397 21.8172C28.2172 21.2772 28.8061 20.5395 29.0986 19.6098C29.1291 20.0168 29.1338 20.5061 29.0693 21.0239C28.9354 22.0973 28.5317 22.9654 27.8837 23.5995C27.8359 22.9879 27.7546 22.3937 27.6397 21.8172Z" fill="white"/>
</svg>
