<svg width="30" height="30" viewBox="0 0 30 30" fill="none" xmlns="http://www.w3.org/2000/svg">
<path d="M7.96875 27.4233C6.10456 27.4214 4.31728 26.6799 2.9991 25.3617C1.68091 24.0436 0.939485 22.2563 0.9375 20.3921C0.9375 20.2678 0.986886 20.1485 1.07479 20.0606C1.1627 19.9727 1.28193 19.9233 1.40625 19.9233C1.53057 19.9233 1.6498 19.9727 1.73771 20.0606C1.82561 20.1485 1.875 20.2678 1.875 20.3921C1.87686 22.0077 2.51948 23.5566 3.66187 24.699C4.80427 25.8414 6.35316 26.484 7.96875 26.4858C8.09307 26.4858 8.2123 26.5352 8.30021 26.6231C8.38811 26.711 8.4375 26.8303 8.4375 26.9546C8.4375 27.0789 8.38811 27.1981 8.30021 27.286C8.2123 27.374 8.09307 27.4233 7.96875 27.4233ZM22.0294 27.4233C21.9051 27.4233 21.7858 27.374 21.6979 27.286C21.61 27.1981 21.5606 27.0789 21.5606 26.9546C21.5606 26.8303 21.61 26.711 21.6979 26.6231C21.7858 26.5352 21.9051 26.4858 22.0294 26.4858C23.645 26.484 25.1939 25.8414 26.3363 24.699C27.4787 23.5566 28.1213 22.0077 28.1231 20.3921C28.1231 20.2678 28.1725 20.1485 28.2604 20.0606C28.3483 19.9727 28.4676 19.9233 28.5919 19.9233C28.7162 19.9233 28.8354 19.9727 28.9233 20.0606C29.0112 20.1485 29.0606 20.2678 29.0606 20.3921C29.0586 22.2563 28.3172 24.0436 26.999 25.3617C25.6808 26.6799 23.8936 27.4214 22.0294 27.4233Z" fill="white"/>
<path d="M22.0294 27.4233H7.96875C7.84443 27.4233 7.7252 27.3739 7.63729 27.286C7.54939 27.1981 7.5 27.0789 7.5 26.9546C7.5 26.8302 7.54939 26.711 7.63729 26.6231C7.7252 26.5352 7.84443 26.4858 7.96875 26.4858H22.0294C22.1537 26.4858 22.2729 26.5352 22.3608 26.6231C22.4487 26.711 22.4981 26.8302 22.4981 26.9546C22.4981 27.0789 22.4487 27.1981 22.3608 27.286C22.2729 27.3739 22.1537 27.4233 22.0294 27.4233ZM28.5919 20.8608C28.4676 20.8608 28.3483 20.8114 28.2604 20.7235C28.1725 20.6356 28.1231 20.5164 28.1231 20.3921V17.1104C28.1231 16.986 28.1725 16.8668 28.2604 16.7789C28.3483 16.691 28.4676 16.6416 28.5919 16.6416C28.7162 16.6416 28.8354 16.691 28.9233 16.7789C29.0112 16.8668 29.0606 16.986 29.0606 17.1104V20.3921C29.0606 20.5164 29.0112 20.6356 28.9233 20.7235C28.8354 20.8114 28.7162 20.8608 28.5919 20.8608Z" fill="white"/>
<path d="M28.8263 17.5791H1.17188C1.04755 17.5791 0.928326 17.5297 0.840419 17.4418C0.752511 17.3539 0.703125 17.2347 0.703125 17.1104C0.703125 16.9861 0.752511 16.8668 0.840419 16.7789C0.928326 16.691 1.04755 16.6416 1.17188 16.6416H28.8263C28.9506 16.6416 29.0698 16.691 29.1577 16.7789C29.2456 16.8668 29.295 16.9861 29.295 17.1104C29.295 17.2347 29.2456 17.3539 29.1577 17.4418C29.0698 17.5297 28.9506 17.5791 28.8263 17.5791ZM28.8263 16.1733H1.17188C1.04755 16.1733 0.928326 16.124 0.840419 16.036C0.752511 15.9481 0.703125 15.8289 0.703125 15.7046C0.703125 15.5803 0.752511 15.461 0.840419 15.3731C0.928326 15.2852 1.04755 15.2358 1.17188 15.2358H28.8263C28.9506 15.2358 29.0698 15.2852 29.1577 15.3731C29.2456 15.461 29.295 15.5803 29.295 15.7046C29.295 15.8289 29.2456 15.9481 29.1577 16.036C29.0698 16.124 28.9506 16.1733 28.8263 16.1733Z" fill="white"/>
<path d="M1.40625 20.8608C1.28193 20.8608 1.1627 20.8114 1.07479 20.7235C0.986886 20.6356 0.9375 20.5164 0.9375 20.3921V17.1104C0.9375 16.986 0.986886 16.8668 1.07479 16.7789C1.1627 16.691 1.28193 16.6416 1.40625 16.6416C1.53057 16.6416 1.6498 16.691 1.73771 16.7789C1.82561 16.8668 1.875 16.986 1.875 17.1104V20.3921C1.875 20.5164 1.82561 20.6356 1.73771 20.7235C1.6498 20.8114 1.53057 20.8608 1.40625 20.8608Z" fill="white"/>
<path d="M1.17188 17.5782C0.861074 17.5782 0.563003 17.4547 0.343234 17.235C0.123465 17.0152 0 16.7171 0 16.4063C0 16.0955 0.123465 15.7974 0.343234 15.5777C0.563003 15.3579 0.861074 15.2344 1.17188 15.2344C1.2962 15.2344 1.41542 15.2838 1.50333 15.3717C1.59124 15.4596 1.64062 15.5789 1.64062 15.7032C1.64062 15.8275 1.59124 15.9467 1.50333 16.0346C1.41542 16.1225 1.2962 16.1719 1.17188 16.1719C1.10971 16.1719 1.0501 16.1966 1.00615 16.2406C0.962193 16.2845 0.9375 16.3441 0.9375 16.4063C0.9375 16.4685 0.962193 16.5281 1.00615 16.572C1.0501 16.616 1.10971 16.6407 1.17188 16.6407C1.2962 16.6407 1.41542 16.6901 1.50333 16.778C1.59124 16.8659 1.64062 16.9851 1.64062 17.1094C1.64062 17.2338 1.59124 17.353 1.50333 17.4409C1.41542 17.5288 1.2962 17.5782 1.17188 17.5782ZM28.8281 17.5782C28.7038 17.5782 28.5846 17.5288 28.4967 17.4409C28.4088 17.353 28.3594 17.2338 28.3594 17.1094C28.3594 16.9851 28.4088 16.8659 28.4967 16.778C28.5846 16.6901 28.7038 16.6407 28.8281 16.6407C28.8903 16.6407 28.9499 16.616 28.9939 16.572C29.0378 16.5281 29.0625 16.4685 29.0625 16.4063C29.0625 16.3441 29.0378 16.2845 28.9939 16.2406C28.9499 16.1966 28.8903 16.1719 28.8281 16.1719C28.7038 16.1719 28.5846 16.1225 28.4967 16.0346C28.4088 15.9467 28.3594 15.8275 28.3594 15.7032C28.3594 15.5789 28.4088 15.4596 28.4967 15.3717C28.5846 15.2838 28.7038 15.2344 28.8281 15.2344C29.1389 15.2344 29.437 15.3579 29.6568 15.5777C29.8765 15.7974 30 16.0955 30 16.4063C30 16.7171 29.8765 17.0152 29.6568 17.235C29.437 17.4547 29.1389 17.5782 28.8281 17.5782ZM5.15625 16.1733C5.03193 16.1733 4.9127 16.124 4.82479 16.036C4.73689 15.9481 4.6875 15.8289 4.6875 15.7046C4.6875 15.4559 4.58873 15.2175 4.41291 15.0417C4.2371 14.8659 3.99864 14.7671 3.75 14.7671C3.50136 14.7671 3.2629 14.8659 3.08709 15.0417C2.91127 15.2175 2.8125 15.4559 2.8125 15.7046C2.8125 15.8289 2.76311 15.9481 2.67521 16.036C2.5873 16.124 2.46807 16.1733 2.34375 16.1733C2.21943 16.1733 2.1002 16.124 2.01229 16.036C1.92439 15.9481 1.875 15.8289 1.875 15.7046C1.875 15.2073 2.07254 14.7304 2.42417 14.3788C2.77581 14.0271 3.25272 13.8296 3.75 13.8296C4.24728 13.8296 4.72419 14.0271 5.07583 14.3788C5.42746 14.7304 5.625 15.2073 5.625 15.7046C5.625 15.8289 5.57561 15.9481 5.48771 16.036C5.3998 16.124 5.28057 16.1733 5.15625 16.1733Z" fill="white"/>
<path d="M7.96875 16.1733C7.84443 16.1733 7.7252 16.124 7.63729 16.036C7.54939 15.9481 7.5 15.8289 7.5 15.7046C7.5 15.4559 7.40123 15.2175 7.22541 15.0417C7.0496 14.8659 6.81114 14.7671 6.5625 14.7671C6.31386 14.7671 6.0754 14.8659 5.89959 15.0417C5.72377 15.2175 5.625 15.4559 5.625 15.7046C5.625 15.8289 5.57561 15.9481 5.48771 16.036C5.3998 16.124 5.28057 16.1733 5.15625 16.1733C5.03193 16.1733 4.9127 16.124 4.82479 16.036C4.73689 15.9481 4.6875 15.8289 4.6875 15.7046C4.6875 15.2073 4.88504 14.7304 5.23667 14.3788C5.58831 14.0271 6.06522 13.8296 6.5625 13.8296C7.05978 13.8296 7.53669 14.0271 7.88832 14.3788C8.23996 14.7304 8.4375 15.2073 8.4375 15.7046C8.4375 15.8289 8.38811 15.9481 8.30021 16.036C8.2123 16.124 8.09307 16.1733 7.96875 16.1733Z" fill="white"/>
<path d="M10.7812 16.1733C10.6569 16.1733 10.5377 16.124 10.4498 16.036C10.3619 15.9481 10.3125 15.8289 10.3125 15.7046C10.3125 15.4559 10.2137 15.2175 10.0379 15.0417C9.8621 14.8659 9.62364 14.7671 9.375 14.7671C9.12636 14.7671 8.8879 14.8659 8.71209 15.0417C8.53627 15.2175 8.4375 15.4559 8.4375 15.7046C8.4375 15.8289 8.38811 15.9481 8.30021 16.036C8.2123 16.124 8.09307 16.1733 7.96875 16.1733C7.84443 16.1733 7.7252 16.124 7.63729 16.036C7.54939 15.9481 7.5 15.8289 7.5 15.7046C7.5 15.2073 7.69754 14.7304 8.04918 14.3788C8.40081 14.0271 8.87772 13.8296 9.375 13.8296C9.87228 13.8296 10.3492 14.0271 10.7008 14.3788C11.0525 14.7304 11.25 15.2073 11.25 15.7046C11.25 15.8289 11.2006 15.9481 11.1127 16.036C11.0248 16.124 10.9056 16.1733 10.7812 16.1733Z" fill="white"/>
<path d="M13.5938 16.1733C13.4694 16.1733 13.3502 16.124 13.2623 16.036C13.1744 15.9481 13.125 15.8289 13.125 15.7046C13.125 15.4559 13.0262 15.2175 12.8504 15.0417C12.6746 14.8659 12.4361 14.7671 12.1875 14.7671C11.9389 14.7671 11.7004 14.8659 11.5246 15.0417C11.3488 15.2175 11.25 15.4559 11.25 15.7046C11.25 15.8289 11.2006 15.9481 11.1127 16.036C11.0248 16.124 10.9056 16.1733 10.7812 16.1733C10.6569 16.1733 10.5377 16.124 10.4498 16.036C10.3619 15.9481 10.3125 15.8289 10.3125 15.7046C10.3125 15.2073 10.51 14.7304 10.8617 14.3788C11.2133 14.0271 11.6902 13.8296 12.1875 13.8296C12.6848 13.8296 13.1617 14.0271 13.5133 14.3788C13.865 14.7304 14.0625 15.2073 14.0625 15.7046C14.0625 15.8289 14.0131 15.9481 13.9252 16.036C13.8373 16.124 13.7181 16.1733 13.5938 16.1733Z" fill="white"/>
<path d="M16.4062 16.1733C16.2819 16.1733 16.1627 16.124 16.0748 16.036C15.9869 15.9481 15.9375 15.8289 15.9375 15.7046C15.9375 15.4559 15.8387 15.2175 15.6629 15.0417C15.4871 14.8659 15.2486 14.7671 15 14.7671C14.7514 14.7671 14.5129 14.8659 14.3371 15.0417C14.1613 15.2175 14.0625 15.4559 14.0625 15.7046C14.0625 15.8289 14.0131 15.9481 13.9252 16.036C13.8373 16.124 13.7181 16.1733 13.5938 16.1733C13.4694 16.1733 13.3502 16.124 13.2623 16.036C13.1744 15.9481 13.125 15.8289 13.125 15.7046C13.125 15.2073 13.3225 14.7304 13.6742 14.3788C14.0258 14.0271 14.5027 13.8296 15 13.8296C15.4973 13.8296 15.9742 14.0271 16.3258 14.3788C16.6775 14.7304 16.875 15.2073 16.875 15.7046C16.875 15.8289 16.8256 15.9481 16.7377 16.036C16.6498 16.124 16.5306 16.1733 16.4062 16.1733Z" fill="white"/>
<path d="M19.2188 16.1733C19.0944 16.1733 18.9752 16.124 18.8873 16.036C18.7994 15.9481 18.75 15.8289 18.75 15.7046C18.75 15.4559 18.6512 15.2175 18.4754 15.0417C18.2996 14.8659 18.0611 14.7671 17.8125 14.7671C17.5639 14.7671 17.3254 14.8659 17.1496 15.0417C16.9738 15.2175 16.875 15.4559 16.875 15.7046C16.875 15.8289 16.8256 15.9481 16.7377 16.036C16.6498 16.124 16.5306 16.1733 16.4062 16.1733C16.2819 16.1733 16.1627 16.124 16.0748 16.036C15.9869 15.9481 15.9375 15.8289 15.9375 15.7046C15.9375 15.2073 16.135 14.7304 16.4867 14.3788C16.8383 14.0271 17.3152 13.8296 17.8125 13.8296C18.3098 13.8296 18.7867 14.0271 19.1383 14.3788C19.49 14.7304 19.6875 15.2073 19.6875 15.7046C19.6875 15.8289 19.6381 15.9481 19.5502 16.036C19.4623 16.124 19.3431 16.1733 19.2188 16.1733Z" fill="white"/>
<path d="M22.0312 16.1733C21.9069 16.1733 21.7877 16.124 21.6998 16.036C21.6119 15.9481 21.5625 15.8289 21.5625 15.7046C21.5625 15.4559 21.4637 15.2175 21.2879 15.0417C21.1121 14.8659 20.8736 14.7671 20.625 14.7671C20.3764 14.7671 20.1379 14.8659 19.9621 15.0417C19.7863 15.2175 19.6875 15.4559 19.6875 15.7046C19.6875 15.8289 19.6381 15.9481 19.5502 16.036C19.4623 16.124 19.3431 16.1733 19.2188 16.1733C19.0944 16.1733 18.9752 16.124 18.8873 16.036C18.7994 15.9481 18.75 15.8289 18.75 15.7046C18.75 15.2073 18.9475 14.7304 19.2992 14.3788C19.6508 14.0271 20.1277 13.8296 20.625 13.8296C21.1223 13.8296 21.5992 14.0271 21.9508 14.3788C22.3025 14.7304 22.5 15.2073 22.5 15.7046C22.5 15.8289 22.4506 15.9481 22.3627 16.036C22.2748 16.124 22.1556 16.1733 22.0312 16.1733Z" fill="white"/>
<path d="M24.8438 16.1733C24.7194 16.1733 24.6002 16.124 24.5123 16.036C24.4244 15.9481 24.375 15.8289 24.375 15.7046C24.375 15.4559 24.2762 15.2175 24.1004 15.0417C23.9246 14.8659 23.6861 14.7671 23.4375 14.7671C23.1889 14.7671 22.9504 14.8659 22.7746 15.0417C22.5988 15.2175 22.5 15.4559 22.5 15.7046C22.5 15.8289 22.4506 15.9481 22.3627 16.036C22.2748 16.124 22.1556 16.1733 22.0312 16.1733C21.9069 16.1733 21.7877 16.124 21.6998 16.036C21.6119 15.9481 21.5625 15.8289 21.5625 15.7046C21.5625 15.2073 21.76 14.7304 22.1117 14.3788C22.4633 14.0271 22.9402 13.8296 23.4375 13.8296C23.9348 13.8296 24.4117 14.0271 24.7633 14.3788C25.115 14.7304 25.3125 15.2073 25.3125 15.7046C25.3125 15.8289 25.2631 15.9481 25.1752 16.036C25.0873 16.124 24.9681 16.1733 24.8438 16.1733Z" fill="white"/>
<path d="M27.6586 16.1732C27.5343 16.1732 27.415 16.1238 27.3271 16.0359C27.2392 15.948 27.1898 15.8288 27.1898 15.7045C27.1898 15.4558 27.0911 15.2174 26.9153 15.0416C26.7394 14.8657 26.501 14.767 26.2523 14.767C26.0037 14.767 25.7652 14.8657 25.5894 15.0416C25.4136 15.2174 25.3148 15.4558 25.3148 15.7045C25.3148 15.8288 25.2655 15.948 25.1776 16.0359C25.0896 16.1238 24.9704 16.1732 24.8461 16.1732C24.7218 16.1732 24.6025 16.1238 24.5146 16.0359C24.4267 15.948 24.3773 15.8288 24.3773 15.7045C24.3773 15.2072 24.5749 14.7303 24.9265 14.3786C25.2782 14.027 25.7551 13.8295 26.2523 13.8295C26.7496 13.8295 27.2265 14.027 27.5782 14.3786C27.9298 14.7303 28.1273 15.2072 28.1273 15.7045C28.1273 15.8288 28.078 15.948 27.9901 16.0359C27.9021 16.1238 27.7829 16.1732 27.6586 16.1732ZM5.62734 6.3276C5.25641 6.3276 4.89381 6.2176 4.58539 6.01152C4.27697 5.80545 4.03659 5.51254 3.89464 5.16984C3.75269 4.82714 3.71555 4.45005 3.78791 4.08624C3.86028 3.72244 4.0389 3.38826 4.30119 3.12597C4.56348 2.86368 4.89765 2.68506 5.26146 2.6127C5.62526 2.54033 6.00236 2.57747 6.34506 2.71942C6.68775 2.86137 6.98066 3.10176 7.18674 3.41018C7.39282 3.71859 7.50281 4.0812 7.50281 4.45213C7.50219 4.94934 7.3044 5.42602 6.95282 5.7776C6.60123 6.12919 6.12456 6.32698 5.62734 6.3276ZM5.62734 3.51416C5.44183 3.51416 5.26048 3.56917 5.10624 3.67224C4.95199 3.7753 4.83177 3.92179 4.76077 4.09318C4.68978 4.26458 4.67121 4.45317 4.7074 4.63512C4.74359 4.81707 4.83292 4.9842 4.9641 5.11537C5.09528 5.24655 5.26241 5.33588 5.44436 5.37208C5.6263 5.40827 5.8149 5.38969 5.98629 5.3187C6.15768 5.24771 6.30417 5.12749 6.40724 4.97324C6.5103 4.81899 6.56531 4.63764 6.56531 4.45213C6.56494 4.20352 6.46598 3.96521 6.29015 3.78946C6.11431 3.61371 5.87595 3.51441 5.62734 3.51416ZM2.34375 8.67135C2.06562 8.67135 1.79374 8.58887 1.56248 8.43435C1.33122 8.27983 1.15098 8.06021 1.04455 7.80325C0.938109 7.54629 0.910261 7.26354 0.964521 6.99075C1.01878 6.71797 1.15271 6.4674 1.34938 6.27073C1.54605 6.07406 1.79662 5.94013 2.0694 5.88587C2.34219 5.83161 2.62494 5.85946 2.8819 5.96589C3.13886 6.07233 3.35848 6.25257 3.513 6.48383C3.66753 6.71508 3.75 6.98697 3.75 7.2651C3.74963 7.63794 3.60135 7.99541 3.33771 8.25906C3.07407 8.5227 2.7166 8.67098 2.34375 8.67135ZM2.34375 6.79635C2.25104 6.79635 2.16041 6.82384 2.08333 6.87535C2.00624 6.92685 1.94616 7.00006 1.91068 7.08572C1.8752 7.17137 1.86592 7.26562 1.88401 7.35655C1.90209 7.44748 1.94674 7.531 2.01229 7.59655C2.07785 7.66211 2.16137 7.70675 2.2523 7.72484C2.34323 7.74293 2.43748 7.73365 2.52313 7.69817C2.60879 7.66269 2.682 7.60261 2.7335 7.52552C2.78501 7.44844 2.8125 7.35781 2.8125 7.2651C2.8125 7.14078 2.76311 7.02155 2.67521 6.93364C2.5873 6.84573 2.46807 6.79635 2.34375 6.79635ZM4.92234 11.9531C4.69057 11.9531 4.464 11.8843 4.27129 11.7556C4.07857 11.6268 3.92837 11.4438 3.83967 11.2296C3.75098 11.0155 3.72777 10.7799 3.77299 10.5526C3.8182 10.3252 3.92981 10.1164 4.0937 9.95255C4.25759 9.78866 4.4664 9.67705 4.69372 9.63183C4.92104 9.58662 5.15667 9.60982 5.3708 9.69852C5.58493 9.78722 5.76796 9.93742 5.89672 10.1301C6.02549 10.3228 6.09422 10.5494 6.09422 10.7812C6.09397 11.0919 5.97043 11.3898 5.75071 11.6096C5.531 11.8293 5.23307 11.9528 4.92234 11.9531ZM4.92234 10.5468C4.87599 10.5468 4.83068 10.5606 4.79213 10.5863C4.75359 10.6121 4.72355 10.6487 4.70581 10.6915C4.68807 10.7343 4.68343 10.7815 4.69247 10.8269C4.70152 10.8724 4.72384 10.9141 4.75662 10.9469C4.78939 10.9797 4.83116 11.002 4.87662 11.0111C4.92208 11.0201 4.96921 11.0155 5.01204 10.9977C5.05486 10.98 5.09147 10.9499 5.11722 10.9114C5.14297 10.8729 5.15672 10.8275 5.15672 10.7812C5.1566 10.7191 5.13186 10.6595 5.08794 10.6156C5.04401 10.5717 4.98447 10.5469 4.92234 10.5468ZM24.3773 6.3276C24.0064 6.3276 23.6438 6.2176 23.3354 6.01152C23.027 5.80545 22.7866 5.51254 22.6446 5.16984C22.5027 4.82714 22.4655 4.45005 22.5379 4.08624C22.6103 3.72244 22.7889 3.38826 23.0512 3.12597C23.3135 2.86368 23.6477 2.68506 24.0115 2.6127C24.3753 2.54033 24.7524 2.57747 25.0951 2.71942C25.4378 2.86137 25.7307 3.10176 25.9367 3.41018C26.1428 3.71859 26.2528 4.0812 26.2528 4.45213C26.2522 4.94934 26.0544 5.42602 25.7028 5.7776C25.3512 6.12919 24.8746 6.32698 24.3773 6.3276ZM24.3773 3.51416C24.1918 3.51416 24.0105 3.56917 23.8562 3.67224C23.702 3.7753 23.5818 3.92179 23.5108 4.09318C23.4398 4.26458 23.4212 4.45317 23.4574 4.63512C23.4936 4.81707 23.5829 4.9842 23.7141 5.11537C23.8453 5.24655 24.0124 5.33588 24.1944 5.37208C24.3763 5.40827 24.5649 5.38969 24.7363 5.3187C24.9077 5.24771 25.0542 5.12749 25.1572 4.97324C25.2603 4.81899 25.3153 4.63764 25.3153 4.45213C25.3149 4.20352 25.216 3.96521 25.0401 3.78946C24.8643 3.61371 24.626 3.51441 24.3773 3.51416ZM27.6609 8.67135C27.3828 8.67135 27.1109 8.58887 26.8797 8.43435C26.6484 8.27983 26.4682 8.06021 26.3617 7.80325C26.2553 7.54629 26.2274 7.26354 26.2817 6.99075C26.336 6.71797 26.4699 6.4674 26.6666 6.27073C26.8632 6.07406 27.1138 5.94013 27.3866 5.88587C27.6594 5.83161 27.9421 5.85946 28.1991 5.96589C28.456 6.07233 28.6757 6.25257 28.8302 6.48383C28.9847 6.71508 29.0672 6.98697 29.0672 7.2651C29.0668 7.63794 28.9185 7.99541 28.6549 8.25906C28.3913 8.5227 28.0338 8.67098 27.6609 8.67135ZM27.6609 6.79635C27.5682 6.79635 27.4776 6.82384 27.4005 6.87535C27.3234 6.92685 27.2633 7.00006 27.2279 7.08572C27.1924 7.17137 27.1831 7.26562 27.2012 7.35655C27.2193 7.44748 27.2639 7.531 27.3295 7.59655C27.395 7.66211 27.4786 7.70675 27.5695 7.72484C27.6604 7.74293 27.7547 7.73365 27.8403 7.69817C27.926 7.66269 27.9992 7.60261 28.0507 7.52552C28.1022 7.44844 28.1297 7.35781 28.1297 7.2651C28.1297 7.14078 28.0803 7.02155 27.9924 6.93364C27.9045 6.84573 27.7853 6.79635 27.6609 6.79635ZM25.0823 11.9531C24.8506 11.9531 24.624 11.8843 24.4313 11.7556C24.2386 11.6268 24.0884 11.4438 23.9997 11.2296C23.911 11.0155 23.8878 10.7799 23.933 10.5526C23.9782 10.3252 24.0898 10.1164 24.2537 9.95255C24.4176 9.78866 24.6264 9.67705 24.8537 9.63183C25.081 9.58662 25.3167 9.60982 25.5308 9.69852C25.7449 9.78722 25.928 9.93742 26.0567 10.1301C26.1855 10.3228 26.2542 10.5494 26.2542 10.7812C26.254 11.0919 26.1304 11.3898 25.9107 11.6096C25.691 11.8293 25.3931 11.9528 25.0823 11.9531ZM25.0823 10.5468C25.036 10.5468 24.9907 10.5606 24.9521 10.5863C24.9136 10.6121 24.8835 10.6487 24.8658 10.6915C24.8481 10.7343 24.8434 10.7815 24.8525 10.8269C24.8615 10.8724 24.8838 10.9141 24.9166 10.9469C24.9494 10.9797 24.9912 11.002 25.0366 11.0111C25.0821 11.0201 25.1292 11.0155 25.172 10.9977C25.2149 10.98 25.2515 10.9499 25.2772 10.9114C25.303 10.8729 25.3167 10.8275 25.3167 10.7812C25.3166 10.7191 25.2919 10.6595 25.2479 10.6156C25.204 10.5717 25.1445 10.5469 25.0823 10.5468ZM18.7523 7.26697C18.628 7.26697 18.5088 7.21759 18.4209 7.12968C18.333 7.04177 18.2836 6.92254 18.2836 6.79822C18.2836 5.92798 17.9379 5.09338 17.3225 4.47803C16.7072 3.86268 15.8726 3.51697 15.0023 3.51697C14.1321 3.51697 13.2975 3.86268 12.6821 4.47803C12.0668 5.09338 11.7211 5.92798 11.7211 6.79822C11.7211 6.92254 11.6717 7.04177 11.5838 7.12968C11.4959 7.21759 11.3767 7.26697 11.2523 7.26697C11.128 7.26697 11.0088 7.21759 10.9209 7.12968C10.833 7.04177 10.7836 6.92254 10.7836 6.79822C10.7836 5.67934 11.2281 4.60629 12.0192 3.81512C12.8104 3.02395 13.8835 2.57947 15.0023 2.57947C16.1212 2.57947 17.1943 3.02395 17.9855 3.81512C18.7766 4.60629 19.2211 5.67934 19.2211 6.79822C19.2211 6.92254 19.1717 7.04177 19.0838 7.12968C18.9959 7.21759 18.8767 7.26697 18.7523 7.26697ZM19.2253 14.7712C19.101 14.7712 18.9818 14.7218 18.8939 14.6339C18.8059 14.546 18.7566 14.4268 18.7566 14.3024C18.7574 13.3689 18.4095 12.4686 17.7811 11.7782C17.6974 11.6862 17.6537 11.5648 17.6596 11.4405C17.6655 11.3163 17.7205 11.1995 17.8125 11.1159C17.9045 11.0322 18.026 10.9885 18.1502 10.9944C18.2744 11.0003 18.3912 11.0553 18.4748 11.1473C19.26 12.0103 19.6946 13.1353 19.6936 14.302C19.6936 14.4263 19.6442 14.5455 19.5563 14.6334C19.4684 14.7213 19.3492 14.7707 19.2248 14.7707L19.2253 14.7712ZM10.7794 14.7712C10.6551 14.7712 10.5358 14.7218 10.4479 14.6339C10.36 14.546 10.3106 14.4268 10.3106 14.3024C10.3099 13.1396 10.7416 12.018 11.5219 11.1557C11.5632 11.11 11.6131 11.0729 11.6687 11.0465C11.7244 11.0201 11.7847 11.0049 11.8462 11.0017C11.9077 10.9986 11.9693 11.0077 12.0273 11.0283C12.0854 11.049 12.1387 11.0809 12.1845 11.1222C12.2302 11.1635 12.2673 11.2134 12.2937 11.2691C12.3201 11.3247 12.3353 11.385 12.3384 11.4466C12.3415 11.5081 12.3325 11.5696 12.3118 11.6277C12.2912 11.6857 12.2593 11.7391 12.218 11.7848C11.5934 12.4743 11.2477 13.3716 11.2481 14.302C11.2481 14.4263 11.1987 14.5455 11.1108 14.6334C11.0229 14.7213 10.9037 14.7712 10.7794 14.7712Z" fill="white"/>
<path d="M20.625 7.26704C20.5007 7.26704 20.3815 7.21766 20.2935 7.12975C20.2056 7.04184 20.1562 6.92261 20.1562 6.79829C20.1555 6.17692 19.9083 5.58121 19.469 5.14183C19.0296 4.70246 18.4339 4.45529 17.8125 4.45454C17.7254 4.45449 17.6384 4.45935 17.5519 4.46907C17.4283 4.48287 17.3043 4.44702 17.2072 4.3694C17.11 4.29177 17.0477 4.17874 17.0339 4.05517C17.0201 3.93159 17.056 3.8076 17.1336 3.71046C17.2112 3.61332 17.3242 3.551 17.4478 3.5372C17.9066 3.48619 18.3709 3.53249 18.8106 3.67309C19.2503 3.81368 19.6554 4.04541 19.9994 4.35314C20.3435 4.66087 20.6187 5.0377 20.8073 5.45902C20.9959 5.88035 21.0935 6.3367 21.0938 6.79829C21.0938 6.92261 21.0444 7.04184 20.9565 7.12975C20.8685 7.21766 20.7493 7.26704 20.625 7.26704ZM13.125 12.4233C12.5036 12.4225 11.9079 12.1754 11.4685 11.736C11.0292 11.2966 10.782 10.7009 10.7812 10.0795C10.7812 9.95522 10.8306 9.83599 10.9185 9.74809C11.0065 9.66018 11.1257 9.61079 11.25 9.61079C11.3743 9.61079 11.4935 9.66018 11.5815 9.74809C11.6694 9.83599 11.7188 9.95522 11.7188 10.0795C11.7188 10.4525 11.8669 10.8102 12.1306 11.0739C12.3944 11.3376 12.752 11.4858 13.125 11.4858C13.498 11.4858 13.8556 11.3376 14.1194 11.0739C14.3831 10.8102 14.5312 10.4525 14.5312 10.0795C14.5312 9.95522 14.5806 9.83599 14.6685 9.74809C14.7565 9.66018 14.8757 9.61079 15 9.61079C15.1243 9.61079 15.2435 9.66018 15.3315 9.74809C15.4194 9.83599 15.4688 9.95522 15.4688 10.0795C15.468 10.7009 15.2208 11.2966 14.7815 11.736C14.3421 12.1754 13.7464 12.4225 13.125 12.4233Z" fill="white"/>
<path d="M16.875 12.4233C16.2536 12.4226 15.6579 12.1754 15.2185 11.736C14.7792 11.2967 14.532 10.701 14.5312 10.0796C14.5312 9.95527 14.5806 9.83604 14.6685 9.74813C14.7565 9.66023 14.8757 9.61084 15 9.61084C15.1243 9.61084 15.2435 9.66023 15.3315 9.74813C15.4194 9.83604 15.4688 9.95527 15.4688 10.0796C15.4688 10.4526 15.6169 10.8102 15.8806 11.074C16.1444 11.3377 16.502 11.4858 16.875 11.4858C17.248 11.4858 17.6056 11.3377 17.8694 11.074C18.1331 10.8102 18.2812 10.4526 18.2812 10.0796C18.2812 9.95527 18.3306 9.83604 18.4185 9.74813C18.5065 9.66023 18.6257 9.61084 18.75 9.61084C18.8743 9.61084 18.9935 9.66023 19.0815 9.74813C19.1694 9.83604 19.2188 9.95527 19.2188 10.0796C19.218 10.701 18.9708 11.2967 18.5315 11.736C18.0921 12.1754 17.4964 12.4226 16.875 12.4233Z" fill="white"/>
<path d="M15 14.2983C14.3786 14.2976 13.7829 14.0504 13.3435 13.611C12.9042 13.1717 12.657 12.576 12.6562 11.9546C12.6562 11.8303 12.7056 11.711 12.7935 11.6231C12.8815 11.5352 13.0007 11.4858 13.125 11.4858C13.2493 11.4858 13.3685 11.5352 13.4565 11.6231C13.5444 11.711 13.5938 11.8303 13.5938 11.9546C13.5938 12.3276 13.7419 12.6852 14.0056 12.949C14.2694 13.2127 14.627 13.3608 15 13.3608C15.373 13.3608 15.7306 13.2127 15.9944 12.949C16.2581 12.6852 16.4062 12.3276 16.4062 11.9546C16.4062 11.8303 16.4556 11.711 16.5435 11.6231C16.6315 11.5352 16.7507 11.4858 16.875 11.4858C16.9993 11.4858 17.1185 11.5352 17.2065 11.6231C17.2944 11.711 17.3438 11.8303 17.3438 11.9546C17.343 12.576 17.0958 13.1717 16.6565 13.611C16.2171 14.0504 15.6214 14.2976 15 14.2983ZM11.25 10.5483C11.1257 10.5483 11.0065 10.499 10.9185 10.411C10.8306 10.3231 10.7812 10.2039 10.7812 10.0796V6.79834C10.7812 6.67402 10.8306 6.55479 10.9185 6.46688C11.0065 6.37898 11.1257 6.32959 11.25 6.32959C11.3743 6.32959 11.4935 6.37898 11.5815 6.46688C11.6694 6.55479 11.7188 6.67402 11.7188 6.79834V10.0796C11.7188 10.2039 11.6694 10.3231 11.5815 10.411C11.4935 10.499 11.3743 10.5483 11.25 10.5483ZM18.75 10.5483C18.6257 10.5483 18.5065 10.499 18.4185 10.411C18.3306 10.3231 18.2812 10.2039 18.2812 10.0796V6.79834C18.2812 6.67402 18.3306 6.55479 18.4185 6.46688C18.5065 6.37898 18.6257 6.32959 18.75 6.32959C18.8743 6.32959 18.9935 6.37898 19.0815 6.46688C19.1694 6.55479 19.2188 6.67402 19.2188 6.79834V10.0796C19.2188 10.2039 19.1694 10.3231 19.0815 10.411C18.9935 10.499 18.8743 10.5483 18.75 10.5483ZM15 10.5483C14.6893 10.5481 14.3913 10.4245 14.1716 10.2048C13.9519 9.98512 13.8284 9.68719 13.8281 9.37646C13.8281 9.25214 13.8775 9.13292 13.9654 9.04501C14.0533 8.9571 14.1726 8.90771 14.2969 8.90771C14.4212 8.90771 14.5404 8.9571 14.6283 9.04501C14.7162 9.13292 14.7656 9.25214 14.7656 9.37646C14.7656 9.43862 14.7903 9.49824 14.8343 9.54219C14.8782 9.58615 14.9378 9.61084 15 9.61084C15.0622 9.61084 15.1218 9.58615 15.1657 9.54219C15.2097 9.49824 15.2344 9.43862 15.2344 9.37646C15.2344 9.25214 15.2838 9.13292 15.3717 9.04501C15.4596 8.9571 15.5788 8.90771 15.7031 8.90771C15.8274 8.90771 15.9467 8.9571 16.0346 9.04501C16.1225 9.13292 16.1719 9.25214 16.1719 9.37646C16.1716 9.68719 16.0481 9.98512 15.8284 10.2048C15.6087 10.4245 15.3107 10.5481 15 10.5483ZM17.3438 8.20459C17.2194 8.20459 17.1002 8.1552 17.0123 8.0673C16.9244 7.97939 16.875 7.86016 16.875 7.73584C16.875 7.67368 16.8503 7.61407 16.8064 7.57011C16.7624 7.52616 16.7028 7.50146 16.6406 7.50146C16.5785 7.50146 16.5189 7.52616 16.4749 7.57011C16.4309 7.61407 16.4062 7.67368 16.4062 7.73584C16.4062 7.86016 16.3569 7.97939 16.269 8.0673C16.181 8.1552 16.0618 8.20459 15.9375 8.20459C15.8132 8.20459 15.694 8.1552 15.606 8.0673C15.5181 7.97939 15.4688 7.86016 15.4688 7.73584C15.4688 7.42504 15.5922 7.12697 15.812 6.9072C16.0318 6.68743 16.3298 6.56396 16.6406 6.56396C16.9514 6.56396 17.2495 6.68743 17.4693 6.9072C17.689 7.12697 17.8125 7.42504 17.8125 7.73584C17.8125 7.86016 17.7631 7.97939 17.6752 8.0673C17.5873 8.1552 17.4681 8.20459 17.3438 8.20459ZM14.0625 8.20459C13.9382 8.20459 13.819 8.1552 13.731 8.0673C13.6431 7.97939 13.5938 7.86016 13.5938 7.73584C13.5938 7.67368 13.5691 7.61407 13.5251 7.57011C13.4811 7.52616 13.4215 7.50146 13.3594 7.50146C13.2972 7.50146 13.2376 7.52616 13.1936 7.57011C13.1497 7.61407 13.125 7.67368 13.125 7.73584C13.125 7.86016 13.0756 7.97939 12.9877 8.0673C12.8998 8.1552 12.7806 8.20459 12.6562 8.20459C12.5319 8.20459 12.4127 8.1552 12.3248 8.0673C12.2369 7.97939 12.1875 7.86016 12.1875 7.73584C12.1875 7.42504 12.311 7.12697 12.5307 6.9072C12.7505 6.68743 13.0486 6.56396 13.3594 6.56396C13.6702 6.56396 13.9682 6.68743 14.188 6.9072C14.4078 7.12697 14.5312 7.42504 14.5312 7.73584C14.5312 7.86016 14.4819 7.97939 14.394 8.0673C14.306 8.1552 14.1868 8.20459 14.0625 8.20459Z" fill="white"/>
<path d="M15.7031 9.84521H14.2969C14.1726 9.84521 14.0533 9.79583 13.9654 9.70792C13.8775 9.62001 13.8281 9.50079 13.8281 9.37646C13.8281 9.25214 13.8775 9.13292 13.9654 9.04501C14.0533 8.9571 14.1726 8.90771 14.2969 8.90771H15.7031C15.8274 8.90771 15.9467 8.9571 16.0346 9.04501C16.1225 9.13292 16.1719 9.25214 16.1719 9.37646C16.1719 9.50079 16.1225 9.62001 16.0346 9.70792C15.9467 9.79583 15.8274 9.84521 15.7031 9.84521Z" fill="white"/>
<path d="M15 12.4233C14.8757 12.4233 14.7565 12.374 14.6685 12.286C14.5806 12.1981 14.5312 12.0789 14.5312 11.9546V10.0796C14.5312 9.95527 14.5806 9.83604 14.6685 9.74813C14.7565 9.66023 14.8757 9.61084 15 9.61084C15.1243 9.61084 15.2435 9.66023 15.3315 9.74813C15.4194 9.83604 15.4688 9.95527 15.4688 10.0796V11.9546C15.4688 12.0789 15.4194 12.1981 15.3315 12.286C15.2435 12.374 15.1243 12.4233 15 12.4233ZM19.6875 10.0796C19.3147 10.0792 18.9572 9.93094 18.6935 9.6673C18.4299 9.40366 18.2816 9.04619 18.2812 8.67334C18.2812 8.54902 18.3306 8.42979 18.4185 8.34188C18.5065 8.25398 18.6257 8.20459 18.75 8.20459C18.8743 8.20459 18.9935 8.25398 19.0815 8.34188C19.1694 8.42979 19.2188 8.54902 19.2188 8.67334C19.2188 8.79766 19.2681 8.91689 19.356 9.0048C19.444 9.0927 19.5632 9.14209 19.6875 9.14209C19.8118 9.14209 19.931 9.0927 20.019 9.0048C20.1069 8.91689 20.1562 8.79766 20.1562 8.67334C20.1562 8.54902 20.2056 8.42979 20.2935 8.34188C20.3815 8.25398 20.5007 8.20459 20.625 8.20459C20.7493 8.20459 20.8685 8.25398 20.9565 8.34188C21.0444 8.42979 21.0938 8.54902 21.0938 8.67334C21.0934 9.04619 20.9451 9.40366 20.6815 9.6673C20.4178 9.93094 20.0603 10.0792 19.6875 10.0796Z" fill="white"/>
<path d="M20.625 9.14204C20.5007 9.14204 20.3815 9.09266 20.2935 9.00475C20.2056 8.91684 20.1562 8.79761 20.1562 8.67329V6.79829C20.1562 6.67397 20.2056 6.55474 20.2935 6.46684C20.3815 6.37893 20.5007 6.32954 20.625 6.32954C20.7493 6.32954 20.8685 6.37893 20.9565 6.46684C21.0444 6.55474 21.0938 6.67397 21.0938 6.79829V8.67329C21.0938 8.79761 21.0444 8.91684 20.9565 9.00475C20.8685 9.09266 20.7493 9.14204 20.625 9.14204ZM9.375 7.26704C9.25068 7.26704 9.13145 7.21766 9.04354 7.12975C8.95564 7.04184 8.90625 6.92261 8.90625 6.79829C8.90652 6.3367 9.00412 5.88035 9.19269 5.45902C9.38126 5.0377 9.65655 4.66087 10.0006 4.35314C10.3446 4.04541 10.7497 3.81368 11.1894 3.67309C11.629 3.53249 12.0934 3.48619 12.5522 3.5372C12.6758 3.551 12.7888 3.61332 12.8664 3.71046C12.944 3.8076 12.9799 3.93159 12.9661 4.05517C12.9523 4.17874 12.89 4.29177 12.7928 4.3694C12.6957 4.44702 12.5717 4.48287 12.4481 4.46907C12.3616 4.45935 12.2746 4.45449 12.1875 4.45454C11.5661 4.45529 10.9704 4.70246 10.531 5.14183C10.0917 5.58121 9.84449 6.17692 9.84375 6.79829C9.84375 6.92261 9.79436 7.04184 9.70646 7.12975C9.61855 7.21766 9.49932 7.26704 9.375 7.26704ZM10.3125 10.0795C9.93965 10.0792 9.58218 9.93089 9.31854 9.66725C9.0549 9.40361 8.90662 9.04614 8.90625 8.67329C8.90625 8.54897 8.95564 8.42974 9.04354 8.34184C9.13145 8.25393 9.25068 8.20454 9.375 8.20454C9.49932 8.20454 9.61855 8.25393 9.70646 8.34184C9.79436 8.42974 9.84375 8.54897 9.84375 8.67329C9.84375 8.79761 9.89314 8.91684 9.98104 9.00475C10.069 9.09266 10.1882 9.14204 10.3125 9.14204C10.4368 9.14204 10.556 9.09266 10.644 9.00475C10.7319 8.91684 10.7812 8.79761 10.7812 8.67329C10.7812 8.54897 10.8306 8.42974 10.9185 8.34184C11.0065 8.25393 11.1257 8.20454 11.25 8.20454C11.3743 8.20454 11.4935 8.25393 11.5815 8.34184C11.6694 8.42974 11.7188 8.54897 11.7188 8.67329C11.7184 9.04614 11.5701 9.40361 11.3065 9.66725C11.0428 9.93089 10.6853 10.0792 10.3125 10.0795Z" fill="white"/>
<path d="M9.375 9.14209C9.25068 9.14209 9.13145 9.0927 9.04354 9.0048C8.95564 8.91689 8.90625 8.79766 8.90625 8.67334V6.79834C8.90625 6.67402 8.95564 6.55479 9.04354 6.46688C9.13145 6.37898 9.25068 6.32959 9.375 6.32959C9.49932 6.32959 9.61855 6.37898 9.70646 6.46688C9.79436 6.55479 9.84375 6.67402 9.84375 6.79834V8.67334C9.84375 8.79766 9.79436 8.91689 9.70646 9.0048C9.61855 9.0927 9.49932 9.14209 9.375 9.14209ZM10.777 16.1733C10.6527 16.1733 10.5335 16.124 10.4456 16.036C10.3577 15.9481 10.3083 15.8289 10.3083 15.7046V14.3026C10.3083 14.1782 10.3577 14.059 10.4456 13.9711C10.5335 13.8832 10.6527 13.8338 10.777 13.8338C10.9014 13.8338 11.0206 13.8832 11.1085 13.9711C11.1964 14.059 11.2458 14.1782 11.2458 14.3026V15.7041C11.2458 15.8284 11.1964 15.9477 11.1085 16.0356C11.0206 16.1235 10.9014 16.1733 10.777 16.1733ZM19.223 16.1733C19.0986 16.1733 18.9794 16.124 18.8915 16.036C18.8036 15.9481 18.7542 15.8289 18.7542 15.7046V14.3026C18.7542 14.1782 18.8036 14.059 18.8915 13.9711C18.9794 13.8832 19.0986 13.8338 19.223 13.8338C19.3473 13.8338 19.4665 13.8832 19.5544 13.9711C19.6423 14.059 19.6917 14.1782 19.6917 14.3026V15.7041C19.6917 15.8284 19.6423 15.9477 19.5544 16.0356C19.4665 16.1235 19.3473 16.1733 19.223 16.1733Z" fill="white"/>
</svg>
