<svg width="30" height="30" viewBox="0 0 30 30" fill="none" xmlns="http://www.w3.org/2000/svg">
<g clip-path="url(#clip0_23390_808)">
<g clip-path="url(#clip1_23390_808)">
<path d="M15 27.3511C15.3236 27.3511 15.5859 27.0887 15.5859 26.7651C15.5859 26.4415 15.3236 26.1792 15 26.1792C14.6764 26.1792 14.4141 26.4415 14.4141 26.7651C14.4141 27.0887 14.6764 27.3511 15 27.3511Z" fill="white"/>
<path d="M7.35156 19.6047C7.67517 19.6047 7.9375 19.3424 7.9375 19.0188C7.9375 18.6952 7.67517 18.4329 7.35156 18.4329C7.02796 18.4329 6.76562 18.6952 6.76562 19.0188C6.76562 19.3424 7.02796 19.6047 7.35156 19.6047Z" fill="white"/>
<path d="M10.4375 19.6047C10.7611 19.6047 11.0234 19.3424 11.0234 19.0188C11.0234 18.6952 10.7611 18.4329 10.4375 18.4329C10.1139 18.4329 9.85156 18.6952 9.85156 19.0188C9.85156 19.3424 10.1139 19.6047 10.4375 19.6047Z" fill="white"/>
<path d="M8.88281 21.7065C9.20642 21.7065 9.46875 21.4442 9.46875 21.1206C9.46875 20.797 9.20642 20.5347 8.88281 20.5347C8.55921 20.5347 8.29688 20.797 8.29688 21.1206C8.29688 21.4442 8.55921 21.7065 8.88281 21.7065Z" fill="white"/>
<path d="M19.5637 19.6059C19.8879 19.6059 20.1508 19.343 20.1508 19.0187C20.1508 18.6945 19.8879 18.4316 19.5637 18.4316C19.2394 18.4316 18.9766 18.6945 18.9766 19.0187C18.9766 19.343 19.2394 19.6059 19.5637 19.6059Z" fill="white"/>
<path d="M22.6484 19.6047C22.972 19.6047 23.2344 19.3424 23.2344 19.0188C23.2344 18.6952 22.972 18.4329 22.6484 18.4329C22.3248 18.4329 22.0625 18.6952 22.0625 19.0188C22.0625 19.3424 22.3248 19.6047 22.6484 19.6047Z" fill="white"/>
<path d="M21.0938 21.7065C21.4174 21.7065 21.6797 21.4442 21.6797 21.1206C21.6797 20.797 21.4174 20.5347 21.0938 20.5347C20.7701 20.5347 20.5078 20.797 20.5078 21.1206C20.5078 21.4442 20.7701 21.7065 21.0938 21.7065Z" fill="white"/>
<path d="M10.2738 11.0791C10.5981 11.0791 10.8609 10.8162 10.8609 10.492C10.8609 9.00451 9.6508 7.79443 8.1634 7.79443C6.67594 7.79443 5.4658 9.00457 5.4658 10.492C5.4658 10.8162 5.72865 11.0791 6.05291 11.0791C6.37717 11.0791 6.64002 10.8162 6.64002 10.492C6.64002 9.65197 7.3234 8.96859 8.16346 8.96859C9.00352 8.96859 9.68684 9.65197 9.68684 10.492C9.68672 10.8162 9.94957 11.0791 10.2738 11.0791ZM30 22.0769C30 20.2026 28.3753 18.6778 26.3781 18.6778C26.25 18.6778 26.12 18.6847 25.9914 18.6977C25.7156 18.7194 25.4851 18.9398 25.4535 19.2157C25.3431 20.1751 24.7973 21.0698 23.9167 21.7349C23.0014 22.4261 21.8082 22.8069 20.5567 22.8069C19.014 22.8069 17.5891 22.238 16.6475 21.2459C16.0688 20.6365 15.7293 19.9239 15.6544 19.1685C16.0898 19.0167 16.4607 18.7137 16.7018 18.2961L17.768 16.4495C18.1232 15.8343 18.1232 15.0996 17.768 14.4844C17.4127 13.8691 16.7765 13.5018 16.0661 13.5018H13.9339C13.2235 13.5018 12.5873 13.8691 12.2321 14.4844C11.8769 15.0996 11.8769 15.8343 12.2321 16.4495L13.2982 18.2961C13.5574 18.745 13.9665 19.0611 14.4446 19.1996C14.3636 19.9433 14.026 20.6449 13.4552 21.246C12.5136 22.238 11.0887 22.8069 9.54598 22.8069C8.2967 22.8069 7.10502 22.4275 6.19043 21.7386C5.31047 21.0758 4.7635 20.1836 4.65023 19.2263C4.61924 18.9645 4.40742 18.7492 4.1465 18.7136C3.97263 18.6898 3.79734 18.6779 3.62186 18.6778C1.62475 18.6778 0 20.2026 0 22.0769C0 22.8629 0.287695 23.614 0.805313 24.2137C0.287695 24.8137 0 25.565 0 26.3507C0 28.2247 1.62475 29.7492 3.62186 29.7492C4.48506 29.7492 5.32107 29.4597 5.97592 28.9339C6.49688 28.5157 6.87803 27.9701 7.07977 27.364H12.3684C12.6927 27.364 12.9555 27.1011 12.9555 26.7769C12.9555 26.4526 12.6927 26.1898 12.3684 26.1898H6.62203C6.48284 26.1898 6.34817 26.2392 6.24206 26.3293C6.13595 26.4194 6.0653 26.5443 6.04272 26.6816C5.86529 27.761 4.82455 28.575 3.62191 28.575C2.27227 28.575 1.17428 27.5771 1.17428 26.3507C1.17428 25.7085 1.48078 25.0972 2.01527 24.6735C2.08461 24.6185 2.14062 24.5486 2.17911 24.4689C2.2176 24.3892 2.23758 24.3018 2.23755 24.2133C2.23752 24.1248 2.21749 24.0374 2.17895 23.9578C2.1404 23.8781 2.08435 23.8082 2.01498 23.7532C1.48072 23.3302 1.17428 22.7191 1.17428 22.0769C1.17428 20.8659 2.24432 19.8784 3.57 19.8531C4.12588 22.2381 6.59953 23.9809 9.54609 23.9809C11.4093 23.9809 13.1445 23.2787 14.3068 22.0543C14.596 21.7503 14.8462 21.4114 15.0514 21.0455C15.2567 21.4114 15.5069 21.7502 15.796 22.0542C16.9584 23.2787 18.6936 23.9809 20.5568 23.9809C22.0621 23.9809 23.5066 23.516 24.6244 22.6718C25.6119 21.926 26.2751 20.9404 26.5307 19.8567C27.8095 19.9285 28.826 20.8966 28.826 22.0769C28.826 22.7191 28.5195 23.3301 27.9853 23.7532C27.9159 23.8082 27.8598 23.8781 27.8213 23.9578C27.7827 24.0374 27.7627 24.1248 27.7627 24.2133C27.7627 24.3018 27.7826 24.3892 27.8211 24.4688C27.8597 24.5485 27.9157 24.6185 27.985 24.6735C28.5195 25.0972 28.826 25.7085 28.826 26.3507C28.826 27.5771 27.728 28.575 26.3783 28.575C25.1757 28.575 24.1349 27.761 23.9575 26.6816C23.9349 26.5443 23.8643 26.4194 23.7582 26.3293C23.6521 26.2392 23.5174 26.1898 23.3782 26.1898H17.6318C17.3076 26.1898 17.0447 26.4526 17.0447 26.7769C17.0447 27.1011 17.3075 27.364 17.6318 27.364H22.9205C23.1222 27.9701 23.5033 28.5157 24.0243 28.9339C24.6791 29.4597 25.5151 29.7492 26.3783 29.7492C28.3754 29.7492 30.0002 28.2246 30.0002 26.3507C30.0002 25.565 29.7124 24.8137 29.1949 24.2137C29.7123 23.614 30 22.8629 30 22.0769ZM14.315 17.7089L13.2489 15.8623C13.106 15.6147 13.106 15.319 13.2489 15.0714C13.3919 14.8237 13.6479 14.6759 13.9339 14.6759H16.0661C16.3521 14.6759 16.608 14.8237 16.7511 15.0714C16.894 15.319 16.894 15.6146 16.7511 15.8623L15.6849 17.7089C15.5419 17.9565 15.2859 18.1044 14.9999 18.1044C14.7141 18.1044 14.458 17.9566 14.315 17.7089Z" fill="white"/>
<path d="M3.54605 16.4912C3.86896 16.4619 4.10691 16.1763 4.07755 15.8534C3.63535 10.9892 4.33958 7.50669 5.0082 5.44172C5.73118 3.20889 6.5689 2.10809 6.57622 2.0986C6.58226 2.09087 6.58806 2.08301 6.59368 2.07505C6.88542 1.66049 7.31433 1.42448 7.74288 1.44352C8.12269 1.46057 8.44689 1.66911 8.65572 2.03075L10.164 4.64327C10.2156 4.73251 10.2897 4.80663 10.3789 4.85816C10.4682 4.90969 10.5694 4.93682 10.6725 4.93682H18.9857C19.0888 4.93682 19.19 4.90969 19.2793 4.85816C19.3685 4.80663 19.4426 4.73251 19.4942 4.64327L21.0025 2.03075C21.216 1.66096 21.5574 1.44077 21.9391 1.42659C22.3617 1.41036 22.7711 1.6445 23.0593 2.06772C23.0659 2.07727 23.0738 2.08805 23.0808 2.09725C23.0892 2.10809 23.9269 3.20895 24.65 5.44178C25.3186 7.50674 26.0228 10.9893 25.5806 15.8534C25.5513 16.1763 25.7893 16.4619 26.1121 16.4913C26.1302 16.4929 26.1481 16.4937 26.166 16.4937C26.4662 16.4937 26.7223 16.2646 26.75 15.9598C27.214 10.8559 26.4584 7.18612 25.743 5.00631C24.9962 2.731 24.1407 1.55221 24.0203 1.39301C23.5072 0.64858 22.7135 0.222135 21.8954 0.253307C21.1132 0.282428 20.3992 0.727448 19.9856 1.44376L18.6468 3.76272H11.0115L9.67261 1.44376C9.26245 0.733307 8.57825 0.30569 7.7955 0.270592C6.96898 0.233678 6.16449 0.65151 5.64077 1.38915C5.53208 1.53223 4.66841 2.71167 3.91525 5.00631C3.19982 7.18618 2.44431 10.856 2.90831 15.9598C2.93761 16.2826 3.22361 16.5202 3.54605 16.4912Z" fill="white"/>
<path d="M24.192 10.492C24.192 9.00451 22.9818 7.79443 21.4944 7.79443C20.007 7.79443 18.7969 9.00457 18.7969 10.492C18.7969 10.8162 19.0597 11.0791 19.384 11.0791C19.7082 11.0791 19.9711 10.8162 19.9711 10.492C19.9711 9.65197 20.6545 8.96859 21.4945 8.96859C22.3345 8.96859 23.0179 9.65197 23.0179 10.492C23.0179 10.8162 23.2807 11.0791 23.605 11.0791C23.9292 11.0791 24.192 10.8162 24.192 10.492Z" fill="white"/>
</g>
</g>
<defs>
<clipPath id="clip0_23390_808">
<rect width="30" height="30" fill="white"/>
</clipPath>
<clipPath id="clip1_23390_808">
<rect width="30" height="30" fill="white" transform="translate(0 0.000488281)"/>
</clipPath>
</defs>
</svg>
