<svg width="25" height="25" viewBox="0 0 25 25" fill="none" xmlns="http://www.w3.org/2000/svg">
<path d="M1.77344 19.5974C1.77344 20.6152 2.17072 21.5792 2.90048 22.3188C3.63252 23.041 4.59561 23.4388 5.61284 23.4388H19.3768C20.394 23.4388 21.3571 23.041 22.0967 22.3112C22.8189 21.5792 23.2162 20.6152 23.2162 19.5974V8.88691C23.1971 8.63212 23.0821 8.39875 22.8799 8.24451L13.843 1.98574C13.0362 1.4265 11.9534 1.42688 11.1466 1.98536L2.10972 8.24451C1.90748 8.39871 1.79253 8.63219 1.77344 8.88691V19.5974ZM20.9926 21.2065C20.5549 21.6383 19.9807 21.8763 19.3768 21.8763H5.61284C5.00891 21.8763 4.43471 21.6383 4.00464 21.2141C3.57304 20.7762 3.33513 20.2021 3.33513 19.5974V10.6779L8.5687 15.5366L5.71884 18.3943C5.54345 18.5373 5.43212 18.7563 5.43212 19.0012C5.43212 19.4326 5.78518 19.7824 6.21678 19.7824C6.42419 19.7824 6.62321 19.7 6.76962 19.5532L9.71447 16.6003L10.9018 17.7027C11.3479 18.1169 11.9214 18.3241 12.4948 18.3241C13.0682 18.3241 13.6417 18.1169 14.0885 17.7023L15.2753 16.6005L18.22 19.5532C18.3664 19.7 18.573 19.7824 18.7804 19.7824C19.212 19.7824 19.5575 19.4326 19.5575 19.0012C19.5575 18.77 19.4561 18.5625 19.2959 18.4195L16.421 15.5367L21.6545 10.6779V19.5974C21.6545 20.2021 21.4166 20.7762 20.9926 21.2065ZM12.0357 3.26976C12.3103 3.07979 12.6793 3.07941 12.9539 3.27015L21.1915 8.97569L13.0263 16.5567C12.7274 16.8337 12.2615 16.8333 11.9641 16.5571L3.79813 8.97569L12.0357 3.26976Z" fill="#FF791F"/>
</svg>
