<svg width="13" height="11" viewBox="0 0 13 11" fill="none" xmlns="http://www.w3.org/2000/svg">
<path d="M12.9096 5.70318C12.7804 6.15934 12.522 6.55467 12.1826 6.81599C11.9115 7.02499 11.6037 7.1343 11.3009 7.1343C11.1869 7.1343 11.0754 7.11909 10.9652 7.08794C10.565 6.97342 10.2407 6.65549 10.076 6.21541C9.92527 5.81425 9.91513 5.34226 10.0443 4.88597C10.1748 4.42981 10.4332 4.03447 10.7714 3.77315C11.1439 3.48613 11.5872 3.38693 11.9887 3.50121C12.389 3.61572 12.7146 3.93366 12.8793 4.37374C13.0287 4.77493 13.0401 5.24689 12.9096 5.70318ZM4.44031 4.55021C4.91661 4.55021 5.37137 4.28508 5.68803 3.82248C5.97557 3.40306 6.13391 2.85369 6.13391 2.27531C6.13391 1.69641 5.97557 1.14704 5.68803 0.727617C5.37134 0.26515 4.91659 0 4.44031 0C3.96274 0 3.50801 0.265123 3.19132 0.727617C2.90505 1.14704 2.74671 1.69641 2.74671 2.27531C2.74671 2.85369 2.90505 3.40306 3.19132 3.82248C3.50801 4.28508 3.96277 4.55021 4.44031 4.55021ZM8.55971 4.55021C9.03728 4.55021 9.49201 4.28508 9.8087 3.82248C10.095 3.40306 10.2533 2.85369 10.2533 2.27531C10.2533 1.69641 10.095 1.14704 9.8087 0.727617C9.49201 0.26515 9.03726 0 8.55971 0C8.08341 0 7.62866 0.265123 7.31199 0.727617C7.02446 1.14704 6.86611 1.69641 6.86611 2.27531C6.86611 2.85369 7.02446 3.40306 7.31199 3.82248C7.62866 4.28508 8.08341 4.55021 8.55971 4.55021ZM2.9557 4.88626C2.82525 4.42986 2.56684 4.03453 2.2286 3.77318C1.85619 3.48616 1.41284 3.38696 1.01128 3.50123C0.609736 3.61575 0.285439 3.93368 0.120756 4.37376C-0.028716 4.77493 -0.0400977 5.24692 0.0903598 5.70321C0.219577 6.15936 0.477983 6.5547 0.817437 6.81602C1.08852 7.02502 1.39634 7.13433 1.69908 7.13433C1.81182 7.13433 1.92456 7.11912 2.03349 7.08797C2.43503 6.97345 2.75933 6.65552 2.92399 6.21544C3.07478 5.81427 3.08492 5.34228 2.9557 4.88626ZM8.98531 5.99859C8.29114 5.26895 7.40949 4.86741 6.50001 4.86741C5.5905 4.86741 4.70759 5.26895 4.01595 5.99859C3.35471 6.69441 2.89365 7.65991 2.71629 8.71773C2.60355 9.39251 2.80874 10.042 3.28124 10.4994C3.77273 10.9754 4.41496 11.12 5.04327 10.8965C5.50816 10.7306 5.99838 10.6465 6.50001 10.6465C7.00164 10.6465 7.49186 10.7306 7.95676 10.8965C8.15057 10.9654 8.34565 10.9995 8.53692 10.9995C8.96632 10.9995 9.37803 10.8287 9.71749 10.4994C10.1913 10.042 10.3964 9.39253 10.2837 8.71773C10.1064 7.65988 9.64529 6.69438 8.98531 5.99859Z" fill="#FF791F"/>
</svg>
