<svg width="36" height="40" viewBox="0 0 36 40" fill="none" xmlns="http://www.w3.org/2000/svg">
<path d="M24.2559 26.4285C28.5124 19.7494 27.9773 20.5827 28.1 20.4085C29.6497 18.2227 30.4688 15.6502 30.4688 12.9688C30.4688 5.85781 24.6984 0 17.5781 0C10.4811 0 4.6875 5.84625 4.6875 12.9688C4.6875 15.6484 5.52375 18.2884 7.12422 20.5036L10.9002 26.4286C6.86305 27.049 0 28.8978 0 32.9688C0 34.4527 0.968594 36.5676 5.58297 38.2155C8.805 39.3662 13.0649 40 17.5781 40C26.0176 40 35.1562 37.6194 35.1562 32.9688C35.1562 28.8971 28.3013 27.0502 24.2559 26.4285ZM9.08195 19.2145C9.06907 19.1943 9.0556 19.1746 9.04156 19.1552C7.70976 17.323 7.03125 15.1516 7.03125 12.9688C7.03125 7.10797 11.7505 2.34375 17.5781 2.34375C23.3937 2.34375 28.125 7.11008 28.125 12.9688C28.125 15.1552 27.4593 17.2529 26.1995 19.0368C26.0866 19.1857 26.6756 18.2707 17.5781 32.546L9.08195 19.2145ZM17.5781 37.6562C8.35984 37.6562 2.34375 34.9466 2.34375 32.9688C2.34375 31.6394 5.435 29.4535 12.285 28.6015L16.5898 35.3564C16.6957 35.5226 16.8417 35.6593 17.0145 35.7541C17.1872 35.8489 17.381 35.8985 17.578 35.8985C17.7751 35.8985 17.9689 35.8489 18.1416 35.7541C18.3143 35.6593 18.4604 35.5226 18.5662 35.3564L22.871 28.6015C29.7212 29.4535 32.8125 31.6394 32.8125 32.9688C32.8125 34.9298 26.8505 37.6562 17.5781 37.6562Z" fill="white"/>
<path d="M17.5781 7.10938C14.3473 7.10938 11.7188 9.73789 11.7188 12.9688C11.7188 16.1996 14.3473 18.8281 17.5781 18.8281C20.809 18.8281 23.4375 16.1996 23.4375 12.9688C23.4375 9.73789 20.809 7.10938 17.5781 7.10938ZM17.5781 16.4844C15.6396 16.4844 14.0625 14.9073 14.0625 12.9688C14.0625 11.0302 15.6396 9.45312 17.5781 9.45312C19.5166 9.45312 21.0938 11.0302 21.0938 12.9688C21.0938 14.9073 19.5166 16.4844 17.5781 16.4844Z" fill="white"/>
</svg>
