<svg width="25" height="25" viewBox="0 0 25 25" fill="none" xmlns="http://www.w3.org/2000/svg">
<path d="M18.3247 16.3516C18.1069 16.1331 17.8482 15.9597 17.5633 15.8414C17.2784 15.7231 16.973 15.6623 16.6645 15.6623C16.3561 15.6623 16.0506 15.7231 15.7657 15.8414C15.4808 15.9597 15.2221 16.1331 15.0044 16.3516L13.8716 17.4844C12.5961 16.6749 11.4144 15.7264 10.3481 14.6563C9.28025 13.588 8.33195 12.4065 7.51999 11.1328L8.65281 10C8.87131 9.78229 9.04467 9.52356 9.16297 9.23867C9.28126 8.95379 9.34216 8.64835 9.34216 8.33988C9.34216 8.03141 9.28126 7.72597 9.16297 7.44109C9.04467 7.1562 8.87131 6.89747 8.65281 6.67972L6.44187 4.4766C6.2272 4.25738 5.97065 4.08355 5.68747 3.96544C5.40429 3.84734 5.10025 3.78737 4.79343 3.7891C4.48443 3.78834 4.17834 3.84869 3.89275 3.96668C3.60716 4.08467 3.34773 4.25797 3.12937 4.4766L2.06687 5.53129C1.56044 6.07579 1.18247 6.72687 0.960748 7.43666C0.739024 8.14644 0.679181 8.89689 0.785619 9.63285C1.03562 12.5625 2.95749 16.086 5.91843 19.0547C8.87937 22.0235 12.4419 23.9375 15.3716 24.2188C15.5902 24.2305 15.8092 24.2305 16.0278 24.2188C16.6585 24.2453 17.288 24.1456 17.8797 23.9256C18.4713 23.7056 19.013 23.3696 19.4731 22.9375L20.5278 21.875C20.7464 21.6567 20.9197 21.3972 21.0377 21.1117C21.1557 20.8261 21.2161 20.52 21.2153 20.211C21.217 19.9042 21.1571 19.6001 21.039 19.3169C20.9209 19.0338 20.747 18.7772 20.5278 18.5625L18.3247 16.3516ZM19.4262 20.7735L18.3637 21.8282C17.9709 22.1556 17.5123 22.3948 17.019 22.5296C16.5256 22.6643 16.0091 22.6916 15.5044 22.6094C12.9653 22.3907 9.73093 20.5938 7.05906 17.9219C4.38718 15.25 2.59031 12.0391 2.34812 9.50004C2.26387 8.99528 2.29009 8.47826 2.42496 7.98462C2.55984 7.49097 2.80016 7.03245 3.12937 6.64066L4.23093 5.57816C4.30393 5.50575 4.39051 5.44847 4.48569 5.40959C4.58088 5.37071 4.6828 5.351 4.78562 5.3516C4.88844 5.351 4.99036 5.37071 5.08555 5.40959C5.18073 5.44847 5.26731 5.50575 5.34031 5.57816L7.55124 7.81254C7.69675 7.95891 7.77843 8.15692 7.77843 8.36332C7.77843 8.56971 7.69675 8.76772 7.55124 8.9141L5.98874 10.4766C5.86648 10.5983 5.78791 10.757 5.7653 10.928C5.74269 11.099 5.7773 11.2726 5.86374 11.4219C6.79921 13.0145 7.93619 14.4797 9.24656 15.7813C10.5482 17.0917 12.0134 18.2286 13.6059 19.1641C13.7552 19.2505 13.9289 19.2852 14.0999 19.2625C14.2709 19.2399 14.4296 19.1614 14.5512 19.0391L16.1137 17.4766C16.2601 17.3311 16.4581 17.2494 16.6645 17.2494C16.8709 17.2494 17.0689 17.3311 17.2153 17.4766L19.4262 19.6875C19.4987 19.7605 19.5559 19.8471 19.5948 19.9423C19.6337 20.0375 19.6534 20.1394 19.6528 20.2422C19.6479 20.4417 19.5669 20.6318 19.4262 20.7735Z" fill="#FF791F"/>
<path d="M20.7812 4.21096C19.6955 3.12109 18.4048 2.25693 16.9835 1.66829C15.5622 1.07965 14.0384 0.778186 12.5 0.781273C12.2928 0.781273 12.0941 0.863583 11.9476 1.0101C11.8011 1.15661 11.7188 1.35532 11.7188 1.56252C11.7188 1.76972 11.8011 1.96844 11.9476 2.11495C12.0941 2.26146 12.2928 2.34377 12.5 2.34377C13.841 2.34373 15.1687 2.60925 16.4066 3.12501C17.6444 3.64077 18.7679 4.39657 19.7121 5.34879C20.6563 6.30101 21.4026 7.43079 21.908 8.67294C22.4133 9.91509 22.6676 11.245 22.6562 12.586C22.6562 12.7932 22.7386 12.9919 22.8851 13.1384C23.0316 13.2849 23.2303 13.3672 23.4375 13.3672C23.6447 13.3672 23.8434 13.2849 23.9899 13.1384C24.1364 12.9919 24.2187 12.7932 24.2187 12.586C24.2337 11.0312 23.9373 9.48922 23.3469 8.05085C22.7565 6.61249 21.8842 5.30687 20.7812 4.21096Z" fill="#FF791F"/>
<path d="M16.3359 8.67969C16.7793 9.12038 17.1301 9.64531 17.3675 10.2236C17.605 10.8018 17.7244 11.4218 17.7188 12.0469C17.7188 12.2541 17.8011 12.4528 17.9476 12.5993C18.0941 12.7458 18.2928 12.8281 18.5 12.8281C18.7072 12.8281 18.9059 12.7458 19.0524 12.5993C19.1989 12.4528 19.2812 12.2541 19.2812 12.0469C19.2916 11.2196 19.1376 10.3984 18.8281 9.6311C18.5187 8.86378 18.0599 8.16553 17.4785 7.57687C16.8971 6.9882 16.2046 6.52083 15.4412 6.20186C14.6778 5.8829 13.8586 5.71869 13.0312 5.71875C12.824 5.71875 12.6253 5.80106 12.4788 5.94757C12.3323 6.09409 12.25 6.2928 12.25 6.5C12.25 6.7072 12.3323 6.90591 12.4788 7.05243C12.6253 7.19894 12.824 7.28125 13.0312 7.28125C13.6469 7.28589 14.2557 7.41178 14.8227 7.65172C15.3897 7.89167 15.9039 8.24098 16.3359 8.67969Z" fill="#FF791F"/>
</svg>
