<svg width="32" height="32" viewBox="0 0 32 32" fill="none" xmlns="http://www.w3.org/2000/svg">
<path d="M23.5 23.355C22.6796 23.0173 21.792 22.8746 20.9071 22.9379C20.0222 23.0012 19.164 23.2689 18.4 23.72C17.8794 24.0228 17.4074 24.4024 17 24.846V21.946C19.5526 21.6894 21.909 20.4616 23.5819 18.5165C25.2547 16.5714 26.1159 14.0577 25.9875 11.4955C25.859 8.93319 24.7507 6.51828 22.8918 4.75019C21.0329 2.9821 18.5655 1.99609 16 1.99609C13.4345 1.99609 10.9671 2.9821 9.10821 4.75019C7.24928 6.51828 6.14099 8.93319 6.01255 11.4955C5.88411 14.0577 6.74536 16.5714 8.41817 18.5165C10.091 20.4616 12.4474 21.6894 15 21.946V24.831C14.592 24.3897 14.12 24.0122 13.6 23.711C12.8347 23.2626 11.9758 22.9978 11.0909 22.9374C10.206 22.877 9.31913 23.0227 8.50001 23.363C8.17712 23.5047 7.90829 23.7464 7.73312 24.0525C7.55794 24.3585 7.4857 24.7128 7.52701 25.063C7.65008 25.9414 7.97508 26.7794 8.47652 27.511C8.97796 28.2427 9.64217 28.8482 10.417 29.28C11.3117 29.7932 12.3246 30.0647 13.356 30.068C14.0985 30.0705 14.8337 29.9208 15.516 29.628C15.6961 29.5471 15.8601 29.4343 16 29.295C16.1429 29.4428 16.3126 29.5623 16.5 29.647C17.1775 29.9354 17.9066 30.0831 18.643 30.081C19.681 30.0773 20.6999 29.8015 21.598 29.281C22.371 28.8466 23.0328 28.2391 23.5316 27.5061C24.0305 26.773 24.3527 25.9344 24.473 25.056C24.5146 24.7056 24.4424 24.3512 24.2672 24.0449C24.092 23.7386 23.8231 23.4968 23.5 23.355ZM11.4 27.555C10.9374 27.2982 10.5338 26.9471 10.2157 26.5243C9.89746 26.1015 9.6717 25.6166 9.55301 25.101C10.0586 24.9502 10.5895 24.9036 11.1137 24.964C11.6378 25.0244 12.1442 25.1905 12.6023 25.4522C13.0604 25.714 13.4606 26.066 13.7787 26.4869C14.0968 26.9078 14.3262 27.3888 14.453 27.901C13.9481 28.0601 13.4153 28.1112 12.8893 28.0509C12.3633 27.9906 11.8559 27.8202 11.4 27.551V27.555ZM8.00001 12.001C8.00001 10.4187 8.4692 8.872 9.34825 7.55641C10.2273 6.24081 11.4767 5.21543 12.9385 4.60993C14.4004 4.00443 16.0089 3.846 17.5607 4.15469C19.1126 4.46337 20.538 5.22529 21.6569 6.34411C22.7757 7.46293 23.5376 8.8884 23.8463 10.4402C24.155 11.9921 23.9965 13.6006 23.391 15.0624C22.7855 16.5242 21.7602 17.7737 20.4446 18.6527C19.129 19.5318 17.5823 20.001 16 20.001C13.879 19.9986 11.8456 19.155 10.3458 17.6552C8.84601 16.1554 8.00239 14.122 8.00001 12.001ZM20.606 27.549C20.1513 27.8186 19.6451 27.9899 19.1201 28.0519C18.5952 28.1139 18.063 28.0652 17.558 27.909C17.6832 27.3965 17.911 26.9148 18.2276 26.4929C18.5443 26.0711 18.9433 25.7178 19.4004 25.4546C19.8575 25.1913 20.3633 25.0235 20.8872 24.9614C21.411 24.8992 21.942 24.944 22.448 25.093C22.3299 25.6084 22.1049 26.0934 21.7876 26.5164C21.4704 26.9395 21.0678 27.2913 20.606 27.549ZM16 18.001C15.7348 18.001 15.4804 17.8956 15.2929 17.7081C15.1054 17.5205 15 17.2662 15 17.001V16.377H13.5C13.2348 16.377 12.9804 16.2716 12.7929 16.0841C12.6054 15.8965 12.5 15.6422 12.5 15.377C12.5 15.1118 12.6054 14.8574 12.7929 14.6699C12.9804 14.4823 13.2348 14.377 13.5 14.377H16.625C16.8312 14.3961 17.0369 14.3354 17.1996 14.2074C17.3624 14.0794 17.4699 13.8938 17.5 13.689C17.4699 13.4841 17.3624 13.2986 17.1996 13.1706C17.0369 13.0426 16.8312 12.9819 16.625 13.001H15.375C14.638 13.0239 13.9218 12.7542 13.3831 12.2507C12.8444 11.7472 12.5269 11.0509 12.5 10.314C12.5218 9.64316 12.7879 9.00342 13.2483 8.51504C13.7087 8.02667 14.3317 7.72329 15 7.66197V7.00097C15 6.73575 15.1054 6.4814 15.2929 6.29386C15.4804 6.10633 15.7348 6.00097 16 6.00097C16.2652 6.00097 16.5196 6.10633 16.7071 6.29386C16.8947 6.4814 17 6.73575 17 7.00097V7.62697H18.5C18.7652 7.62697 19.0196 7.73233 19.2071 7.91986C19.3947 8.1074 19.5 8.36175 19.5 8.62697C19.5 8.89218 19.3947 9.14654 19.2071 9.33407C19.0196 9.52161 18.7652 9.62697 18.5 9.62697H15.375C15.169 9.60785 14.9634 9.66842 14.8007 9.7962C14.6379 9.92399 14.5303 10.1093 14.5 10.314C14.5301 10.5188 14.6376 10.7044 14.8004 10.8324C14.9632 10.9604 15.1688 11.0211 15.375 11.002H16.625C17.362 10.979 18.0782 11.2488 18.6169 11.7523C19.1556 12.2558 19.4731 12.9521 19.5 13.689C19.4784 14.36 19.2124 14.9999 18.752 15.4885C18.2916 15.9771 17.6685 16.2806 17 16.342V17.001C17 17.2662 16.8947 17.5205 16.7071 17.7081C16.5196 17.8956 16.2652 18.001 16 18.001Z" fill="white"/>
</svg>
