<svg width="308" height="429" viewBox="0 0 308 429" fill="none" xmlns="http://www.w3.org/2000/svg">
<path d="M45.9676 163.172C48.0087 143.125 50.041 122.852 47.3108 102.883V102.891C45.828 92.0627 42.8536 81.2948 37.9253 71.5019C36.866 69.3969 34.5457 66.5513 32.0431 63.4823C27.6017 58.0355 22.5864 51.8848 23.0271 47.9206C24.2474 36.9997 56.5952 24.2181 69.9168 18.9543C71.2591 18.4239 72.4083 17.9699 73.3129 17.6017C111.204 2.1681 153.151 -3.47261 193.728 2.09847C231.872 7.33006 270.95 24.0781 291.09 56.8256C307.672 83.8018 308.998 117.246 307.48 148.862C304.95 201.386 295.861 253.598 280.483 303.894C273.226 327.65 264.451 351.205 250.923 372.062C237.394 392.91 218.727 411.042 195.752 420.608C168.974 431.751 138.514 430.488 110.148 424.395C87.9232 419.625 65.2707 411.312 50.3899 394.154C26.9784 367.152 29.2812 327.171 32.8924 291.647C35.1785 269.201 37.4623 246.753 39.7462 224.304C41.8193 203.928 43.8924 183.55 45.9676 163.172Z" fill="#6839CC"/>
<path d="M6.83554 60.6962C14.1997 64.8141 20.3783 71.3297 24.9215 78.8096C29.5684 86.2721 32.4587 94.8206 34.3538 103.421C36.1278 112.065 36.7941 120.848 36.9152 129.449C37.0624 138.067 36.6903 146.459 36.3355 154.938C34.5788 188.776 29.5943 221.945 25.6829 254.714C21.7975 287.466 18.6736 319.965 20.6899 352.335C21.5466 368.468 23.6148 384.227 30.5722 398.014C33.9211 404.86 38.9056 411.002 45.0323 415.936C51.159 420.845 58.6616 424.38 67.0469 425.258C58.7395 426.891 49.6965 425.101 41.7872 421.149C33.8173 417.204 26.9031 411.097 21.4081 403.817C16.017 396.537 12.1228 388.249 9.32775 379.814C6.53266 371.361 4.68946 362.743 3.43469 354.238C-2.043 320.113 -0.243044 285.485 3.7722 252.047C7.8134 218.504 14.243 185.831 19.1236 153.201C21.4514 136.825 24.2551 120.596 23.6667 104.794C23.1734 89.1043 18.5438 72.9455 6.8442 60.6875L6.83554 60.6962Z" fill="#6839CC"/>
</svg>
