<svg width="308" height="243" viewBox="0 0 308 243" fill="none" xmlns="http://www.w3.org/2000/svg">
<path d="M30.3516 51.5576C19.8516 67.6836 14.5811 86.1499 11.9839 104.68C10.659 113.966 9.99063 123.333 9.94373 132.694C9.90855 142.049 10.2427 151.405 11.2863 160.661C12.2946 169.731 14.3935 178.569 17.6824 186.812C21.0007 195.032 25.6966 202.577 31.7644 208.614C37.8381 214.64 45.143 219.367 53.3682 222.435C57.4604 224.001 61.7225 225.247 66.1312 226.132C70.5165 227.063 75.019 227.715 79.5918 228.117C88.7023 229.037 98.1002 229.194 107.539 228.932C112.253 228.932 116.972 228.716 121.697 228.472C126.423 228.326 131.142 227.849 135.879 227.57C145.341 226.894 154.809 225.887 164.289 224.793L192.77 221.154C230.73 216.049 269.348 210.407 308 211.834C269.676 216.264 232.442 224.81 194.546 231.982C175.633 235.714 156.48 238.695 137.104 240.831C132.256 241.326 127.407 241.827 122.524 242.089C117.646 242.421 112.768 242.729 107.867 242.817C102.966 242.968 98.0767 243.073 93.1228 242.939C88.1806 242.846 83.1973 242.613 78.1848 242.106C73.184 241.606 68.1597 240.826 63.1588 239.708C58.1522 238.642 53.1748 237.135 48.3205 235.219C43.4428 233.351 38.7351 230.894 34.303 227.995C29.8239 225.159 25.7728 221.643 22.1204 217.813C14.8566 210.052 9.62128 200.796 6.12129 191.196C2.58026 181.584 0.81561 171.513 0.317286 161.558C-0.737988 142.009 0.827334 122.419 5.18913 103.423C7.48728 93.9626 10.4655 84.6363 14.5811 75.8165C18.6791 66.9967 23.8264 58.6368 30.3516 51.5576Z" fill="#6839CC"/>
<path d="M45.1094 38.8485C52.8715 29.6212 62.6386 22.0647 73.2676 16.0393C83.9317 10.0488 95.5515 5.66509 107.558 3.0046C119.559 0.3441 131.964 -0.581541 144.176 0.355746C156.37 1.33378 168.447 4.06996 179.416 9.16973C167.416 7.81911 155.679 7.14962 144.024 7.63864C132.381 8.07526 120.872 9.55979 109.581 12.0456C98.2952 14.5373 87.2324 18.0419 76.4979 22.5479C65.7341 27.0073 55.3983 32.567 45.1094 38.8485Z" fill="#6839CC"/>
</svg>
