<svg width="262" height="140" viewBox="0 0 262 140" fill="none" xmlns="http://www.w3.org/2000/svg">
<path d="M260.5 0V0.5H261.5V1.52148H262V4.56543H261.5V7.6084H262V10.6523H261.5V13.6953H262V16.7393H261.5V19.7822H262V22.8262H261.5V25.8691H262V28.9131H261.5V31.9561H262V35H261.5V38.043H262V41.0869H261.5V44.1309H262V47.1738H261.5V50.2178H262V53.2607H261.5V56.3047H262V59.3477H261.5V62.3916H262V65.4346H261.5V68.4785H262V71.5215H261.5V74.5654H262V77.6084H261.5V80.6523H262V83.6953H261.5V86.7393H262V89.7822H261.5V92.8262H262V95.8691H261.5V98.9131H262V101.956H261.5V105H262V108.044H261.5V111.087H262V114.131H261.5V117.174H262V120.218H261.5V123.261H262V126.305H261.5V129.348H262V132.392H261.5V135.435H262V138.479H261.5V139.5H260.5V140H257.5V139.5H254.5V140H251.5V139.5H248.5V140H245.5V139.5H242.5V140H239.5V139.5H236.5V140H233.5V139.5H230.5V140H227.5V139.5H224.5V140H221.5V139.5H218.5V140H215.5V139.5H212.5V140H209.5V139.5H206.5V140H203.5V139.5H200.5V140H197.5V139.5H194.5V140H191.5V139.5H188.5V140H185.5V139.5H182.5V140H179.5V139.5H176.5V140H173.5V139.5H170.5V140H167.5V139.5H164.5V140H161.5V139.5H158.5V140H155.5V139.5H152.5V140H149.5V139.5H146.5V140H143.5V139.5H140.5V140H137.5V139.5H134.5V140H131.5V139.5H128.5V140H125.5V139.5H122.5V140H119.5V139.5H116.5V140H113.5V139.5H110.5V140H107.5V139.5H104.5V140H101.5V139.5H98.5V140H95.5V139.5H92.5V140H89.5V139.5H86.5V140H83.5V139.5H80.5V140H77.5V139.5H74.5V140H71.5V139.5H70C69.4915 139.5 68.9844 139.494 68.4785 139.483L68.4678 139.982C67.4453 139.96 66.4282 139.917 65.417 139.852L65.4492 139.354C64.4366 139.288 63.4299 139.201 62.4297 139.093L62.376 139.588C61.3602 139.478 60.3509 139.347 59.3486 139.194L59.4238 138.7C58.4206 138.547 57.4242 138.372 56.4355 138.177L56.3389 138.666C55.3363 138.468 54.3412 138.249 53.3545 138.009H53.3555L53.4736 137.523C52.4887 137.283 51.5119 137.022 50.5439 136.74L50.4043 137.219C49.4243 136.934 48.453 136.628 47.4912 136.302L47.6514 135.829C46.6923 135.504 45.7425 135.158 44.8027 134.792L44.6211 135.256C43.6704 134.886 42.7298 134.496 41.7998 134.086L42.002 133.63C41.0755 133.222 40.1596 132.794 39.2549 132.347L39.0332 132.794C38.119 132.342 37.2163 131.871 36.3252 131.381L36.5664 130.944C35.6796 130.457 34.8041 129.95 33.9414 129.426L33.6807 129.854C32.8098 129.324 31.9528 128.774 31.1074 128.208L31.3848 127.794C30.5442 127.231 29.7165 126.651 28.9023 126.053L28.6064 126.454C27.7852 125.851 26.977 125.231 26.1836 124.594H26.1846L26.4971 124.204C25.7089 123.571 24.9343 122.92 24.1748 122.254L23.8457 122.629C23.0801 121.957 22.3292 121.269 21.5938 120.564L21.9395 120.204C21.2095 119.505 20.4948 118.79 19.7959 118.061L19.4346 118.405C18.7303 117.67 18.042 116.919 17.3701 116.153L17.7461 115.825C17.0795 115.066 16.4293 114.291 15.7959 113.503L15.4062 113.815H15.4053C14.7677 113.022 14.148 112.214 13.5449 111.393L13.9473 111.098C13.3493 110.284 12.7688 109.456 12.2061 108.615L11.791 108.892C11.2251 108.046 10.675 107.189 10.1455 106.318L10.5742 106.059C10.0496 105.196 9.54322 104.32 9.05566 103.434L8.61816 103.674C8.12826 102.783 7.65677 101.88 7.20508 100.966L7.65332 100.745C7.20632 99.8404 6.77836 98.9245 6.37012 97.998L5.91309 98.1992C5.50327 97.2692 5.11315 96.3286 4.74316 95.3779L5.20801 95.1973C4.84226 94.2575 4.49641 93.3077 4.1709 92.3486L3.69727 92.5078C3.37088 91.5461 3.06547 90.5747 2.78027 89.5947L3.25977 89.4561C2.97806 88.4881 2.71679 87.5113 2.47656 86.5264L1.99023 86.6445C1.7496 85.6579 1.53133 84.6627 1.33301 83.6602L1.82324 83.5645C1.62762 82.5756 1.45299 81.5786 1.2998 80.5752L0.804688 80.6504C0.651698 79.6482 0.521139 78.6388 0.411133 77.623L0.907227 77.5703C0.798886 76.5701 0.711924 75.5633 0.646484 74.5508L0.147461 74.582C0.0821213 73.5708 0.0385454 72.5537 0.0166016 71.5312L0.516602 71.5215C0.505738 71.0156 0.5 70.5085 0.5 70C0.5 69.4915 0.505739 68.9843 0.516602 68.4785L0.0166016 68.4678C0.0385594 67.4453 0.0821073 66.4282 0.147461 65.417L0.646484 65.4492C0.711924 64.4367 0.798888 63.4299 0.907227 62.4297L0.411133 62.376C0.521153 61.3602 0.651684 60.3509 0.804688 59.3486L1.2998 59.4248C1.45299 58.4214 1.62762 57.4244 1.82324 56.4355L1.33301 56.3389C1.53134 55.3363 1.74958 54.3411 1.99023 53.3545L1.99121 53.3555L2.47656 53.4736C2.71679 52.4887 2.97806 51.5119 3.25977 50.5439L2.78027 50.4043C3.05978 49.4439 3.35865 48.4917 3.67773 47.5488L3.69727 47.4912L4.1709 47.6514C4.49641 46.6923 4.84226 45.7425 5.20801 44.8027L4.74316 44.6211C5.11316 43.6704 5.50326 42.7298 5.91309 41.7998L6.37012 42.002C6.77836 41.0755 7.20632 40.1596 7.65332 39.2549L7.20508 39.0332C7.65677 38.119 8.12825 37.2163 8.61816 36.3252L9.05566 36.5664C9.54322 35.6796 10.0496 34.8041 10.5742 33.9414L10.1465 33.6816L10.1455 33.6807C10.675 32.8098 11.2251 31.9528 11.791 31.1074L12.2061 31.3848C12.7688 30.5442 13.3493 29.7165 13.9473 28.9023L13.5449 28.6064C14.148 27.7852 14.7677 26.977 15.4053 26.1836L15.4062 26.1846L15.7959 26.4971C16.4293 25.7089 17.0795 24.9343 17.7461 24.1748L17.3701 23.8457C18.042 23.0801 18.7303 22.3292 19.4346 21.5938L19.7959 21.9395C20.4948 21.2095 21.2095 20.4948 21.9395 19.7959L21.5938 19.4346C22.3292 18.7303 23.0801 18.042 23.8457 17.3701L24.1748 17.7461C24.9343 17.0795 25.7089 16.4293 26.4971 15.7959L26.1846 15.4062L26.1836 15.4053C26.977 14.7677 27.7852 14.148 28.6064 13.5449L28.9023 13.9473C29.7165 13.3493 30.5442 12.7688 31.3848 12.2061L31.1074 11.791C31.9528 11.2251 32.8098 10.675 33.6807 10.1455L33.6816 10.1465L33.9414 10.5742C34.8041 10.0496 35.6796 9.54322 36.5664 9.05566L36.3252 8.61816C37.2163 8.12825 38.119 7.65677 39.0332 7.20508L39.2549 7.65332C40.1596 7.20632 41.0755 6.77836 42.002 6.37012L41.7998 5.91309C42.7298 5.50326 43.6704 5.11316 44.6211 4.74316L44.8027 5.20801C45.7425 4.84226 46.6923 4.49641 47.6514 4.1709L47.4912 3.69727C48.453 3.37087 49.4243 3.06548 50.4043 2.78027L50.5439 3.25977C51.5119 2.97806 52.4887 2.71679 53.4736 2.47656L53.3555 1.99121L53.3545 1.99023C54.3411 1.74958 55.3363 1.53134 56.3389 1.33301L56.4355 1.82324C57.4244 1.62762 58.4214 1.45299 59.4248 1.2998L59.3486 0.804688C60.3509 0.651684 61.3602 0.521153 62.376 0.411133L62.4297 0.907227C63.4299 0.798886 64.4367 0.711924 65.4492 0.646484L65.417 0.147461C66.4282 0.0821073 67.4453 0.0385594 68.4678 0.0166016L68.4785 0.516602C68.9844 0.505738 69.4915 0.5 70 0.5H71.5V0H74.5V0.5H77.5V0H80.5V0.5H83.5V0H86.5V0.5H89.5V0H92.5V0.5H95.5V0H98.5V0.5H101.5V0H104.5V0.5H107.5V0H110.5V0.5H113.5V0H116.5V0.5H119.5V0H122.5V0.5H125.5V0H128.5V0.5H131.5V0H134.5V0.5H137.5V0H140.5V0.5H143.5V0H146.5V0.5H149.5V0H152.5V0.5H155.5V0H158.5V0.5H161.5V0H164.5V0.5H167.5V0H170.5V0.5H173.5V0H176.5V0.5H179.5V0H182.5V0.5H185.5V0H188.5V0.5H191.5V0H194.5V0.5H197.5V0H200.5V0.5H203.5V0H206.5V0.5H209.5V0H212.5V0.5H215.5V0H218.5V0.5H221.5V0H224.5V0.5H227.5V0H230.5V0.5H233.5V0H236.5V0.5H239.5V0H242.5V0.5H245.5V0H248.5V0.5H251.5V0H254.5V0.5H257.5V0H260.5Z" stroke="white" stroke-dasharray="3 3"/>
</svg>
