<svg width="52" height="30" viewBox="0 0 52 30" fill="none" xmlns="http://www.w3.org/2000/svg">
<path d="M51.2052 0L51.9978 1.13208C51.3637 3.67067 50.5358 6.70669 49.5141 10.2401C48.4924 13.7393 47.3827 17.2556 46.1848 20.789C45.0222 24.3225 43.842 27.3928 42.6442 30H27.9531C28.4816 27.5986 28.9924 25.0943 29.4856 22.4871C30.0141 19.8456 30.5073 17.2041 30.9653 14.5626C31.4233 11.9211 31.8285 9.36535 32.1808 6.89537C32.5683 4.39108 32.8854 2.09262 33.132 0H51.2052Z" fill="#6839CC"/>
<path d="M0.792683 30L0 28.8679C0.669377 26.3293 1.49729 23.3105 2.48374 19.8113C3.50542 16.2779 4.59756 12.7444 5.76016 9.21098C6.95799 5.64322 8.15583 2.5729 9.35366 0H24.0447C23.3753 3.19039 22.6883 6.56947 21.9837 10.1372C21.3144 13.705 20.6978 17.2041 20.1341 20.6346C19.6057 24.0652 19.1829 27.187 18.8659 30H0.792683Z" fill="#6839CC"/>
</svg>
