<svg width="195" height="53" viewBox="0 0 195 53" fill="none" xmlns="http://www.w3.org/2000/svg">
<path d="M74.184 25.1C75.64 25.1 76.7493 24.7707 77.512 24.112C78.3093 23.4187 78.708 22.3787 78.708 20.992C78.708 19.6747 78.292 18.6693 77.46 17.976C76.6627 17.248 75.484 16.884 73.924 16.884C73.3693 16.884 72.9013 16.9013 72.52 16.936C72.1733 16.936 71.8093 16.9707 71.428 17.04V25.1H74.184ZM71.48 41.792C71.0987 41.896 70.492 42 69.66 42.104C68.8627 42.208 68.0653 42.26 67.268 42.26C66.4707 42.26 65.76 42.1907 65.136 42.052C64.5467 41.948 64.044 41.74 63.628 41.428C63.212 41.116 62.9 40.6827 62.692 40.128C62.484 39.5733 62.38 38.8453 62.38 37.944V13.452C62.38 12.724 62.5707 12.1693 62.952 11.788C63.368 11.372 63.9227 11.0427 64.616 10.8C65.7947 10.384 67.1293 10.0893 68.62 9.916C70.1453 9.708 71.6707 9.604 73.196 9.604C77.98 9.604 81.6373 10.6267 84.168 12.672C86.6987 14.7173 87.964 17.4907 87.964 20.992C87.964 22.6907 87.6867 24.2333 87.132 25.62C86.612 26.972 85.8147 28.1507 84.74 29.156C83.7 30.1267 82.3653 30.8893 80.736 31.444C79.1413 31.964 77.2867 32.224 75.172 32.224H71.48V41.792ZM97.7286 11.424C98.318 11.0773 99.202 10.748 100.381 10.436C101.594 10.124 102.807 9.968 104.021 9.968C105.754 9.968 107.279 10.228 108.597 10.748C109.949 11.2333 110.815 12.0133 111.197 13.088C111.821 14.8907 112.497 16.988 113.225 19.38C113.953 21.772 114.681 24.2507 115.409 26.816C116.137 29.3467 116.847 31.86 117.541 34.356C118.234 36.8173 118.841 39.0013 119.361 40.908C118.945 41.3933 118.321 41.7747 117.489 42.052C116.657 42.364 115.669 42.52 114.525 42.52C113.693 42.52 112.982 42.4507 112.393 42.312C111.838 42.1733 111.37 41.9653 110.989 41.688C110.642 41.4107 110.347 41.0467 110.105 40.596C109.897 40.1453 109.706 39.6253 109.533 39.036L108.597 35.448H99.1846C98.9073 36.488 98.63 37.5627 98.3526 38.672C98.0753 39.7813 97.798 40.856 97.5206 41.896C97.0353 42.0693 96.5153 42.208 95.9606 42.312C95.4406 42.4507 94.7993 42.52 94.0366 42.52C92.2686 42.52 90.9513 42.2253 90.0846 41.636C89.2526 41.012 88.8366 40.1627 88.8366 39.088C88.8366 38.6027 88.906 38.1173 89.0446 37.632C89.1833 37.1467 89.3393 36.5747 89.5126 35.916C89.7553 34.98 90.0846 33.8187 90.5006 32.432C90.9513 31.0453 91.4366 29.5547 91.9566 27.96C92.4766 26.3307 93.0313 24.6667 93.6206 22.968C94.21 21.2693 94.7646 19.6747 95.2846 18.184C95.8046 16.6587 96.2726 15.3067 96.6886 14.128C97.1393 12.9493 97.486 12.048 97.7286 11.424ZM103.969 18.132C103.483 19.588 102.929 21.2173 102.305 23.02C101.715 24.788 101.178 26.5907 100.693 28.428H107.141C106.655 26.556 106.153 24.736 105.633 22.968C105.147 21.1653 104.697 19.5533 104.281 18.132H103.969Z" fill="#FF791F"/>
<path d="M120.338 17.768C120.095 17.3867 119.87 16.8667 119.662 16.208C119.454 15.5493 119.35 14.856 119.35 14.128C119.35 12.776 119.645 11.8053 120.234 11.216C120.858 10.6267 121.655 10.332 122.626 10.332H145.298C145.541 10.7133 145.766 11.2333 145.974 11.892C146.182 12.5507 146.286 13.244 146.286 13.972C146.286 15.324 145.974 16.2947 145.35 16.884C144.761 17.4733 143.981 17.768 143.01 17.768H137.238V41.792C136.857 41.896 136.25 42 135.418 42.104C134.621 42.208 133.823 42.26 133.026 42.26C132.229 42.26 131.518 42.1907 130.894 42.052C130.305 41.948 129.802 41.74 129.386 41.428C128.97 41.116 128.658 40.6827 128.45 40.128C128.242 39.5733 128.138 38.8453 128.138 37.944V17.768H120.338ZM159.789 41.792C159.407 41.896 158.801 42 157.969 42.104C157.171 42.208 156.374 42.26 155.577 42.26C154.779 42.26 154.069 42.1907 153.445 42.052C152.855 41.948 152.353 41.74 151.937 41.428C151.521 41.116 151.209 40.6827 151.001 40.128C150.793 39.5733 150.689 38.8453 150.689 37.944V10.488C151.07 10.4187 151.677 10.332 152.509 10.228C153.341 10.0893 154.138 10.02 154.901 10.02C155.698 10.02 156.391 10.0893 156.981 10.228C157.605 10.332 158.125 10.54 158.541 10.852C158.957 11.164 159.269 11.5973 159.477 12.152C159.685 12.7067 159.789 13.4347 159.789 14.336V41.792Z" fill="white"/>
<path d="M166.532 15.324C166.532 13.8333 166.966 12.6547 167.832 11.788C168.699 10.9213 169.878 10.488 171.368 10.488H188.528C188.771 10.8693 188.979 11.372 189.152 11.996C189.36 12.62 189.464 13.2787 189.464 13.972C189.464 15.2893 189.17 16.2253 188.58 16.78C188.026 17.3347 187.28 17.612 186.344 17.612H175.372V22.448H187.072C187.315 22.8293 187.523 23.332 187.696 23.956C187.904 24.5453 188.008 25.1867 188.008 25.88C188.008 27.1973 187.731 28.1333 187.176 28.688C186.622 29.2427 185.876 29.52 184.94 29.52H175.372V34.98H188.736C188.979 35.3613 189.187 35.864 189.36 36.488C189.568 37.112 189.672 37.7707 189.672 38.464C189.672 39.7813 189.378 40.7347 188.788 41.324C188.234 41.8787 187.488 42.156 186.552 42.156H171.368C169.878 42.156 168.699 41.7227 167.832 40.856C166.966 39.9893 166.532 38.8107 166.532 37.32V15.324Z" fill="#67B900"/>
<path d="M24.7014 2.65283C25.3031 2.06007 25.4364 1.36977 25.101 0.582125C24.9358 0.178359 24.6331 -0.0153105 24.1928 0.000943924C24.0581 0.112304 23.9248 0.23352 23.7932 0.364247C23.6144 0.881621 23.5662 1.41456 23.6479 1.96271C23.7636 2.5911 24.1148 2.82108 24.7015 2.65301L24.7014 2.65283Z" fill="#D40166"/>
<path d="M26.299 3.38007C27.3021 2.96022 27.6775 2.22151 27.4252 1.16411C27.2503 0.937409 27.0203 0.840575 26.7349 0.87343C25.8845 1.31472 25.5333 2.01712 25.6814 2.98045C25.7637 3.30623 25.9696 3.43938 26.299 3.38007Z" fill="#D40166"/>
<path d="M22.0071 3.1618C22.4357 3.536 22.8111 3.49951 23.1333 3.05286C23.1836 2.6612 23.1594 2.27369 23.0607 1.89033C22.8172 1.27837 22.3692 0.939275 21.7166 0.873047C21.6 0.952763 21.4911 1.0496 21.3896 1.16372C21.184 1.95258 21.3897 2.61866 22.0072 3.1618H22.0071Z" fill="#D40166"/>
<path d="M20.8461 4.9768C21.1299 5.08107 21.4205 5.10511 21.718 5.04943C21.9983 4.93651 22.1435 4.73074 22.1539 4.43176C21.9701 3.47362 21.3889 3.03769 20.4102 3.12397C20.1805 3.24329 20.0593 3.43696 20.0469 3.70516C20.119 4.24864 20.3855 4.67247 20.8461 4.97663V4.9768Z" fill="#D40166"/>
<path d="M26.7022 4.14268C26.5623 4.5736 26.6954 4.87638 27.1018 5.05086C27.6882 5.11501 28.1604 4.90923 28.5187 4.43319C29.0267 3.4396 28.724 3.00366 27.6105 3.1254C27.1469 3.31094 26.8443 3.65004 26.7024 4.14268H26.7022Z" fill="#D40166"/>
<path d="M23.9722 3.7788C23.5713 3.99703 23.2201 4.2877 22.9186 4.65066C22.5539 5.08918 22.2632 5.5737 22.0467 6.10387C21.8904 6.90708 22.2051 7.39143 22.9912 7.55709C23.484 7.46786 23.9442 7.29823 24.3716 7.04853C24.7135 7.17165 25.0403 7.32901 25.3524 7.52078C25.7716 7.60983 26.1589 7.5372 26.5149 7.30272C26.8601 6.8099 26.8964 6.28924 26.6239 5.74057C26.2383 5.05408 25.7418 4.4608 25.1344 3.96054C24.7626 3.80941 24.3751 3.74889 23.9718 3.77898L23.9722 3.7788Z" fill="#D40166"/>
<path d="M13.148 6.35828C14.7703 5.4745 16.4898 4.85683 18.3067 4.50546C17.503 3.65625 16.5099 3.26874 15.3278 3.34292C13.7697 3.80669 12.2924 4.47278 10.8957 5.341C5.81295 8.64099 2.65234 13.2548 1.41406 19.1821C3.83147 13.5434 7.74273 9.26886 13.1482 6.35811L13.148 6.35828Z" fill="#D40166"/>
<path d="M47.4108 19.2559C47.0689 17.3585 46.4635 15.5421 45.5942 13.8066C43.0919 9.0032 39.3257 5.6005 34.296 3.59827C33.7036 3.42431 33.0981 3.33958 32.4797 3.34391C32.0754 3.43625 31.6879 3.59378 31.3172 3.81615C31.0265 4.05824 30.736 4.3005 30.4453 4.54276C31.3971 4.66622 32.3173 4.90848 33.2063 5.26936C39.8412 8.00494 44.5759 12.6672 47.4108 19.2559Z" fill="#D40166"/>
<path d="M42.534 23.7592C42.936 22.7807 43.1783 21.7636 43.2606 20.7075C43.4634 19.2682 43.2212 17.912 42.534 16.6388C41.1596 14.492 39.3796 12.7604 37.1937 11.4437C35.5785 10.4163 33.8104 9.94402 31.8898 10.0268C31.5811 10.0981 31.2663 10.183 30.9453 10.2812C33.6875 12.0988 35.6613 14.5328 36.8669 17.5832C37.3298 19.0664 37.8142 20.5438 38.3201 22.0153C38.6636 22.9638 39.2086 23.7753 39.9549 24.4493C41.0635 25.132 41.9233 24.9019 42.5342 23.759L42.534 23.7592Z" fill="#D40166"/>
<path d="M12.0219 17.3666C13.2046 14.3678 15.1543 12.0064 17.8707 10.2824C16.9883 10.0618 16.0922 9.97704 15.1823 10.028C14.5603 10.2081 13.9307 10.3896 13.2932 10.5729C11.0926 11.6075 9.16716 13.0244 7.51699 14.8234C6.72571 15.7276 6.12015 16.7449 5.70047 17.8751C5.27907 19.9764 5.49712 22.0108 6.35446 23.9783C6.80681 24.8156 7.47272 25.0456 8.35253 24.6686C9.32434 24.0713 10.0146 23.2358 10.4232 22.162C10.9558 20.5644 11.4888 18.9659 12.0217 17.3666H12.0219Z" fill="#67B10D"/>
<path d="M36.2151 21.2894C35.5423 17.7994 33.8833 14.881 31.2382 12.5342C28.9809 10.5461 26.3409 9.63797 23.3185 9.8095C21.2912 10.1348 19.4746 10.9459 17.8691 12.2435C14.8646 14.825 13.0846 18.0825 12.5288 22.0159C12.2587 25.8211 13.4818 29.0423 16.198 31.6793C16.2395 31.0773 16.3728 30.496 16.5976 29.9356C17.2355 28.5028 18.1923 27.3281 19.4676 26.4116C20.4726 25.8244 21.4656 25.2188 22.4464 24.5951C23.4625 23.7378 24.1163 22.66 24.4082 21.3619C24.8645 23.1139 25.8816 24.4338 27.4599 25.3217C28.1133 25.6484 28.7429 26.0117 29.349 26.4116C31.1991 27.7267 32.2769 29.5069 32.5823 31.7519C35.5191 28.878 36.7301 25.3904 36.2151 21.2893V21.2894ZM18.7048 20.7081C18.8547 20.5457 19.0121 20.4005 19.1771 20.2721C20.2281 20.3278 20.5187 20.8243 20.0489 21.7617C19.0493 22.1155 18.6012 21.7643 18.7048 20.7081ZM19.9037 23.3601C18.5051 23.8381 17.7541 23.3415 17.6512 21.8706C17.9543 23.13 18.7294 23.5778 19.9763 23.2147C20.1793 23.0845 20.361 22.927 20.5212 22.7425C20.4229 23.0345 20.217 23.2405 19.9035 23.3601H19.9037ZM28.7313 20.7807C28.8579 20.5448 29.0395 20.3754 29.2762 20.2721C30.0526 20.2853 30.4037 20.6726 30.3298 21.4347C30.0156 21.9026 29.5918 22.0359 29.0583 21.8343C28.7203 21.559 28.6113 21.2078 28.7313 20.7807ZM30.2209 23.5054C29.3577 23.6985 28.7039 23.42 28.2591 22.6698C29.1 23.6311 29.984 23.6311 30.9112 22.6698C30.9937 22.507 31.0543 22.3373 31.0927 22.1613C31.1667 22.821 30.8761 23.269 30.2209 23.5054Z" fill="#67B10D"/>
<path d="M43.8476 27.5387C43.6294 26.9464 43.2055 26.7041 42.5761 26.812C42.3045 27.0391 42.1229 27.3298 42.0312 27.6839C42.0771 28.8691 42.1134 30.0558 42.1402 31.2441C42.1366 32.1686 42.1001 33.089 42.0312 34.0051C43.3159 32.0404 43.9214 29.8848 43.8478 27.5387H43.8476Z" fill="#67B10D"/>
<path d="M5.44378 26.8113C5.19304 27.0265 5.01148 27.293 4.89891 27.6105C4.87833 30.0001 5.53231 32.1797 6.86067 34.1496C6.69035 33.2691 6.60562 32.373 6.60631 31.4612C6.6824 30.2498 6.74292 29.0388 6.78788 27.8284C6.6843 27.0345 6.23626 26.6956 5.44378 26.8111V26.8113Z" fill="#67B10D"/>
<path d="M22.1569 30.9167C21.3124 30.6229 20.8157 30.0296 20.6674 29.1367C20.3767 28.846 20.0862 28.846 19.7955 29.1367C19.7284 29.8072 19.8979 30.4128 20.3041 30.9532C21.6311 32.4496 22.9994 32.498 24.4092 31.0984C24.6381 31.2909 24.8562 31.4968 25.0632 31.7161C25.3025 31.893 25.5689 32.014 25.8624 32.0794C27.7052 32.15 28.7951 31.2781 29.1319 29.4638C29.0759 28.9869 28.8094 28.8173 28.3327 28.9553C28.1136 29.3935 27.9077 29.8415 27.715 30.2994C27.124 30.9815 26.4339 31.1147 25.6443 30.699C25.0109 30.0895 24.7929 29.3507 24.9904 28.483C25.2442 28.3684 25.4865 28.2351 25.717 28.0834C26.6627 27.2937 26.5899 26.6399 25.4989 26.1217C24.9221 26.0257 24.3409 25.9894 23.7552 26.0127C23.4337 26.1085 23.1189 26.2417 22.8107 26.4123C22.6981 26.5005 22.6134 26.6095 22.5564 26.7393C22.5468 27.6634 22.9949 28.2446 23.9005 28.483C23.9126 28.8712 23.9004 29.2587 23.8641 29.6456C23.6627 30.5745 23.0936 30.9983 22.1567 30.917L22.1569 30.9167ZM23.1014 26.8842C23.0144 26.8591 23.0144 26.8228 23.1014 26.7753C23.3054 26.6959 23.4993 26.611 23.6826 26.5209C24.1434 26.5088 24.6035 26.5209 25.063 26.5572C25.247 26.6022 25.4164 26.6748 25.5715 26.7753C24.7405 26.5083 23.9171 26.5446 23.1012 26.8842H23.1014Z" fill="#67B10D"/>
<path d="M9.76745 31.1707C9.81587 30.9042 9.81587 30.6379 9.76745 30.3715C9.60595 29.8112 9.23054 29.5447 8.64123 29.5722C8.47627 29.7005 8.31891 29.8458 8.16899 30.0082C7.58815 32.4813 7.99987 34.7821 9.40415 36.9106C9.35885 36.6751 9.31043 36.433 9.2589 36.184C9.21048 35.4089 9.21048 34.6339 9.2589 33.8589C9.3981 32.957 9.56756 32.0609 9.76745 31.1705V31.1707Z" fill="white"/>
<path d="M40.7974 30.3717C40.6295 29.8096 40.2541 29.5433 39.6712 29.5725C39.2128 29.8154 38.9947 30.2029 39.0172 30.735C39.1484 31.7144 39.33 32.6831 39.5621 33.6413C39.6411 34.7452 39.5925 35.8351 39.4168 36.9108C40.7049 34.907 41.165 32.7274 40.7972 30.3717H40.7974Z" fill="white"/>
<path d="M25.8611 36.8023C28.1931 36.3719 29.9489 35.1489 31.1288 33.1332C30.7722 33.4145 30.3968 33.6687 30.0025 33.8961C25.6832 36.1001 21.5418 35.8217 17.5781 33.0605C19.506 36.0944 22.267 37.3417 25.8611 36.8023Z" fill="white"/>
<path d="M23.8296 38.291C23.6088 38.4331 23.403 38.6028 23.2119 38.7996C22.6349 39.8001 22.8167 40.6356 23.7568 41.3062C24.666 41.5597 25.3561 41.2813 25.8275 40.4706C26.118 38.8836 25.4519 38.1572 23.8294 38.291H23.8296Z" fill="white"/>
<path d="M47.1474 24.7035C46.535 24.9537 46.1596 25.4138 46.0211 26.0839C45.935 27.4031 45.7654 28.7109 45.5126 30.0074C44.5039 34.291 42.0941 37.5242 38.2832 39.7071C37.236 40.2702 36.1218 40.4882 34.941 40.3611C34.7772 40.261 34.6199 40.1521 34.4687 40.0341C34.2121 39.5135 34.2363 39.0049 34.5414 38.5083C35.4758 37.5802 36.3961 36.6356 37.3024 35.6747C38.0506 34.7106 38.0988 33.7176 37.4476 32.6958C36.7298 32.0997 35.9669 32.0392 35.1589 32.5142C32.637 34.2368 30.4693 36.3318 28.6561 38.7991C25.7982 43.081 25.6165 47.489 28.1112 52.0228C30.5312 50.5703 32.9773 49.1535 35.4495 47.7723C37.4386 46.6571 39.3278 45.3977 41.1168 43.9942C46.4735 39.1272 49.0285 33.0603 48.7821 25.7936C48.5387 24.9814 47.9938 24.6181 47.1474 24.7036V24.7035Z" fill="#FF791F"/>
<path d="M14.0927 32.8049C13.7941 32.5586 13.4551 32.3892 13.0754 32.2963C12.3367 32.0662 11.7192 32.2479 11.2226 32.8412C10.7908 33.6371 10.7908 34.4364 11.2226 35.2389C11.9922 36.251 12.8641 37.1712 13.8382 37.9999C14.1127 38.2746 14.3308 38.5895 14.4921 38.9444C14.6623 39.9616 14.2264 40.4702 13.1843 40.4702C12.4629 40.4074 11.7726 40.2257 11.1136 39.9253C8.02167 38.4076 5.73291 36.0947 4.24754 32.9866C3.34231 30.7783 2.83375 28.4774 2.7217 26.0842C2.66429 25.6664 2.48255 25.3152 2.17683 25.0306C1.28561 24.4532 0.595487 24.6348 0.106126 25.5755C-0.022007 26.9522 -0.034113 28.3327 0.0698114 29.7169C0.176848 30.038 0.225095 30.3771 0.215066 30.7342C1.63473 37.8306 5.46126 43.1951 11.6948 46.8277C14.6832 48.545 17.6621 50.2766 20.6316 52.0228C20.7819 51.8443 20.915 51.6506 21.0312 51.4416C23.0037 47.6801 23.0037 43.9262 21.0312 40.1797C19.218 37.2523 16.905 34.7941 14.0925 32.805L14.0927 32.8049Z" fill="#FF791F"/>
</svg>
