<svg width="128" height="33" viewBox="0 0 128 33" fill="none" xmlns="http://www.w3.org/2000/svg">
<path d="M11.8012 15.496C13.2572 15.496 14.3665 15.1667 15.1292 14.508C15.9265 13.8147 16.3252 12.7747 16.3252 11.388C16.3252 10.0707 15.9092 9.06533 15.0772 8.372C14.2799 7.644 13.1012 7.28 11.5412 7.28C10.9865 7.28 10.5185 7.29733 10.1372 7.33199C9.79052 7.33199 9.42652 7.36666 9.04519 7.436V15.496H11.8012ZM9.09719 32.188C8.71585 32.292 8.10919 32.396 7.27719 32.5C6.47985 32.604 5.68252 32.656 4.88519 32.656C4.08785 32.656 3.37719 32.5867 2.75319 32.448C2.16385 32.344 1.66119 32.136 1.24519 31.824C0.829188 31.512 0.517188 31.0787 0.309188 30.524C0.101188 29.9693 -0.00281224 29.2413 -0.00281224 28.34V3.84799C-0.00281224 3.11999 0.187854 2.56533 0.569188 2.18399C0.985188 1.76799 1.53985 1.43866 2.23319 1.19599C3.41185 0.779994 4.74652 0.485327 6.23719 0.311994C7.76252 0.103994 9.28785 -5.24521e-06 10.8132 -5.24521e-06C15.5972 -5.24521e-06 19.2545 1.02266 21.7852 3.068C24.3159 5.11333 25.5812 7.88666 25.5812 11.388C25.5812 13.0867 25.3039 14.6293 24.7492 16.016C24.2292 17.368 23.4319 18.5467 22.3572 19.552C21.3172 20.5227 19.9825 21.2853 18.3532 21.84C16.7585 22.36 14.9039 22.62 12.7892 22.62H9.09719V32.188ZM35.3458 1.82C35.9351 1.47333 36.8191 1.14399 37.9978 0.831993C39.2111 0.519993 40.4245 0.363993 41.6378 0.363993C43.3711 0.363993 44.8965 0.623994 46.2138 1.144C47.5658 1.62933 48.4325 2.40933 48.8138 3.48399C49.4378 5.28666 50.1138 7.384 50.8418 9.77599C51.5698 12.168 52.2978 14.6467 53.0258 17.212C53.7538 19.7427 54.4645 22.256 55.1578 24.752C55.8511 27.2133 56.4578 29.3973 56.9778 31.304C56.5618 31.7893 55.9378 32.1707 55.1058 32.448C54.2738 32.76 53.2858 32.916 52.1418 32.916C51.3098 32.916 50.5991 32.8467 50.0098 32.708C49.4551 32.5693 48.9871 32.3613 48.6058 32.084C48.2591 31.8067 47.9645 31.4427 47.7218 30.992C47.5138 30.5413 47.3231 30.0213 47.1498 29.432L46.2138 25.844H36.8018C36.5245 26.884 36.2471 27.9587 35.9698 29.068C35.6925 30.1773 35.4151 31.252 35.1378 32.292C34.6525 32.4653 34.1325 32.604 33.5778 32.708C33.0578 32.8467 32.4165 32.916 31.6538 32.916C29.8858 32.916 28.5685 32.6213 27.7018 32.032C26.8698 31.408 26.4538 30.5587 26.4538 29.484C26.4538 28.9987 26.5231 28.5133 26.6618 28.028C26.8005 27.5427 26.9565 26.9707 27.1298 26.312C27.3725 25.376 27.7018 24.2147 28.1178 22.828C28.5685 21.4413 29.0538 19.9507 29.5738 18.356C30.0938 16.7267 30.6485 15.0627 31.2378 13.364C31.8271 11.6653 32.3818 10.0707 32.9018 8.57999C33.4218 7.05466 33.8898 5.70266 34.3058 4.524C34.7565 3.34533 35.1031 2.44399 35.3458 1.82ZM41.5858 8.52799C41.1005 9.98399 40.5458 11.6133 39.9218 13.416C39.3325 15.184 38.7951 16.9867 38.3098 18.824H44.7578C44.2725 16.952 43.7698 15.132 43.2498 13.364C42.7645 11.5613 42.3138 9.94933 41.8978 8.52799H41.5858Z" fill="#FF791F"/>
<path d="M57.9553 8.164C57.7126 7.78266 57.4873 7.26266 57.2793 6.60399C57.0713 5.94533 56.9673 5.25199 56.9673 4.524C56.9673 3.17199 57.2619 2.20133 57.8513 1.612C58.4753 1.02266 59.2726 0.727995 60.2433 0.727995H82.9153C83.1579 1.10933 83.3833 1.62933 83.5913 2.28799C83.7993 2.94666 83.9033 3.64 83.9033 4.36799C83.9033 5.72 83.5913 6.69066 82.9673 7.28C82.3779 7.86933 81.5979 8.164 80.6273 8.164H74.8553V32.188C74.4739 32.292 73.8673 32.396 73.0353 32.5C72.2379 32.604 71.4406 32.656 70.6433 32.656C69.8459 32.656 69.1353 32.5867 68.5113 32.448C67.9219 32.344 67.4193 32.136 67.0033 31.824C66.5873 31.512 66.2753 31.0787 66.0673 30.524C65.8593 29.9693 65.7553 29.2413 65.7553 28.34V8.164H57.9553ZM97.4058 32.188C97.0244 32.292 96.4178 32.396 95.5858 32.5C94.7884 32.604 93.9911 32.656 93.1938 32.656C92.3964 32.656 91.6858 32.5867 91.0618 32.448C90.4724 32.344 89.9698 32.136 89.5538 31.824C89.1378 31.512 88.8258 31.0787 88.6178 30.524C88.4098 29.9693 88.3058 29.2413 88.3058 28.34V0.883996C88.6871 0.814661 89.2938 0.727995 90.1258 0.623996C90.9578 0.485329 91.7551 0.415996 92.5178 0.415996C93.3151 0.415996 94.0084 0.485329 94.5978 0.623996C95.2218 0.727995 95.7418 0.935994 96.1578 1.24799C96.5738 1.55999 96.8858 1.99333 97.0938 2.548C97.3018 3.10266 97.4058 3.83066 97.4058 4.732V32.188Z" fill="white"/>
<path d="M104.15 5.72C104.15 4.22933 104.583 3.05066 105.45 2.18399C106.316 1.31733 107.495 0.883996 108.986 0.883996H126.146C126.388 1.26533 126.596 1.76799 126.77 2.39199C126.978 3.016 127.082 3.67466 127.082 4.36799C127.082 5.68533 126.787 6.62133 126.198 7.176C125.643 7.73066 124.898 8.008 123.962 8.008H112.99V12.844H124.69C124.932 13.2253 125.14 13.728 125.314 14.352C125.522 14.9413 125.626 15.5827 125.626 16.276C125.626 17.5933 125.348 18.5293 124.794 19.084C124.239 19.6387 123.494 19.916 122.558 19.916H112.99V25.376H126.354C126.596 25.7573 126.804 26.26 126.978 26.884C127.186 27.508 127.29 28.1667 127.29 28.86C127.29 30.1773 126.995 31.1307 126.406 31.72C125.851 32.2747 125.106 32.552 124.17 32.552H108.986C107.495 32.552 106.316 32.1187 105.45 31.252C104.583 30.3853 104.15 29.2067 104.15 27.716V5.72Z" fill="#67B900"/>
</svg>
