<svg width="40" height="40" viewBox="0 0 40 40" fill="none" xmlns="http://www.w3.org/2000/svg">
<path d="M33.2977 20.3537H32.6612C33.7265 19.5777 34.288 18.0973 34.288 16.678C34.288 14.8387 32.7916 13.3423 30.9523 13.3423C29.113 13.3423 27.6144 14.8387 27.6144 16.678C27.6144 18.0973 28.1763 19.5777 29.2423 20.3537H28.6048C28.3335 20.3537 28.0656 20.3802 27.8041 20.4328C26.8356 19.1409 25.2343 18.2941 23.4248 18.2941H22.1497C22.6755 17.9519 23.1397 17.4773 23.5197 16.8799C24.1958 15.8173 24.5835 14.4206 24.5835 13.048C24.5835 10.5224 22.5287 8.46773 20.0032 8.46773C17.4777 8.46773 15.4229 10.5225 15.4229 13.048C15.4229 14.3673 15.8073 15.7787 16.4512 16.8234C16.8387 17.4519 17.3059 17.9435 17.8388 18.2941H16.5795C14.7705 18.2941 13.1698 19.1409 12.2018 20.433C11.9376 20.3801 11.6688 20.3535 11.3994 20.3537H10.763C11.8282 19.5777 12.3898 18.0972 12.3898 16.6779C12.3898 14.8386 10.8934 13.3422 9.05406 13.3422C7.21477 13.3422 5.71836 14.8386 5.71836 16.6779C5.71836 18.0972 6.27992 19.5777 7.34516 20.3537H6.70656C4.57656 20.3537 2.84375 21.9822 2.84375 23.984V28.0899C2.84375 28.2557 2.9096 28.4147 3.02681 28.5319C3.14402 28.6491 3.30299 28.7149 3.46875 28.7149C3.63451 28.7149 3.79348 28.6491 3.91069 28.5319C4.0279 28.4147 4.09375 28.2557 4.09375 28.0899V23.984C4.09375 22.6715 5.26586 21.6037 6.70656 21.6037H11.3994C11.4493 21.6037 11.4987 21.607 11.5483 21.6095C11.3397 22.1501 11.2327 22.7245 11.2328 23.304V28.0898C11.2328 28.2556 11.2987 28.4146 11.4159 28.5318C11.5331 28.649 11.6921 28.7148 11.8578 28.7148C12.0236 28.7148 12.1825 28.649 12.2998 28.5318C12.417 28.4146 12.4828 28.2556 12.4828 28.0898V23.304C12.4828 22.6586 12.661 22.0508 12.9745 21.5195C12.9926 21.4949 13.0087 21.4686 13.0233 21.441C13.7301 20.309 15.0588 19.5441 16.5795 19.5441H23.4249C24.9476 19.5441 26.278 20.3102 26.9847 21.4437C26.9987 21.4699 27.0141 21.4951 27.0313 21.5186C27.3452 22.0501 27.5238 22.6582 27.5238 23.304V28.0898C27.5238 28.2556 27.5896 28.4146 27.7068 28.5318C27.824 28.649 27.983 28.7148 28.1487 28.7148C28.3145 28.7148 28.4735 28.649 28.5907 28.5318C28.7079 28.4146 28.7737 28.2556 28.7737 28.0898V23.304C28.7737 22.7094 28.662 22.1389 28.4581 21.6094C28.507 21.6069 28.5557 21.6037 28.6049 21.6037H33.2977C34.7384 21.6037 35.9105 22.6715 35.9105 23.984V28.0899C35.9105 28.2557 35.9764 28.4147 36.0936 28.5319C36.2108 28.6491 36.3698 28.7149 36.5355 28.7149C36.7013 28.7149 36.8603 28.6491 36.9775 28.5319C37.0947 28.4147 37.1605 28.2557 37.1605 28.0899V23.984C37.1605 21.9822 35.4277 20.3537 33.2977 20.3537L33.2977 20.3537ZM30.9523 14.5922C32.1024 14.5922 33.038 15.5279 33.038 16.6779C33.038 17.9136 32.3909 19.6539 30.9523 19.6539C29.5137 19.6539 28.8644 17.9137 28.8644 16.6779C28.8644 15.5278 29.801 14.5922 30.9523 14.5922ZM16.6728 13.048C16.6728 11.2117 18.1668 9.71773 20.0031 9.71773C21.8395 9.71773 23.3334 11.2117 23.3334 13.048C23.3334 14.8383 22.4293 17.6784 20.0031 17.6784C18.9702 17.6784 18.1332 17.1701 17.5152 16.1675C16.9877 15.3116 16.6727 14.1455 16.6727 13.048H16.6728ZM9.05398 14.5922C10.2041 14.5922 11.1397 15.5279 11.1397 16.6779C11.1397 17.9136 10.4926 19.6539 9.05398 19.6539C7.61539 19.6539 6.96828 17.9137 6.96828 16.6779C6.96828 15.5278 7.90398 14.5922 9.05398 14.5922ZM6.88758 8.55031L6.64602 10.2168C6.6297 10.3294 6.64445 10.4443 6.68865 10.5492C6.73285 10.654 6.80485 10.7448 6.89686 10.8118C6.98887 10.8787 7.09741 10.9193 7.21077 10.9291C7.32414 10.9389 7.43803 10.9175 7.54016 10.8673L9.05383 10.1236L10.5653 10.8672C10.6674 10.9174 10.7812 10.9388 10.8946 10.9291C11.0079 10.9194 11.1164 10.8789 11.2085 10.8121C11.3005 10.7452 11.3726 10.6545 11.4169 10.5497C11.4612 10.445 11.476 10.3301 11.4598 10.2175L11.2201 8.55039L12.3948 7.34008C12.474 7.25846 12.5294 7.15677 12.5551 7.04597C12.5808 6.93517 12.5758 6.81946 12.5405 6.71131C12.5053 6.60315 12.4413 6.50666 12.3553 6.43223C12.2693 6.3578 12.1646 6.30824 12.0525 6.28891L10.3916 6.00242L9.60703 4.51203C9.55403 4.41133 9.47454 4.32702 9.37713 4.26818C9.27972 4.20935 9.16809 4.17824 9.0543 4.1782H9.05398C8.94023 4.17822 8.82863 4.20926 8.73122 4.26801C8.63381 4.32675 8.55427 4.41096 8.50117 4.51156L7.71453 6.00242L6.05312 6.28891C5.941 6.30825 5.83628 6.35784 5.75026 6.43232C5.66424 6.50681 5.60019 6.60336 5.56501 6.71157C5.52983 6.81978 5.52485 6.93554 5.55063 7.04637C5.5764 7.15719 5.63194 7.25888 5.71125 7.34047L6.8875 8.55047L6.88758 8.55031ZM8.23016 7.1818C8.32444 7.16552 8.41372 7.12783 8.49114 7.07162C8.56856 7.01541 8.63205 6.94218 8.67672 6.85758L9.05344 6.14359L9.42898 6.85695C9.4736 6.94171 9.53709 7.01508 9.61456 7.0714C9.69202 7.12773 9.7814 7.1655 9.87578 7.1818L10.673 7.3193L10.1094 7.90008C10.0428 7.96864 9.99289 8.05154 9.96339 8.14242C9.93389 8.2333 9.92562 8.32972 9.93922 8.4243L10.054 9.22258L9.32992 8.86641C9.24414 8.82419 9.14981 8.80222 9.0542 8.80219C8.95859 8.80217 8.86425 8.82408 8.77844 8.86625L8.0532 9.22258L8.16883 8.425C8.18255 8.33024 8.17432 8.23359 8.14477 8.14251C8.11523 8.05143 8.06517 7.96836 7.99844 7.89969L7.43398 7.31906L8.23016 7.1818ZM17.8368 5.38594L17.5953 7.05211C17.579 7.16473 17.5937 7.27967 17.6379 7.38453C17.6821 7.4894 17.7541 7.5802 17.8462 7.64715C17.9382 7.71409 18.0467 7.75465 18.1601 7.76443C18.2735 7.77421 18.3874 7.75285 18.4895 7.70266L20.0032 6.95891L21.5147 7.7025C21.6168 7.75266 21.7306 7.77402 21.8439 7.76428C21.9572 7.75454 22.0658 7.71407 22.1578 7.64722C22.2498 7.58038 22.3219 7.48969 22.3662 7.38494C22.4105 7.28018 22.4254 7.16532 22.4092 7.05273L22.1695 5.38594L23.3439 4.17789C23.4232 4.09631 23.4788 3.99462 23.5045 3.88379C23.5303 3.77296 23.5253 3.6572 23.4901 3.54899C23.455 3.44078 23.3909 3.34423 23.3049 3.26974C23.2189 3.19526 23.1142 3.14567 23.002 3.12633L21.341 2.83984L20.5565 1.34945C20.5035 1.24875 20.424 1.16444 20.3266 1.10561C20.2292 1.04677 20.1175 1.01566 20.0037 1.01562H20.0034C19.8897 1.01564 19.7781 1.04669 19.6807 1.10543C19.5833 1.16417 19.5037 1.24838 19.4506 1.34898L18.664 2.83984L17.0027 3.12633C16.8905 3.14571 16.7858 3.19533 16.6998 3.26986C16.6137 3.34439 16.5497 3.44098 16.5146 3.54923C16.4794 3.65747 16.4745 3.77326 16.5003 3.88411C16.5261 3.99495 16.5817 4.09664 16.6611 4.1782L17.837 5.38594H17.8368ZM19.1794 4.0193C19.2737 4.00302 19.3629 3.96533 19.4404 3.90912C19.5178 3.85291 19.5813 3.77968 19.6259 3.69508L20.0027 2.98109L20.3782 3.69453C20.4228 3.77929 20.4863 3.85265 20.5638 3.90897C20.6412 3.96528 20.7306 4.00303 20.825 4.0193L21.6211 4.15656L21.0588 4.735C20.9922 4.80357 20.9421 4.88653 20.9126 4.97748C20.883 5.06843 20.8747 5.16495 20.8884 5.25961L21.0031 6.05781L20.2791 5.70164C20.1933 5.65938 20.099 5.63738 20.0033 5.63736C19.9077 5.63733 19.8134 5.65927 19.7276 5.70148L19.0024 6.05781L19.118 5.26031C19.1318 5.16546 19.1235 5.06872 19.0939 4.97756C19.0643 4.88641 19.0141 4.80328 18.9473 4.73461L18.3842 4.15641L19.1792 4.0193H19.1794ZM28.786 8.31812L28.5445 9.98648C28.5282 10.0991 28.543 10.214 28.5872 10.3188C28.6314 10.4237 28.7034 10.5144 28.7954 10.5814C28.8874 10.6483 28.9959 10.6889 29.1093 10.6987C29.2227 10.7085 29.3365 10.6872 29.4387 10.637L30.9523 9.89328L32.4638 10.6369C32.5659 10.6871 32.6797 10.7086 32.7931 10.6989C32.9064 10.6892 33.015 10.6487 33.107 10.5818C33.1991 10.515 33.2711 10.4243 33.3154 10.3195C33.3597 10.2147 33.3745 10.0998 33.3583 9.98719L33.1185 8.31812L34.2929 7.11008C34.3722 7.02849 34.4277 6.9268 34.4535 6.81598C34.4793 6.70515 34.4743 6.58939 34.4391 6.48118C34.404 6.37297 34.3399 6.27642 34.2539 6.20193C34.1679 6.12745 34.0631 6.07786 33.951 6.05852L32.2901 5.77203L31.5055 4.28164C31.4525 4.18094 31.3731 4.09662 31.2756 4.03779C31.1782 3.97896 31.0666 3.94785 30.9528 3.94781H30.9525C30.8387 3.94782 30.7271 3.97887 30.6297 4.03762C30.5323 4.09636 30.4528 4.18057 30.3997 4.28117L29.613 5.77203L27.9516 6.05859C27.8395 6.07796 27.7347 6.12759 27.6487 6.20212C27.5627 6.27665 27.4986 6.37326 27.4635 6.48152C27.4283 6.58978 27.4234 6.70558 27.4492 6.81643C27.4751 6.92729 27.5307 7.02898 27.6101 7.11055L28.786 8.31812ZM30.1286 6.95148C30.2229 6.93521 30.3122 6.89752 30.3896 6.84131C30.467 6.7851 30.5305 6.71187 30.5752 6.62727L30.9519 5.91328L31.3274 6.62664C31.372 6.7114 31.4355 6.78477 31.513 6.84109C31.5905 6.89741 31.6798 6.93518 31.7742 6.95148L32.5703 7.08883L32.008 7.66719C31.9414 7.73575 31.8914 7.81869 31.8618 7.90963C31.8322 8.00057 31.824 8.09707 31.8376 8.19172L31.9526 8.99234L31.2284 8.63609C31.1426 8.5939 31.0482 8.57195 30.9526 8.57192C30.857 8.57189 30.7627 8.59379 30.6769 8.63594L29.9515 8.99234L30.0673 8.19242C30.081 8.09758 30.0727 8.00086 30.0431 7.90972C30.0135 7.81858 29.9633 7.73547 29.8965 7.6668L29.3334 7.08859L30.1285 6.95148H30.1286ZM20.0033 27.7839C17.9198 27.7839 16.2246 29.479 16.2246 31.5626C16.2246 33.6462 17.9197 35.3412 20.0033 35.3412C22.0869 35.3412 23.782 33.6462 23.782 31.5626C23.782 29.479 22.0869 27.7839 20.0033 27.7839ZM20.0033 34.0912C18.609 34.0912 17.4746 32.9569 17.4746 31.5626C17.4746 30.1683 18.609 29.0339 20.0033 29.0339C21.3976 29.0339 22.532 30.1683 22.532 31.5626C22.532 32.9569 21.3976 34.0912 20.0033 34.0912ZM27.0617 30.1202L25.9199 29.5938L25.5796 28.77L26.0136 27.5905C26.0548 27.4785 26.0631 27.357 26.0374 27.2405C26.0118 27.1239 25.9534 27.0171 25.869 26.9327L25.0289 26.0927V24.1059C25.0289 23.9401 24.9631 23.7811 24.8458 23.6639C24.7286 23.5467 24.5697 23.4809 24.4039 23.4809C24.2381 23.4809 24.0792 23.5467 23.962 23.6639C23.8448 23.7811 23.7789 23.9401 23.7789 24.1059V25.6246L22.7962 25.9862L21.9699 25.6439L21.4434 24.5037C21.3934 24.3954 21.3134 24.3036 21.2128 24.2393C21.1123 24.175 20.9954 24.1408 20.876 24.1408H19.1287C19.0093 24.1408 18.8924 24.1749 18.7919 24.2393C18.6913 24.3036 18.6113 24.3954 18.5612 24.5037L18.0347 25.6441L17.2104 25.986L16.2257 25.6237V24.1058C16.2257 23.94 16.1599 23.781 16.0426 23.6638C15.9254 23.5466 15.7665 23.4808 15.6007 23.4808C15.4349 23.4808 15.276 23.5466 15.1588 23.6638C15.0415 23.781 14.9757 23.94 14.9757 24.1058V26.0948L14.1378 26.9327C14.0534 27.017 13.995 27.1238 13.9693 27.2404C13.9437 27.3569 13.952 27.4784 13.9932 27.5904L14.427 28.7695L14.085 29.5937L12.9447 30.1202C12.8363 30.1703 12.7445 30.2503 12.6802 30.3509C12.6159 30.4514 12.5817 30.5683 12.5817 30.6877V32.4373C12.5817 32.5566 12.6159 32.6735 12.6802 32.7741C12.7445 32.8746 12.8363 32.9547 12.9447 33.0047L14.085 33.5312L14.427 34.3555L13.9932 35.5345C13.952 35.6465 13.9437 35.768 13.9694 35.8845C13.995 36.0011 14.0534 36.1079 14.1378 36.1923L15.3736 37.428C15.458 37.5125 15.5647 37.5709 15.6813 37.5966C15.7979 37.6222 15.9193 37.6139 16.0313 37.5727L17.2104 37.1389L18.0347 37.4809L18.5612 38.6212C18.6113 38.7295 18.6913 38.8213 18.7919 38.8856C18.8924 38.95 19.0093 38.9841 19.1287 38.9841H20.876C20.9954 38.9841 21.1123 38.95 21.2128 38.8856C21.3134 38.8213 21.3934 38.7295 21.4434 38.6212L21.9699 37.481L22.7962 37.1388L23.9755 37.5726C24.0875 37.6138 24.2089 37.6221 24.3255 37.5965C24.442 37.5708 24.5488 37.5124 24.6332 37.428L25.869 36.1922C25.9534 36.1078 26.0118 36.001 26.0375 35.8845C26.0631 35.7679 26.0548 35.6465 26.0136 35.5345L25.5796 34.3549L25.9199 33.5312L27.0617 33.0048C27.1702 32.9548 27.2621 32.8747 27.3265 32.7741C27.3908 32.6736 27.4251 32.5566 27.4251 32.4372V30.6876C27.4251 30.5681 27.3908 30.4512 27.3265 30.3506C27.2621 30.25 27.1702 30.17 27.0617 30.12V30.1202ZM26.1751 32.0373L25.1741 32.4987C25.0311 32.5646 24.9183 32.682 24.8582 32.8276L24.3311 34.1032C24.2712 34.2482 24.268 34.4104 24.3222 34.5577L24.7024 35.5911L24.0319 36.2616L22.9984 35.8814C22.851 35.8272 22.6886 35.8304 22.5434 35.8905L21.2656 36.4198C21.1205 36.48 21.0033 36.5926 20.9373 36.7352L20.476 37.7343H19.5284L19.067 36.7352C19.0012 36.5927 18.8841 36.4802 18.7391 36.42L17.4635 35.8907C17.3183 35.8305 17.1557 35.8271 17.0082 35.8814L15.9748 36.2616L15.3042 35.5911L15.6845 34.5577C15.7388 34.4101 15.7354 34.2475 15.6752 34.1023L15.1459 32.8267C15.0857 32.6817 14.9731 32.5647 14.8306 32.4988L13.8316 32.0375V31.0875L14.8306 30.6262C14.9731 30.5603 15.0857 30.4433 15.1459 30.2983L15.6752 29.0227C15.7354 28.8774 15.7387 28.7149 15.6845 28.5673L15.3042 27.5339L15.9748 26.8634L17.0082 27.2436C17.1557 27.2979 17.3183 27.2945 17.4635 27.2343L18.7391 26.705C18.8841 26.6448 19.0012 26.5323 19.067 26.3898L19.5284 25.3907H20.476L20.9373 26.3898C21.0032 26.5324 21.1204 26.645 21.2656 26.7052L22.5434 27.2345C22.6886 27.2946 22.851 27.2979 22.9984 27.2436L24.0319 26.8634L24.7024 27.5339L24.3222 28.5673C24.268 28.7146 24.2712 28.8768 24.3311 29.0218L24.8582 30.2974C24.9183 30.4429 25.0312 30.5604 25.1741 30.6263L26.1751 31.0877V32.0372V32.0373ZM21.4716 30.3474C21.5941 30.459 21.6674 30.6147 21.6752 30.7803C21.6829 30.9458 21.6246 31.1077 21.513 31.2303L20.1422 32.7362C20.086 32.798 20.018 32.8479 19.9422 32.883C19.8665 32.918 19.7844 32.9375 19.701 32.9403C19.6175 32.9431 19.5344 32.9291 19.4564 32.8992C19.3785 32.8693 19.3073 32.8241 19.2471 32.7662L18.5207 32.0687C18.4615 32.0118 18.4141 31.9439 18.3811 31.8687C18.3482 31.7935 18.3304 31.7126 18.3287 31.6305C18.3271 31.5484 18.3416 31.4669 18.3715 31.3904C18.4013 31.3139 18.446 31.2441 18.5028 31.1849C18.5597 31.1257 18.6276 31.0783 18.7028 31.0454C18.778 31.0124 18.8589 30.9946 18.941 30.9929C19.023 30.9913 19.1046 31.0058 19.1811 31.0357C19.2575 31.0655 19.3274 31.1102 19.3866 31.167L19.65 31.42L20.5887 30.3887C20.7003 30.2662 20.856 30.1929 21.0216 30.1852C21.1872 30.1774 21.3491 30.2357 21.4716 30.3473L21.4716 30.3474Z" fill="#6839CC"/>
</svg>
