<svg width="40" height="40" viewBox="0 0 40 40" fill="none" xmlns="http://www.w3.org/2000/svg">
<path d="M6.41544 9.80655H19.67C20.0033 9.80655 20.27 9.53988 20.27 9.20655V4.70352C20.27 4.37018 20.0033 4.10352 19.67 4.10352H6.41544C6.0821 4.10352 5.81544 4.37018 5.81544 4.70352V9.20049C5.80938 9.53382 6.0821 9.80655 6.41544 9.80655ZM7.01544 5.30958H19.07V8.60655H7.01544V5.30958ZM11.1548 12.6975H5.20938C4.87604 12.6975 4.60938 12.9641 4.60938 13.2975V18.4368C4.60938 18.7702 4.87604 19.0368 5.20938 19.0368H11.1548C11.4882 19.0368 11.7548 18.7702 11.7548 18.4368V13.2975C11.7548 12.9702 11.4882 12.6975 11.1548 12.6975ZM10.5488 17.8429H5.80938V13.9035H10.5488V17.8429ZM13.1488 14.4611C13.1488 14.7944 13.4154 15.0611 13.7488 15.0611H27.6457C27.9791 15.0611 28.2457 14.7944 28.2457 14.4611C28.2457 14.1278 27.9791 13.8611 27.6457 13.8611H13.7488C13.6698 13.8603 13.5914 13.8752 13.5182 13.9051C13.445 13.935 13.3786 13.9791 13.3227 14.035C13.2668 14.0909 13.2227 14.1574 13.1928 14.2305C13.1629 14.3037 13.148 14.3821 13.1488 14.4611ZM13.7488 17.8853H23.9245C24.2579 17.8853 24.5245 17.6187 24.5245 17.2853C24.5245 16.952 24.2579 16.6853 23.9245 16.6853H13.7488C13.4154 16.6853 13.1488 16.952 13.1488 17.2853C13.1488 17.6187 13.4154 17.8853 13.7488 17.8853ZM24.8033 21.9702H13.7488C13.4154 21.9702 13.1488 22.2369 13.1488 22.5702C13.1488 22.9035 13.4154 23.1702 13.7488 23.1702H24.8033C25.1366 23.1702 25.4033 22.9035 25.4033 22.5702C25.4033 22.2369 25.1366 21.9702 24.8033 21.9702ZM13.7488 24.8005C13.4154 24.8005 13.1488 25.0672 13.1488 25.4005C13.1488 25.7338 13.4154 26.0005 13.7488 26.0005H20.6154C20.9488 26.0005 21.2154 25.7338 21.2154 25.4005C21.2154 25.0672 20.9488 24.8005 20.6154 24.8005H13.7488ZM21.8033 30.0853H13.7488C13.4154 30.0853 13.1488 30.352 13.1488 30.6853C13.1488 31.0187 13.4154 31.2853 13.7488 31.2853H21.8033C22.1366 31.2853 22.4033 31.0187 22.4033 30.6853C22.4033 30.352 22.1366 30.0853 21.8033 30.0853ZM18.5427 32.9156H13.7488C13.4154 32.9156 13.1488 33.1823 13.1488 33.5156C13.1488 33.849 13.4154 34.1156 13.7488 34.1156H18.5427C18.876 34.1156 19.1427 33.849 19.1427 33.5156C19.1427 33.1823 18.876 32.9156 18.5427 32.9156ZM11.1548 20.8126H5.20938C4.87604 20.8126 4.60938 21.0793 4.60938 21.4126V26.552C4.60938 26.8853 4.87604 27.152 5.20938 27.152H11.1548C11.4882 27.152 11.7548 26.8853 11.7548 26.552V21.4126C11.7548 21.0853 11.4882 20.8126 11.1548 20.8126ZM10.5488 25.9581H5.80938V22.0187H10.5488V25.9581ZM11.1548 28.9278H5.20938C4.87604 28.9278 4.60938 29.1944 4.60938 29.5278V34.6672C4.60938 35.0005 4.87604 35.2672 5.20938 35.2672H11.1548C11.4882 35.2672 11.7548 35.0005 11.7548 34.6672V29.5278C11.7548 29.2005 11.4882 28.9278 11.1548 28.9278ZM10.5488 34.0732H5.80938V30.1338H10.5488V34.0732Z" fill="#6839CC"/>
<path d="M7.34433 16.7099C7.45948 16.8251 7.611 16.8857 7.76857 16.8857C7.92615 16.8857 8.08372 16.8251 8.19281 16.7099L9.41706 15.4857C9.4732 15.4302 9.51778 15.3642 9.5482 15.2913C9.57863 15.2185 9.59429 15.1404 9.59429 15.0614C9.59429 14.9825 9.57863 14.9044 9.5482 14.8316C9.51778 14.7587 9.4732 14.6927 9.41706 14.6372C9.36159 14.5811 9.29553 14.5365 9.2227 14.5061C9.14988 14.4756 9.07174 14.46 8.99281 14.46C8.91389 14.46 8.83575 14.4756 8.76293 14.5061C8.6901 14.5365 8.62404 14.5811 8.56857 14.6372L7.76857 15.4372L7.68978 15.3584C7.63431 15.3023 7.56825 15.2577 7.49543 15.2273C7.4226 15.1968 7.34447 15.1812 7.26554 15.1812C7.18662 15.1812 7.10848 15.1968 7.03565 15.2273C6.96283 15.2577 6.89677 15.3023 6.8413 15.3584C6.78515 15.4139 6.74058 15.4799 6.71015 15.5528C6.67973 15.6256 6.66406 15.7037 6.66406 15.7827C6.66406 15.8616 6.67973 15.9397 6.71015 16.0125C6.74058 16.0854 6.78515 16.1514 6.8413 16.2069L7.34433 16.7099ZM7.34433 25.0251C7.45948 25.1402 7.611 25.2008 7.76857 25.2008C7.92615 25.2008 8.08372 25.1402 8.19281 25.0251L9.41706 23.8008C9.4732 23.7454 9.51778 23.6793 9.5482 23.6065C9.57863 23.5337 9.59429 23.4555 9.59429 23.3766C9.59429 23.2977 9.57863 23.2195 9.5482 23.1467C9.51778 23.0739 9.4732 23.0078 9.41706 22.9523C9.36159 22.8962 9.29553 22.8516 9.2227 22.8212C9.14988 22.7908 9.07174 22.7751 8.99281 22.7751C8.91389 22.7751 8.83575 22.7908 8.76293 22.8212C8.6901 22.8516 8.62404 22.8962 8.56857 22.9523L7.76857 23.7523L7.68978 23.6736C7.63431 23.6174 7.56825 23.5728 7.49543 23.5424C7.4226 23.512 7.34447 23.4963 7.26554 23.4963C7.18662 23.4963 7.10848 23.512 7.03565 23.5424C6.96283 23.5728 6.89677 23.6174 6.8413 23.6736C6.78515 23.729 6.74058 23.7951 6.71015 23.8679C6.67973 23.9407 6.66406 24.0189 6.66406 24.0978C6.66406 24.1767 6.67973 24.2549 6.71015 24.3277C6.74058 24.4005 6.78515 24.4666 6.8413 24.522L7.34433 25.0251Z" fill="#6839CC"/>
<path d="M37.6961 10.861L34.5143 9.53372C34.1203 9.37008 33.6839 9.37008 33.29 9.52766C32.8961 9.69129 32.587 9.99432 32.4233 10.3883L31.4839 12.6307L31.1021 13.5458V8.84887C31.1021 8.83675 31.0961 8.83069 31.0961 8.82463C31.0961 8.76402 31.084 8.70948 31.0597 8.65493L31.0415 8.60038C31.0145 8.54016 30.9776 8.48485 30.9324 8.43675C30.9264 8.43069 30.9264 8.42463 30.9203 8.42463L23.2839 0.782203C23.2779 0.776142 23.2597 0.770082 23.2536 0.764021C23.2112 0.727657 23.1627 0.691294 23.1143 0.667051C23.0931 0.65632 23.0707 0.64818 23.0476 0.642809C22.9991 0.624627 22.9506 0.618567 22.9021 0.612506C22.89 0.612506 22.8718 0.606445 22.8597 0.606445H4.23546C2.6294 0.606445 1.32031 1.91554 1.32031 3.5216V36.4792C1.32031 38.0913 2.6294 39.4004 4.24152 39.4004H28.1809C29.793 39.4004 31.1021 38.0913 31.1021 36.4792V30.8064L37.6233 15.2004L38.5627 12.958C38.8961 12.1398 38.5082 11.2004 37.6961 10.861ZM33.5324 10.8549C33.5749 10.758 33.6476 10.6792 33.7446 10.6428C33.8415 10.6064 33.9506 10.6004 34.0476 10.6428L37.2294 11.9701C37.4294 12.0549 37.5264 12.2852 37.4415 12.4913L36.7385 14.1822L32.8233 12.5458L33.5324 10.8549ZM32.3627 13.6549L33.7627 14.2428L26.9991 30.4307L25.5991 29.8428L32.3627 13.6549ZM27.09 31.7761L28.7203 32.4549L25.6779 35.1519L25.4597 31.0974L27.09 31.7761ZM29.5082 31.4792L28.1082 30.8913L34.8718 14.6974L36.2718 15.2852L29.5082 31.4792ZM29.0476 8.25493H24.3567C23.8658 8.25493 23.4658 7.85493 23.4658 7.36402V2.66099L29.0476 8.25493ZM28.1809 38.1883H4.23546C3.29001 38.1883 2.52031 37.4186 2.52031 36.4731V3.5216C2.52031 2.5822 3.29001 1.81251 4.23546 1.81251H22.2536V7.36402C22.2536 8.5216 23.193 9.46099 24.3506 9.46099H29.89V16.4367L24.2536 29.9398C24.2476 29.9458 24.2536 29.958 24.2476 29.964C24.2233 30.0246 24.2112 30.0852 24.2112 30.1519V30.2064L24.5506 36.4671C24.5627 36.6974 24.7082 36.9034 24.9203 36.9883C24.993 37.0186 25.0718 37.0368 25.1506 37.0368C25.2961 37.0368 25.4355 36.9822 25.5506 36.8852L29.9021 33.0246V36.4792C29.8989 36.9336 29.7162 37.3683 29.3937 37.6884C29.0713 38.0086 28.6353 38.1883 28.1809 38.1883Z" fill="#6839CC"/>
</svg>
