<svg width="40" height="40" viewBox="0 0 40 40" fill="none" xmlns="http://www.w3.org/2000/svg">
<path d="M36.6135 13.0765C35.971 12.9559 35.3068 13.0858 34.7571 13.4395C34.2073 13.7931 33.8138 14.3438 33.6572 14.9784L32.181 20.4784C31.794 20.2224 31.3434 20.0794 30.8797 20.0655C30.4159 20.0516 29.9575 20.1673 29.556 20.3996L25.2822 22.9065C24.4372 23.404 23.7363 24.1129 23.2485 24.9635C22.7607 25.8142 22.5028 26.7772 22.5003 27.7578V32.5003H21.2503C21.0846 32.5003 20.9256 32.5661 20.8084 32.6833C20.6912 32.8005 20.6253 32.9595 20.6253 33.1253V38.1253C20.6253 38.291 20.6912 38.45 20.8084 38.5672C20.9256 38.6844 21.0846 38.7503 21.2503 38.7503H32.5003C32.6661 38.7503 32.8251 38.6844 32.9423 38.5672C33.0595 38.45 33.1253 38.291 33.1253 38.1253V33.1253C33.1253 32.9595 33.0595 32.8005 32.9423 32.6833C32.8251 32.5661 32.6661 32.5003 32.5003 32.5003H31.2503V31.7753C31.2503 31.5048 31.3087 31.2375 31.4217 30.9918C31.5346 30.746 31.6994 30.5276 31.9047 30.3515L34.8191 27.8515C35.2978 27.4422 35.6412 26.8974 35.8041 26.289L38.516 16.169C38.5729 15.9569 38.6013 15.738 38.6003 15.5184C38.5972 14.9458 38.3985 14.3915 38.0372 13.9474C37.6758 13.5032 37.1734 13.196 36.6135 13.0765ZM31.8753 37.5003H21.8753V33.7503H31.8753V37.5003ZM37.3091 15.8446L34.5966 25.9659C34.4992 26.331 34.2933 26.6579 34.006 26.9034L31.0916 29.4034C30.7494 29.6967 30.4747 30.0605 30.2864 30.4699C30.098 30.8793 30.0004 31.3246 30.0003 31.7753V32.5003H23.7503V27.7578C23.7519 26.9952 23.952 26.2463 24.331 25.5846C24.71 24.9229 25.2547 24.3712 25.9116 23.984L30.1803 21.4796C30.3705 21.3704 30.586 21.3128 30.8053 21.3128C31.0373 21.3107 31.2652 21.3741 31.4627 21.4957C31.6603 21.6173 31.8196 21.7922 31.9222 22.0003C32.0589 22.3024 32.0762 22.645 31.9705 22.9594C31.8649 23.2737 31.6442 23.5364 31.3528 23.6946L27.8528 25.7115C27.7817 25.7525 27.7193 25.8072 27.6693 25.8723C27.6192 25.9375 27.5825 26.0119 27.5612 26.0912C27.5399 26.1705 27.5344 26.2533 27.5451 26.3347C27.5558 26.4162 27.5824 26.4947 27.6235 26.5659C27.6645 26.637 27.7191 26.6994 27.7843 26.7495C27.8494 26.7995 27.9238 26.8362 28.0031 26.8575C28.0825 26.8788 28.1652 26.8843 28.2467 26.8736C28.3281 26.8629 28.4067 26.8363 28.4778 26.7953L31.9778 24.7784C32.5021 24.4862 32.9066 24.0185 33.1203 23.4576C33.3339 22.8967 33.343 22.2785 33.146 21.7115L34.8653 15.3053C34.9433 14.9818 35.1399 14.6995 35.4162 14.5143C35.6926 14.3291 36.0284 14.2545 36.3572 14.3053C36.636 14.3646 36.8863 14.5172 37.0668 14.7378C37.2474 14.9584 37.3473 15.234 37.3503 15.519C37.3512 15.6289 37.3373 15.7384 37.3091 15.8446ZM18.7503 32.5003H17.5003V27.7578C17.4982 26.7774 17.2409 25.8145 16.7537 24.9637C16.2665 24.113 15.5661 23.4038 14.7216 22.9059L10.4428 20.3959C10.0409 20.1642 9.58245 20.049 9.11878 20.0634C8.65511 20.0777 8.20461 20.221 7.81782 20.4771L6.3422 14.9771C6.18479 14.3427 5.7909 13.7924 5.24112 13.4389C4.69134 13.0854 4.02724 12.9553 3.3847 13.0753C3.05244 13.1454 2.73794 13.2825 2.46031 13.4781C2.18269 13.6736 1.94775 13.9236 1.76979 14.2128C1.59183 14.5021 1.47456 14.8245 1.42512 15.1604C1.37567 15.4964 1.3951 15.8389 1.4822 16.1671L4.1947 26.2884C4.35705 26.8969 4.70031 27.4417 5.17907 27.8509L8.09345 30.3509C8.29929 30.5268 8.4646 30.7452 8.57799 30.9911C8.69138 31.237 8.75017 31.5045 8.75032 31.7753V32.5003H7.50032C7.33456 32.5003 7.17559 32.5661 7.05838 32.6833C6.94117 32.8005 6.87532 32.9595 6.87532 33.1253V38.1253C6.87532 38.291 6.94117 38.45 7.05838 38.5672C7.17559 38.6844 7.33456 38.7503 7.50032 38.7503H18.7503C18.9161 38.7503 19.0751 38.6844 19.1923 38.5672C19.3095 38.45 19.3753 38.291 19.3753 38.1253V33.1253C19.3753 32.9595 19.3095 32.8005 19.1923 32.6833C19.0751 32.5661 18.9161 32.5003 18.7503 32.5003ZM8.90907 29.4021L5.9947 26.9021C5.70718 26.6569 5.50117 26.3299 5.40407 25.9646L2.69157 15.844C2.66341 15.738 2.64953 15.6287 2.65032 15.519C2.65209 15.2328 2.75168 14.9558 2.93255 14.734C3.11343 14.5122 3.36471 14.359 3.6447 14.2996C3.97341 14.2493 4.30906 14.3241 4.58529 14.5092C4.86153 14.6944 5.05825 14.9764 5.13657 15.2996L6.85595 21.7053C6.65873 22.2723 6.66773 22.8907 6.88138 23.4517C7.09503 24.0128 7.49964 24.4805 8.02407 24.7728L11.5241 26.7896C11.6678 26.8725 11.8385 26.8949 11.9988 26.8519C12.159 26.8089 12.2956 26.704 12.3785 26.5603C12.4613 26.4165 12.4837 26.2458 12.4407 26.0856C12.3977 25.9253 12.2928 25.7888 12.1491 25.7059L8.64907 23.689C8.35757 23.5308 8.13675 23.2682 8.03101 22.9539C7.92527 22.6395 7.94244 22.2968 8.07907 21.9946C8.18254 21.7881 8.34188 21.6147 8.53898 21.4941C8.73608 21.3736 8.96305 21.3107 9.19407 21.3128C9.41189 21.3123 9.62605 21.3687 9.81532 21.4765L14.0891 23.9846C14.746 24.3717 15.2908 24.9232 15.6698 25.5848C16.0487 26.2464 16.2488 26.9953 16.2503 27.7578V32.5003H10.0003V31.7753C10.0004 31.3244 9.9029 30.8789 9.71453 30.4692C9.52617 30.0596 9.25139 29.6956 8.90907 29.4021ZM18.1253 37.5003H8.12532V33.7503H18.1253V37.5003ZM30.0003 9.75026V1.87526C30.0005 1.76544 29.9718 1.65751 29.9171 1.56233C29.8623 1.46714 29.7834 1.38807 29.6884 1.33307C29.5933 1.27806 29.4855 1.24908 29.3756 1.24902C29.2658 1.24897 29.1579 1.27785 29.0628 1.33276L28.1722 1.84151C27.1901 2.40411 26.0841 2.71502 24.9527 2.74653C23.8213 2.77805 22.6997 2.52919 21.6878 2.02213L20.2747 1.31588C20.188 1.27253 20.0923 1.24997 19.9953 1.24997C19.8984 1.24997 19.8027 1.27253 19.716 1.31588L18.3128 2.01963C17.3008 2.52757 16.1788 2.77708 15.0469 2.74589C13.915 2.7147 12.8084 2.40378 11.8259 1.84088L10.9378 1.33276C10.8427 1.27785 10.7348 1.24897 10.625 1.24902C10.5152 1.24908 10.4073 1.27806 10.3123 1.33307C10.2172 1.38807 10.1384 1.46714 10.0836 1.56233C10.0288 1.65751 10.0001 1.76544 10.0003 1.87526V9.75026C9.99729 12.5828 10.7657 15.3627 12.223 17.7916C13.6803 20.2206 15.7715 22.2068 18.2722 23.5371L19.706 24.3015C19.7965 24.3499 19.8976 24.3752 20.0003 24.3752C20.103 24.3752 20.2041 24.3499 20.2947 24.3015L21.7285 23.5371C24.2292 22.2069 26.3206 20.2207 27.7779 17.7917C29.2352 15.3628 30.0035 12.5828 30.0003 9.75026ZM20.0003 23.0421L18.861 22.434C16.5602 21.2102 14.6362 19.3829 13.2954 17.1484C11.9546 14.9138 11.2476 12.3562 11.2503 9.75026V2.95213C12.4078 3.60562 13.7081 3.96452 15.0369 3.99721C16.3657 4.02991 17.6821 3.73541 18.8703 3.13963L19.9953 2.57713L21.1291 3.14338C22.3177 3.73886 23.6346 4.03287 24.9636 3.99952C26.2926 3.96617 27.5931 3.60647 28.7503 2.95213V9.75026C28.7532 12.3563 28.0463 14.9139 26.7055 17.1485C25.3646 19.3831 23.4405 21.2103 21.1397 22.434L20.0003 23.0421Z" fill="#6839CC"/>
<path d="M27.5 5.64678C27.5001 5.55348 27.4792 5.46135 27.439 5.37716C27.3988 5.29297 27.3403 5.21884 27.2677 5.16022C27.1951 5.1016 27.1103 5.05998 27.0196 5.0384C26.9288 5.01682 26.8343 5.01584 26.7431 5.03553C24.6575 5.48012 22.4828 5.20633 20.5725 4.25865L20.2775 4.11178C20.1903 4.06782 20.0939 4.04492 19.9963 4.04492C19.8986 4.04492 19.8022 4.06782 19.715 4.11178L19.4263 4.25615C17.5157 5.20513 15.3402 5.4796 13.2538 5.0349C13.1628 5.01575 13.0687 5.01714 12.9783 5.03896C12.8879 5.06079 12.8036 5.1025 12.7313 5.16106C12.6591 5.21962 12.6009 5.29355 12.5609 5.37747C12.5209 5.46139 12.5001 5.55318 12.5 5.64615V9.75053C12.4974 12.1299 13.1428 14.4651 14.367 16.5053C15.5912 18.5456 17.348 20.2139 19.4488 21.3312L19.7056 21.4686C19.7961 21.5169 19.8971 21.5421 19.9997 21.5421C20.1023 21.5421 20.2033 21.5169 20.2938 21.4686L20.5513 21.3312C22.652 20.2139 24.4088 18.5456 25.633 16.5053C26.8572 14.4651 27.5027 12.1299 27.5 9.75053V5.64678ZM26.25 9.75053C26.2524 11.8962 25.6722 14.0022 24.5715 15.8441C23.4708 17.6859 21.8908 19.1944 20 20.2086C18.1092 19.1944 16.5292 17.6859 15.4285 15.8441C14.3278 14.0022 13.7477 11.8962 13.75 9.75053V6.3924C15.8845 6.68863 18.0588 6.33425 19.9888 5.37553L20 5.36928L20.015 5.3774C21.9438 6.33573 24.1168 6.6897 26.25 6.39303V9.75053Z" fill="#6839CC"/>
<path d="M23.5383 8.70545L18.7526 13.4911L16.8014 11.5398C16.6835 11.426 16.5256 11.363 16.3618 11.3644C16.1979 11.3658 16.0411 11.4316 15.9252 11.5474C15.8094 11.6633 15.7436 11.8201 15.7422 11.984C15.7408 12.1478 15.8038 12.3057 15.9176 12.4236L18.3108 14.8167C18.428 14.9339 18.5869 14.9997 18.7526 14.9997C18.9184 14.9997 19.0773 14.9339 19.1945 14.8167L24.422 9.5892C24.4817 9.53155 24.5293 9.46258 24.5621 9.38633C24.5948 9.31008 24.6121 9.22807 24.6128 9.14508C24.6135 9.06209 24.5977 8.97979 24.5663 8.90298C24.5348 8.82617 24.4884 8.75639 24.4298 8.69771C24.3711 8.63902 24.3013 8.59262 24.2245 8.56119C24.1477 8.52976 24.0654 8.51395 23.9824 8.51467C23.8994 8.51539 23.8174 8.53263 23.7411 8.56539C23.6649 8.59815 23.5959 8.64576 23.5383 8.70545Z" fill="#6839CC"/>
</svg>
