<svg width="420" height="518" viewBox="0 0 420 518" fill="none" xmlns="http://www.w3.org/2000/svg">
<rect x="47.8125" y="16" width="356" height="247" rx="20" fill="#6839CC"/>
<rect x="37.8125" y="26" width="356" height="247" rx="20" fill="#F6E8FF"/>
<path d="M247.332 0C247.332 0.414214 247.668 0.75 248.082 0.75H250.588C251.424 0.75 252.248 0.803801 253.056 0.907227C253.462 0.95916 253.832 0.675573 253.892 0.272461C255.103 0.47396 256.278 0.784204 257.406 1.19336C257.26 1.57375 257.444 2.00218 257.823 2.15625C259.362 2.78104 260.804 3.59947 262.116 4.58203C262.444 4.82738 262.906 4.76393 263.156 4.44238C264.1 5.20523 264.972 6.05254 265.763 6.97266C265.449 7.23265 265.4 7.69749 265.655 8.01758C266.676 9.29982 267.538 10.7156 268.208 12.2354C268.373 12.6097 268.807 12.7811 269.183 12.624C269.625 13.7391 269.969 14.904 270.207 16.1084C269.806 16.1804 269.536 16.56 269.6 16.9639C269.727 17.7683 269.804 18.5901 269.829 19.4258L269.905 21.9697C269.918 22.3836 270.264 22.7086 270.678 22.6963L270.784 26.2852C270.371 26.2978 270.045 26.643 270.058 27.0566L270.209 32.1445C270.221 32.5586 270.567 32.8844 270.981 32.8721L271.088 36.46C270.674 36.4726 270.349 36.8186 270.361 37.2324L270.513 42.3203C270.525 42.7342 270.871 43.0592 271.285 43.0469L271.393 46.6357C270.979 46.6481 270.653 46.9942 270.665 47.4082L270.816 52.4951C270.829 52.9091 271.175 53.235 271.589 53.2227L271.696 56.8105C271.282 56.8229 270.956 57.169 270.969 57.583L271.121 62.6709C271.134 63.0848 271.479 63.4107 271.893 63.3984L272 66.9863C271.586 66.9987 271.26 67.3448 271.272 67.7588L271.425 72.8457C271.437 73.2597 271.782 73.5855 272.196 73.5732L272.304 77.1621C271.89 77.1745 271.564 77.5196 271.576 77.9336L271.729 83.0215C271.741 83.4354 272.086 83.7613 272.5 83.749L272.607 87.3369C272.193 87.3493 271.868 87.6953 271.88 88.1094L272.032 93.1963C272.045 93.6102 272.39 93.936 272.804 93.9238L272.911 97.5127C272.497 97.5251 272.171 97.8702 272.184 98.2842L272.336 103.372C272.348 103.786 272.694 104.112 273.107 104.1L273.215 107.688C272.801 107.7 272.475 108.046 272.487 108.46L272.64 113.548C272.652 113.962 272.997 114.287 273.411 114.274L273.519 117.863C273.105 117.876 272.779 118.221 272.791 118.635L272.943 123.723C272.956 124.137 273.301 124.461 273.715 124.449L273.822 128.038C273.408 128.051 273.082 128.397 273.095 128.811L273.171 131.354C273.198 132.254 273.282 133.139 273.419 134.006C273.484 134.415 273.868 134.694 274.277 134.629C274.282 134.628 274.287 134.626 274.292 134.625C274.529 135.83 274.874 136.995 275.316 138.11C275.312 138.112 275.308 138.114 275.304 138.116C274.925 138.283 274.753 138.726 274.92 139.105C275.643 140.744 276.571 142.271 277.672 143.652C277.93 143.976 278.402 144.029 278.726 143.771C278.729 143.768 278.733 143.765 278.736 143.762C279.527 144.682 280.399 145.529 281.343 146.292C281.34 146.296 281.337 146.3 281.334 146.304C281.086 146.635 281.154 147.105 281.485 147.354C282.899 148.412 284.453 149.295 286.112 149.969C286.496 150.124 286.933 149.939 287.089 149.556C287.091 149.551 287.092 149.546 287.094 149.541C288.222 149.95 289.396 150.259 290.607 150.461C290.607 150.466 290.606 150.471 290.605 150.477C290.553 150.887 290.843 151.264 291.254 151.316C292.125 151.428 293.012 151.485 293.912 151.485H296.323C296.711 151.485 297.031 151.19 297.069 150.812L297.073 150.735H300.396L300.399 150.812C300.438 151.19 300.757 151.485 301.146 151.485H305.968C306.356 151.485 306.676 151.19 306.714 150.812L306.718 150.735H310.039L310.043 150.812C310.081 151.19 310.401 151.485 310.789 151.485H315.611C316 151.485 316.319 151.19 316.357 150.812L316.361 150.735H319.684L319.688 150.812C319.726 151.19 320.045 151.485 320.434 151.485H325.256C325.644 151.485 325.964 151.19 326.002 150.812L326.006 150.735H329.328L329.332 150.812C329.37 151.19 329.69 151.485 330.078 151.485H334.9C335.289 151.485 335.608 151.19 335.646 150.812L335.65 150.735H338.973L338.977 150.812C339.015 151.19 339.334 151.485 339.723 151.485H344.545C344.933 151.485 345.253 151.19 345.291 150.812L345.295 150.735H348.617L348.621 150.812C348.659 151.19 348.979 151.485 349.367 151.485H354.189C354.578 151.485 354.897 151.19 354.936 150.812L354.939 150.735H358.262L358.266 150.812C358.304 151.19 358.623 151.485 359.012 151.485H363.834C364.222 151.485 364.542 151.19 364.58 150.812L364.584 150.735H367.906L367.909 150.812C367.947 151.19 368.268 151.485 368.656 151.485H373.478C373.866 151.485 374.185 151.19 374.224 150.812L374.228 150.735H377.55L377.554 150.812C377.592 151.19 377.912 151.485 378.3 151.485H383.122C383.51 151.485 383.83 151.19 383.868 150.812L383.872 150.735H387.194L387.198 150.812C387.237 151.19 387.556 151.485 387.944 151.485H392.767C393.155 151.485 393.474 151.19 393.513 150.812L393.517 150.735H396.839L396.843 150.812C396.881 151.19 397.2 151.485 397.589 151.485H400C400.853 151.485 401.693 151.54 402.516 151.647C402.921 151.7 403.292 151.419 403.353 151.017C404.597 151.227 405.803 151.55 406.958 151.979C406.809 152.358 406.99 152.788 407.368 152.945C408.933 153.594 410.394 154.444 411.719 155.462C412.043 155.711 412.506 155.653 412.761 155.335C413.72 156.131 414.604 157.014 415.399 157.974C415.081 158.228 415.024 158.692 415.273 159.017C416.291 160.341 417.141 161.802 417.79 163.366C417.947 163.744 418.376 163.926 418.755 163.777C419.183 164.932 419.508 166.137 419.718 167.381C419.316 167.442 419.034 167.814 419.087 168.22C419.194 169.043 419.25 169.883 419.25 170.735V173.215C419.25 173.629 419.586 173.965 420 173.965V177.423C419.586 177.423 419.25 177.759 419.25 178.173V183.132C419.25 183.546 419.586 183.882 420 183.882V187.34C419.586 187.34 419.25 187.676 419.25 188.09V193.049C419.25 193.463 419.586 193.799 420 193.799V197.257C419.586 197.257 419.25 197.593 419.25 198.007V202.966C419.25 203.38 419.586 203.716 420 203.716V207.174C419.586 207.174 419.25 207.51 419.25 207.924V212.883C419.25 213.297 419.586 213.633 420 213.633V217.092C419.586 217.092 419.25 217.428 419.25 217.842V222.8C419.25 223.214 419.586 223.55 420 223.55V227.009C419.586 227.009 419.25 227.345 419.25 227.759V232.717C419.25 233.131 419.586 233.467 420 233.467V236.926C419.586 236.926 419.25 237.262 419.25 237.676V242.634C419.25 243.048 419.586 243.384 420 243.384V246.843C419.586 246.843 419.25 247.179 419.25 247.593V252.552C419.25 252.966 419.586 253.302 420 253.302V256.76C419.586 256.76 419.25 257.096 419.25 257.51V262.469C419.25 262.883 419.586 263.219 420 263.219V266.677C419.586 266.677 419.25 267.013 419.25 267.427V272.386C419.25 272.8 419.586 273.136 420 273.136V276.594C419.586 276.594 419.25 276.93 419.25 277.344V282.303C419.25 282.717 419.586 283.053 420 283.053V286.512C419.586 286.512 419.25 286.848 419.25 287.262V292.22C419.25 292.634 419.586 292.97 420 292.97V296.429C419.586 296.429 419.25 296.764 419.25 297.179V302.137C419.25 302.551 419.586 302.887 420 302.887V306.346C419.586 306.346 419.25 306.681 419.25 307.096V312.054C419.25 312.468 419.586 312.804 420 312.804V316.263C419.586 316.263 419.25 316.598 419.25 317.013V321.971C419.25 322.385 419.586 322.721 420 322.721V326.18C419.586 326.18 419.25 326.515 419.25 326.93V331.889C419.25 332.303 419.586 332.639 420 332.639V336.097C419.586 336.097 419.25 336.433 419.25 336.847V341.806C419.25 342.22 419.586 342.556 420 342.556V346.014C419.586 346.014 419.25 346.35 419.25 346.764V351.723C419.25 352.137 419.586 352.473 420 352.473V355.931C419.586 355.931 419.25 356.267 419.25 356.681V361.64C419.25 362.054 419.586 362.39 420 362.39V365.849C419.586 365.849 419.25 366.184 419.25 366.599V371.557C419.25 371.971 419.586 372.307 420 372.307V375.766C419.586 375.766 419.25 376.101 419.25 376.516V381.474C419.25 381.888 419.586 382.224 420 382.224V385.683C419.586 385.683 419.25 386.018 419.25 386.433V391.391C419.25 391.805 419.586 392.141 420 392.141V395.6C419.586 395.6 419.25 395.935 419.25 396.35V401.308C419.25 401.722 419.586 402.058 420 402.058V405.517C419.586 405.517 419.25 405.852 419.25 406.267V411.226C419.25 411.64 419.586 411.976 420 411.976V415.434C419.586 415.434 419.25 415.769 419.25 416.184V421.143C419.25 421.557 419.586 421.893 420 421.893V425.351C419.586 425.351 419.25 425.686 419.25 426.101V431.06C419.25 431.474 419.586 431.81 420 431.81V435.268C419.586 435.268 419.25 435.604 419.25 436.018V440.977C419.25 441.391 419.586 441.727 420 441.727V445.186C419.586 445.186 419.25 445.521 419.25 445.936V450.894C419.25 451.308 419.586 451.644 420 451.644V455.103C419.586 455.103 419.25 455.438 419.25 455.853V460.811C419.25 461.225 419.586 461.561 420 461.561V465.02C419.586 465.02 419.25 465.355 419.25 465.77V470.728C419.25 471.142 419.586 471.478 420 471.478V474.937C419.586 474.937 419.25 475.272 419.25 475.687V480.645C419.25 481.059 419.586 481.395 420 481.395V484.854C419.586 484.854 419.25 485.189 419.25 485.604V490.562C419.25 490.977 419.586 491.312 420 491.312V494.771C419.586 494.771 419.25 495.106 419.25 495.521V498C419.25 498.853 419.194 499.693 419.087 500.516C419.034 500.921 419.316 501.291 419.718 501.353C419.508 502.597 419.183 503.802 418.755 504.957C418.376 504.809 417.947 504.991 417.79 505.368C417.222 506.737 416.501 508.027 415.647 509.216L415.273 509.719C415.024 510.043 415.081 510.506 415.399 510.761C414.604 511.72 413.72 512.604 412.761 513.399C412.522 513.102 412.101 513.032 411.782 513.229L411.719 513.273C410.394 514.292 408.933 515.141 407.368 515.79C406.991 515.947 406.809 516.376 406.957 516.755C405.802 517.183 404.597 517.508 403.353 517.718C403.291 517.316 402.921 517.034 402.516 517.087C401.693 517.194 400.853 517.25 400 517.25H397.5C397.086 517.25 396.75 517.586 396.75 518H393.25C393.25 517.586 392.914 517.25 392.5 517.25H387.5C387.086 517.25 386.75 517.586 386.75 518H383.25C383.25 517.586 382.914 517.25 382.5 517.25H377.5C377.086 517.25 376.75 517.586 376.75 518H373.25C373.25 517.586 372.914 517.25 372.5 517.25H367.5C367.086 517.25 366.75 517.586 366.75 518H363.25C363.25 517.586 362.914 517.25 362.5 517.25H357.5C357.086 517.25 356.75 517.586 356.75 518H353.25C353.25 517.586 352.914 517.25 352.5 517.25H347.5C347.086 517.25 346.75 517.586 346.75 518H343.25C343.25 517.586 342.914 517.25 342.5 517.25H337.5C337.086 517.25 336.75 517.586 336.75 518H333.25C333.25 517.586 332.914 517.25 332.5 517.25H327.5C327.086 517.25 326.75 517.586 326.75 518H323.25C323.25 517.586 322.914 517.25 322.5 517.25H317.5C317.086 517.25 316.75 517.586 316.75 518H313.25C313.25 517.586 312.914 517.25 312.5 517.25H307.5C307.086 517.25 306.75 517.586 306.75 518H303.25C303.25 517.586 302.914 517.25 302.5 517.25H297.5C297.086 517.25 296.75 517.586 296.75 518H293.25C293.25 517.586 292.914 517.25 292.5 517.25H287.5C287.086 517.25 286.75 517.586 286.75 518H283.25C283.25 517.586 282.914 517.25 282.5 517.25H277.5C277.086 517.25 276.75 517.586 276.75 518H273.25C273.25 517.586 272.914 517.25 272.5 517.25H267.5C267.086 517.25 266.75 517.586 266.75 518H263.25C263.25 517.586 262.914 517.25 262.5 517.25H257.5C257.086 517.25 256.75 517.586 256.75 518H253.25C253.25 517.586 252.914 517.25 252.5 517.25H247.5C247.086 517.25 246.75 517.586 246.75 518H243.25C243.25 517.586 242.914 517.25 242.5 517.25H237.5C237.086 517.25 236.75 517.586 236.75 518H233.25C233.25 517.586 232.914 517.25 232.5 517.25H227.5C227.086 517.25 226.75 517.586 226.75 518H223.25C223.25 517.586 222.914 517.25 222.5 517.25H217.5C217.086 517.25 216.75 517.586 216.75 518H213.25C213.25 517.586 212.914 517.25 212.5 517.25H207.5C207.086 517.25 206.75 517.586 206.75 518H203.25C203.25 517.586 202.914 517.25 202.5 517.25H197.5C197.086 517.25 196.75 517.586 196.75 518H193.25C193.25 517.586 192.914 517.25 192.5 517.25H187.5C187.086 517.25 186.75 517.586 186.75 518H183.25C183.25 517.586 182.914 517.25 182.5 517.25H177.5C177.086 517.25 176.75 517.586 176.75 518H173.25C173.25 517.586 172.914 517.25 172.5 517.25H167.5C167.086 517.25 166.75 517.586 166.75 518H163.25C163.25 517.586 162.914 517.25 162.5 517.25H157.5C157.086 517.25 156.75 517.586 156.75 518H153.25C153.25 517.586 152.914 517.25 152.5 517.25H147.5C147.086 517.25 146.75 517.586 146.75 518H143.25C143.25 517.586 142.914 517.25 142.5 517.25H137.5C137.086 517.25 136.75 517.586 136.75 518H133.25C133.25 517.586 132.914 517.25 132.5 517.25H127.5C127.086 517.25 126.75 517.586 126.75 518H123.25C123.25 517.586 122.914 517.25 122.5 517.25H117.5C117.086 517.25 116.75 517.586 116.75 518H113.25C113.25 517.586 112.914 517.25 112.5 517.25H107.5C107.086 517.25 106.75 517.586 106.75 518H103.25C103.25 517.586 102.914 517.25 102.5 517.25H97.5C97.0858 517.25 96.75 517.586 96.75 518H93.25C93.25 517.586 92.9142 517.25 92.5 517.25H87.5C87.0858 517.25 86.75 517.586 86.75 518H83.25C83.25 517.586 82.9142 517.25 82.5 517.25H77.5C77.0858 517.25 76.75 517.586 76.75 518H73.25C73.25 517.586 72.9142 517.25 72.5 517.25H67.5C67.0858 517.25 66.75 517.586 66.75 518H63.25C63.25 517.586 62.9142 517.25 62.5 517.25H57.5C57.0858 517.25 56.75 517.586 56.75 518H53.25C53.25 517.586 52.9142 517.25 52.5 517.25H47.5C47.0858 517.25 46.75 517.586 46.75 518H43.25C43.25 517.586 42.9142 517.25 42.5 517.25H37.5C37.0858 517.25 36.75 517.586 36.75 518H33.25C33.25 517.586 32.9142 517.25 32.5 517.25H27.5C27.0858 517.25 26.75 517.586 26.75 518H23.25C23.25 517.586 22.9142 517.25 22.5 517.25H20C19.1472 517.25 18.3072 517.194 17.4844 517.087C17.0792 517.034 16.7077 517.316 16.6465 517.718C15.4021 517.508 14.1969 517.184 13.042 516.755C13.1902 516.376 13.0094 515.947 12.6318 515.79L12.0498 515.537C10.7039 514.926 9.44053 514.164 8.28125 513.273L8.21777 513.229C7.89855 513.032 7.47654 513.101 7.23828 513.399C6.27906 512.604 5.39535 511.72 4.59961 510.761C4.91818 510.506 4.97604 510.043 4.72656 509.719L4.35254 509.216C3.49903 508.027 2.77767 506.737 2.20996 505.368C2.05308 504.99 1.62329 504.808 1.24414 504.957C0.815578 503.802 0.491275 502.597 0.28125 501.353C0.683641 501.292 0.965688 500.921 0.913086 500.516L0.841797 499.895C0.801233 499.479 0.774478 499.06 0.760742 498.637L0.75 498V495.466C0.75 495.052 0.414214 494.716 0 494.716V491.147C0.388422 491.147 0.707817 490.852 0.746094 490.474L0.75 490.397V485.329C0.75 484.915 0.414214 484.579 0 484.579V481.011C0.388445 481.011 0.707848 480.715 0.746094 480.337L0.75 480.261V475.192C0.75 474.778 0.414214 474.442 0 474.442V470.874C0.388468 470.874 0.707879 470.579 0.746094 470.2L0.75 470.124V465.056C0.75 464.641 0.414214 464.306 0 464.306V460.737C0.388485 460.737 0.707902 460.442 0.746094 460.063L0.75 459.987V454.919C0.749996 454.505 0.414211 454.169 0 454.169V450.601C0.414214 450.601 0.75 450.265 0.75 449.851V444.782C0.749969 444.368 0.414194 444.032 0 444.032V440.464C0.414214 440.464 0.75 440.128 0.75 439.714V434.646C0.749932 434.231 0.414172 433.896 0 433.896V430.327C0.414214 430.327 0.75 429.991 0.75 429.577V424.509C0.749905 424.095 0.414155 423.759 0 423.759V420.19C0.414214 420.19 0.75 419.855 0.75 419.44V414.372C0.749869 413.958 0.414132 413.622 0 413.622V410.054C0.414214 410.054 0.75 409.718 0.75 409.304V404.235C0.749832 403.821 0.41411 403.485 0 403.485V399.917C0.414214 399.917 0.75 399.581 0.75 399.167V394.099C0.749805 393.685 0.414093 393.349 0 393.349V389.78C0.414214 389.78 0.75 389.444 0.75 389.03V383.962C0.749768 383.548 0.414071 383.212 0 383.212V379.644C0.414214 379.644 0.75 379.308 0.75 378.894V373.826C0.75 373.412 0.414214 373.076 0 373.076V369.508C0.388343 369.508 0.70771 369.212 0.746094 368.834L0.75 368.758V363.689C0.75 363.275 0.414214 362.939 0 362.939V359.371C0.38836 359.371 0.707734 359.076 0.746094 358.697L0.75 358.621V353.553C0.75 353.139 0.414214 352.803 0 352.803V349.234C0.388383 349.234 0.707764 348.939 0.746094 348.561L0.75 348.484V343.416C0.75 343.002 0.414214 342.666 0 342.666V339.098C0.3884 339.098 0.707788 338.802 0.746094 338.424L0.75 338.348V333.279C0.75 332.865 0.414214 332.529 0 332.529V328.961C0.388417 328.961 0.707811 328.665 0.746094 328.287L0.75 328.211V323.143C0.75 322.728 0.414214 322.393 0 322.393V318.824C0.388432 318.824 0.70783 318.529 0.746094 318.15L0.75 318.074V313.006C0.75 312.592 0.414214 312.256 0 312.256V308.688C0.388449 308.688 0.707853 308.392 0.746094 308.014L0.75 307.938V302.869C0.75 302.455 0.414214 302.119 0 302.119V298.551C0.388463 298.551 0.707872 298.255 0.746094 297.877L0.75 297.801V292.732C0.75 292.318 0.414214 291.982 0 291.982V288.414C0.38848 288.414 0.707896 288.119 0.746094 287.74L0.75 287.664V282.596C0.75 282.181 0.414214 281.846 0 281.846V278.277C0.388162 278.277 0.707467 277.982 0.746094 277.604L0.75 277.527V272.459C0.749993 272.045 0.414209 271.709 0 271.709V268.141C0.414214 268.141 0.75 267.805 0.75 267.391V262.322C0.74997 261.908 0.414195 261.572 0 261.572V258.004C0.414214 258.004 0.75 257.668 0.75 257.254V252.186C0.749945 251.771 0.41418 251.436 0 251.436V247.867C0.414214 247.867 0.75 247.531 0.75 247.117V242.049C0.74992 241.635 0.414164 241.299 0 241.299V237.73C0.414214 237.73 0.75 237.395 0.75 236.98V231.912C0.749895 231.498 0.414149 231.162 0 231.162V227.594C0.414214 227.594 0.75 227.258 0.75 226.844V221.775C0.74987 221.361 0.414133 221.025 0 221.025V217.457C0.414214 217.457 0.75 217.121 0.75 216.707V214.173C0.75001 213.487 0.786463 212.806 0.858398 212.131C0.901557 211.724 0.61111 211.359 0.207031 211.308C0.338903 210.397 0.533318 209.499 0.787109 208.621C1.17633 208.741 1.59145 208.528 1.71973 208.14C2.09408 207.006 2.57325 205.909 3.15039 204.864L3.4043 204.419C3.61119 204.066 3.49724 203.614 3.15039 203.4C3.64276 202.63 4.18855 201.892 4.78613 201.191C5.07194 201.445 5.49946 201.442 5.78027 201.192L5.83496 201.139C6.29447 200.639 6.78175 200.161 7.29688 199.709L9.31055 197.941C9.60243 197.685 9.64775 197.252 9.42676 196.942L9.37891 196.883L12.2783 194.336C12.5517 194.647 13.0257 194.678 13.3369 194.404L17.3643 190.868C17.6556 190.612 17.701 190.179 17.4805 189.87L17.4326 189.81L20.3311 187.263L20.332 187.264C20.5883 187.555 21.0206 187.6 21.3301 187.38L21.3906 187.332L25.417 183.796C25.7282 183.523 25.7587 183.049 25.4854 182.737L28.3848 180.19C28.6411 180.482 29.0743 180.528 29.3838 180.307L29.4434 180.26L31.457 178.491C31.9746 178.037 32.4642 177.562 32.9258 177.069L33.3779 176.571C33.6511 176.26 33.6198 175.786 33.3086 175.513C33.3046 175.509 33.2999 175.506 33.2959 175.503C34.093 174.523 34.7848 173.483 35.3701 172.397C35.3747 172.4 35.3791 172.403 35.3838 172.405C35.7324 172.577 36.1494 172.453 36.3506 172.13L36.3877 172.063C37.0931 170.628 37.6243 169.126 37.9795 167.589L38.1211 166.928C38.2011 166.521 37.9365 166.127 37.5303 166.047C37.5252 166.046 37.5198 166.045 37.5146 166.044C37.71 164.812 37.7905 163.565 37.7549 162.318C37.76 162.318 37.7653 162.319 37.7705 162.318C38.1837 162.291 38.4968 161.934 38.4697 161.521L38.4141 160.847C38.2592 159.277 37.9254 157.719 37.4102 156.205L37.3818 156.134C37.2238 155.788 36.8258 155.611 36.458 155.736C36.4534 155.738 36.4489 155.74 36.4443 155.741C36.0034 154.59 35.4505 153.47 34.7861 152.396C34.7904 152.394 34.7955 152.392 34.7998 152.389C35.1434 152.158 35.2349 151.691 35.0039 151.348L34.6191 150.795C34.2248 150.247 33.8004 149.713 33.3457 149.196L31.6084 147.221L31.5547 147.166C31.2761 146.907 30.8414 146.897 30.5498 147.153H30.5488L28.0645 144.328H28.0654C28.3761 144.055 28.4063 143.58 28.1328 143.27L24.6582 139.318L24.6045 139.264C24.3259 139.005 23.8902 138.995 23.5986 139.251L21.1143 136.426H21.1152C21.426 136.152 21.4561 135.678 21.1826 135.367L17.708 131.416L17.6543 131.361C17.3757 131.103 16.94 131.092 16.6484 131.349L14.1641 128.523C14.4751 128.25 14.506 127.776 14.2324 127.465L10.7578 123.514L10.7041 123.459C10.4256 123.201 9.99077 123.189 9.69922 123.445L7.21387 120.621C7.5249 120.348 7.55578 119.874 7.28223 119.562L5.54492 117.587C4.77551 116.712 4.09169 115.775 3.49902 114.788C3.28821 114.438 2.83647 114.322 2.4834 114.524C1.56267 112.853 0.885949 111.058 0.473633 109.195C0.872693 109.114 1.13588 108.73 1.0625 108.327L0.989258 107.901C0.830742 106.906 0.75 105.894 0.75 104.874V102.222C0.749798 101.808 0.414089 101.472 0 101.472V97.667C0.414214 97.667 0.75 97.3312 0.75 96.917V91.6123C0.749758 91.1983 0.414064 90.8623 0 90.8623V87.0576C0.414214 87.0576 0.75 86.7218 0.75 86.3076V81.0039C0.75 80.5897 0.414214 80.2539 0 80.2539V76.4492C0.388358 76.4492 0.70773 76.1536 0.746094 75.7754L0.75 75.6992V70.3945C0.75 69.9803 0.414214 69.6445 0 69.6445V65.8398C0.388383 65.8398 0.707764 65.5443 0.746094 65.166L0.75 65.0898V59.7852C0.75 59.3709 0.414214 59.0352 0 59.0352V55.2305C0.388409 55.2305 0.707799 54.9349 0.746094 54.5566L0.75 54.4805V49.1758C0.75 48.7616 0.414214 48.4258 0 48.4258V44.6211C0.388434 44.6211 0.707834 44.3256 0.746094 43.9473L0.75 43.8711V38.5664C0.75 38.1522 0.414214 37.8164 0 37.8164V34.0117C0.388459 34.0117 0.707867 33.7163 0.746094 33.3379L0.75 33.2617V27.957C0.75 27.5428 0.414214 27.207 0 27.207V23.4023C0.388485 23.4023 0.707901 23.1069 0.746094 22.7285L0.75 22.6523V20C0.75 19.3605 0.780961 18.7285 0.841797 18.1055L0.913086 17.4844C0.965722 17.0789 0.68373 16.7072 0.28125 16.6465C0.49133 15.4022 0.815531 14.1969 1.24414 13.042C1.59946 13.1814 1.99963 13.0315 2.17773 12.7012L2.20996 12.6318C2.85876 11.0673 3.70847 9.6061 4.72656 8.28125C4.97617 7.95644 4.91859 7.49261 4.59961 7.23828C5.39536 6.27907 6.27906 5.39536 7.23828 4.59961C7.49261 4.91859 7.95644 4.97617 8.28125 4.72656C9.44053 3.83571 10.7039 3.07404 12.0498 2.46289L12.6318 2.20996C13.0096 2.05303 13.1908 1.62336 13.042 1.24414C14.1969 0.815531 15.4022 0.491331 16.6465 0.28125C16.7034 0.658376 17.0333 0.929591 17.4082 0.918945L17.4844 0.913086C18.3072 0.805752 19.1472 0.75 20 0.75H22.5068C22.8948 0.749769 23.2143 0.454992 23.2529 0.0771484L23.2568 0H26.7695C26.7695 0.414214 27.1053 0.75 27.5195 0.75H32.5322C32.9203 0.749859 33.2397 0.455041 33.2783 0.0771484L33.2822 0H36.7949C36.7949 0.414214 37.1307 0.75 37.5449 0.75H42.5576C42.9457 0.74995 43.2651 0.455091 43.3037 0.0771484L43.3076 0H46.8203C46.8203 0.414212 47.1561 0.749997 47.5703 0.75H52.583C52.9972 0.75 53.333 0.414214 53.333 0H56.8457C56.8457 0.414152 57.1816 0.7499 57.5957 0.75H62.6084C63.0226 0.75 63.3584 0.414214 63.3584 0H66.8711C66.8711 0.414092 67.207 0.749803 67.6211 0.75H72.6338C73.048 0.75 73.3838 0.414214 73.3838 0H76.8975C76.8975 0.414214 77.2332 0.75 77.6475 0.75H82.6602C83.0482 0.749833 83.3677 0.455027 83.4062 0.0771484L83.4102 0H86.9229C86.9229 0.414214 87.2586 0.75 87.6729 0.75H92.6855C93.0737 0.749924 93.393 0.455076 93.4316 0.0771484L93.4355 0H96.9482C96.9482 0.414214 97.284 0.75 97.6982 0.75H102.711C103.125 0.75 103.461 0.414214 103.461 0H106.974C106.974 0.414174 107.309 0.749936 107.724 0.75H112.736C113.151 0.75 113.486 0.414214 113.486 0H116.999C116.999 0.41411 117.335 0.749832 117.749 0.75H122.762C123.176 0.75 123.512 0.414214 123.512 0H127.024C127.024 0.414054 127.36 0.749742 127.774 0.75H132.788C133.176 0.749793 133.496 0.455005 133.534 0.0771484L133.538 0H137.051C137.051 0.414214 137.387 0.75 137.801 0.75H142.813C143.202 0.749887 143.521 0.455056 143.56 0.0771484L143.563 0H147.076C147.076 0.414214 147.412 0.75 147.826 0.75H152.839C153.227 0.749981 153.546 0.455108 153.585 0.0771484L153.589 0H157.102C157.102 0.414196 157.437 0.749972 157.852 0.75H162.864C163.278 0.75 163.614 0.414214 163.614 0H167.127C167.127 0.414134 167.463 0.749871 167.877 0.75H172.89C173.304 0.75 173.64 0.414214 173.64 0H177.152C177.152 0.414074 177.488 0.749774 177.902 0.75H182.916C183.304 0.749763 183.624 0.454989 183.662 0.0771484L183.666 0H187.179C187.179 0.414214 187.514 0.75 187.929 0.75H192.941C193.329 0.749854 193.649 0.455038 193.688 0.0771484L193.691 0H197.204C197.204 0.414214 197.54 0.75 197.954 0.75H202.967C203.355 0.749948 203.674 0.455089 203.713 0.0771484L203.717 0H207.229C207.229 0.414214 207.565 0.75 207.979 0.75H212.992C213.406 0.75 213.742 0.414214 213.742 0H217.255C217.255 0.414156 217.591 0.749906 218.005 0.75H223.018C223.432 0.75 223.768 0.414214 223.768 0H227.28C227.28 0.414096 227.616 0.74981 228.03 0.75H233.043C233.457 0.75 233.793 0.414214 233.793 0H237.307C237.307 0.414214 237.642 0.75 238.057 0.75H243.069C243.457 0.749823 243.777 0.455021 243.815 0.0771484L243.819 0H247.332Z" fill="white" stroke="#6839CC" stroke-width="1.5" stroke-linecap="round" stroke-dasharray="5 5"/>
</svg>
