<svg width="40" height="40" viewBox="0 0 40 40" fill="none" xmlns="http://www.w3.org/2000/svg">
<path d="M37.0582 24.5355V15.6198C37.0582 14.9568 36.7948 14.3209 36.3259 13.852C35.8571 13.3832 35.2212 13.1198 34.5582 13.1198C33.8951 13.1198 33.2592 13.3832 32.7904 13.852C32.3216 14.3209 32.0582 14.9568 32.0582 15.6198V19.9912C31.5514 19.7042 30.9545 19.6203 30.3883 19.7567C29.8221 19.893 29.3288 20.2393 29.0082 20.7255L26.4682 24.5427L25.9282 24.7327C24.5795 25.2153 23.4486 26.1656 22.7409 27.4109C22.0332 28.6563 21.7955 30.1141 22.071 31.5198L22.2682 32.4969C22.1734 32.5596 22.0953 32.6444 22.0406 32.7439C21.9858 32.8435 21.9561 32.9548 21.9539 33.0684V37.1427C21.9539 37.3321 22.0291 37.5138 22.1631 37.6477C22.297 37.7817 22.4787 37.8569 22.6682 37.8569H31.2982C31.4876 37.8569 31.6693 37.7817 31.8032 37.6477C31.9372 37.5138 32.0125 37.3321 32.0125 37.1427V33.0769C32.011 32.9022 31.9449 32.7343 31.8267 32.6055L36.9325 24.9312C37.0126 24.8147 37.0564 24.677 37.0582 24.5355ZM30.5896 36.4284H23.3882V33.7912H30.5896V36.4284ZM30.2882 32.3527V32.3627H23.7167L23.4925 31.2427C23.2821 30.1748 23.462 29.0669 23.9995 28.1205C24.5369 27.1741 25.3962 26.452 26.421 26.0855L27.1853 25.8141C27.3312 25.7628 27.4566 25.6656 27.5425 25.5369L30.2125 21.5212C30.3436 21.3297 30.5443 21.1968 30.7718 21.1509C30.9994 21.105 31.2359 21.1497 31.431 21.2755C31.5297 21.3403 31.6144 21.4242 31.6799 21.5224C31.7454 21.6206 31.7905 21.731 31.8125 21.8469C31.8355 21.9619 31.8357 22.0802 31.8129 22.1952C31.7901 22.3102 31.7448 22.4195 31.6796 22.5169L31.5982 22.6398L30.7896 23.8541L28.6153 27.1212C28.5633 27.1993 28.5271 27.2868 28.5088 27.3788C28.4906 27.4709 28.4907 27.5656 28.5091 27.6576C28.5274 27.7496 28.5637 27.837 28.6159 27.915C28.6681 27.993 28.7351 28.0599 28.8132 28.1119C28.9708 28.2171 29.1637 28.2553 29.3495 28.2182C29.4415 28.1998 29.529 28.1635 29.6069 28.1113C29.6849 28.0592 29.7518 27.9921 29.8039 27.9141L32.3996 24.0155L32.871 23.3012L33.3639 22.5598C33.442 22.4426 33.4838 22.3049 33.4839 22.1641V15.6255C33.4832 15.4146 33.5451 15.2081 33.6619 15.0324C33.7786 14.8567 33.9449 14.7195 34.1396 14.6384C34.3019 14.57 34.4786 14.5429 34.6539 14.5594C34.8292 14.5759 34.9978 14.6355 35.1444 14.733C35.2911 14.8304 35.4114 14.9627 35.4946 15.1179C35.5777 15.2732 35.6212 15.4466 35.621 15.6227V24.3198L30.2882 32.3527ZM17.9282 31.5241C18.2037 30.1184 17.966 28.6606 17.2583 27.4152C16.5506 26.1698 15.4197 25.2196 14.071 24.7369L13.531 24.5469L11.0025 20.7298C10.6811 20.2424 10.1861 19.8957 9.61828 19.7601C9.05042 19.6245 8.45225 19.7102 7.94531 19.9998V15.6284C7.94531 15.3001 7.88065 14.975 7.75501 14.6717C7.62937 14.3684 7.44523 14.0928 7.21308 13.8606C6.98093 13.6285 6.70533 13.4443 6.40202 13.3187C6.09871 13.193 5.77362 13.1284 5.44531 13.1284C5.11701 13.1284 4.79192 13.193 4.4886 13.3187C4.18529 13.4443 3.90969 13.6285 3.67755 13.8606C3.4454 14.0928 3.26125 14.3684 3.13561 14.6717C3.00998 14.975 2.94531 15.3001 2.94531 15.6284V24.5427C2.94542 24.6835 2.98717 24.8212 3.06531 24.9384L8.17103 32.6127C8.0529 32.7414 7.98672 32.9094 7.98531 33.0841V37.1427C7.98531 37.3321 8.06057 37.5138 8.19452 37.6477C8.32848 37.7817 8.51016 37.8569 8.6996 37.8569H17.331C17.5205 37.8569 17.7021 37.7817 17.8361 37.6477C17.9701 37.5138 18.0453 37.3321 18.0453 37.1427V33.0769C18.0431 32.9634 18.0134 32.852 17.9586 32.7525C17.9039 32.653 17.8258 32.5682 17.731 32.5055L17.9282 31.5241ZM4.37531 24.3184V15.6227C4.37486 15.4461 4.41817 15.2721 4.50138 15.1164C4.58459 14.9606 4.7051 14.8279 4.85213 14.7301C4.99917 14.6324 5.16814 14.5725 5.34395 14.556C5.51976 14.5395 5.69693 14.5668 5.8596 14.6355C6.0546 14.7169 6.2211 14.8542 6.33807 15.0302C6.45503 15.2061 6.51721 15.4128 6.51674 15.6241V22.1627C6.51685 22.3035 6.5586 22.4412 6.63674 22.5584L10.1982 27.9098C10.2502 27.9878 10.3172 28.0549 10.3951 28.1071C10.4731 28.1592 10.5606 28.1955 10.6525 28.2139C10.7445 28.2323 10.8393 28.2324 10.9313 28.2141C11.0233 28.1959 11.1108 28.1597 11.1889 28.1077C11.2669 28.0556 11.334 27.9887 11.3861 27.9107C11.4383 27.8328 11.4746 27.7453 11.493 27.6533C11.5114 27.5613 11.5114 27.4666 11.4932 27.3745C11.475 27.2825 11.4388 27.195 11.3867 27.1169L9.21103 23.8569L8.32103 22.5198C8.25448 22.4218 8.20818 22.3116 8.18486 22.1955C8.16154 22.0794 8.16166 21.9598 8.18522 21.8437C8.20878 21.7277 8.25529 21.6175 8.32204 21.5197C8.38878 21.4218 8.47441 21.3383 8.57388 21.2741C8.771 21.1446 9.0108 21.0969 9.24246 21.1412C9.35814 21.1635 9.46823 21.2086 9.56633 21.2738C9.66443 21.3391 9.74858 21.4232 9.81388 21.5212L12.4853 25.5369C12.5712 25.6656 12.6965 25.7628 12.8425 25.8141L13.6082 26.0855C14.6327 26.4522 15.4917 27.1745 16.0288 28.1208C16.566 29.0672 16.7457 30.175 16.5353 31.2427L16.311 32.3627H9.7396V32.3527L4.37531 24.3184ZM16.6167 36.4284H9.41531V33.7912H16.6167V36.4284ZM29.2882 13.1741V6.55409C29.2884 6.41493 29.2479 6.27873 29.1718 6.16224C29.0957 6.04575 28.9871 5.95404 28.8596 5.89838L20.2882 2.20123C20.1981 2.1619 20.1008 2.1416 20.0025 2.1416C19.9041 2.1416 19.8069 2.1619 19.7167 2.20123L11.1453 5.89838C11.0178 5.95404 10.9093 6.04575 10.8331 6.16224C10.757 6.27873 10.7165 6.41493 10.7167 6.55409V13.1741C10.7148 14.5211 11.01 15.852 11.5814 17.0719C12.1528 18.2917 12.9863 19.3705 14.0225 20.2312L19.5453 24.8341C19.6737 24.941 19.8354 24.9995 20.0025 24.9995C20.1695 24.9995 20.3313 24.941 20.4596 24.8341L25.9825 20.2312C27.0186 19.3705 27.8521 18.2917 28.4235 17.0719C28.9949 15.852 29.2901 14.5211 29.2882 13.1741ZM25.0667 19.1427L20.0025 23.3569L14.9367 19.1427C14.061 18.4144 13.3568 17.5019 12.8743 16.4702C12.3918 15.4385 12.1429 14.313 12.1453 13.1741V7.03123L20.0025 3.63552L27.8596 7.02409V13.1741C27.8621 14.3132 27.6131 15.4388 27.1304 16.4706C26.6476 17.5023 25.9429 18.4147 25.0667 19.1427Z" fill="white"/>
<path d="M22.7198 9.49365L18.9341 13.2751L17.2912 11.6365C17.2248 11.5701 17.146 11.5174 17.0592 11.4815C16.9724 11.4455 16.8794 11.427 16.7855 11.427C16.6916 11.427 16.5986 11.4455 16.5118 11.4815C16.425 11.5174 16.3462 11.5701 16.2798 11.6365C16.2134 11.7029 16.1607 11.7818 16.1248 11.8685C16.0888 11.9553 16.0703 12.0483 16.0703 12.1422C16.0703 12.2361 16.0888 12.3291 16.1248 12.4159C16.1607 12.5027 16.2134 12.5815 16.2798 12.6479L18.4226 14.7908C18.489 14.8573 18.5678 14.9101 18.6546 14.9461C18.7414 14.9821 18.8344 15.0006 18.9284 15.0006C19.0223 15.0006 19.1153 14.9821 19.2021 14.9461C19.2889 14.9101 19.3677 14.8573 19.4341 14.7908L23.7198 10.5051C23.8539 10.371 23.9293 10.189 23.9293 9.99937C23.9293 9.80969 23.8539 9.62778 23.7198 9.49365C23.5857 9.35953 23.4038 9.28418 23.2141 9.28418C23.0244 9.28418 22.8425 9.35953 22.7084 9.49365H22.7198Z" fill="white"/>
</svg>
