<svg width="40" height="40" viewBox="0 0 40 40" fill="none" xmlns="http://www.w3.org/2000/svg">
<path d="M16.021 10.0173H11.4506C11.2808 10.0173 11.1181 9.94988 10.998 9.82985C10.878 9.70983 10.8106 9.54704 10.8106 9.3773C10.8106 9.20757 10.878 9.04478 10.998 8.92476C11.1181 8.80473 11.2808 8.7373 11.4506 8.7373H16.021C16.1907 8.7373 16.3535 8.80473 16.4735 8.92476C16.5935 9.04478 16.661 9.20757 16.661 9.3773C16.661 9.54704 16.5935 9.70983 16.4735 9.82985C16.3535 9.94988 16.1907 10.0173 16.021 10.0173ZM28.0226 34.5941H6.49018C5.65988 34.5928 4.86398 34.2623 4.27706 33.675C3.69014 33.0877 3.36012 32.2916 3.35938 31.4613V11.8701C3.36012 11.0398 3.69014 10.2437 4.27706 9.65641C4.86398 9.06911 5.65988 8.73858 6.49018 8.7373H8.98018C9.14991 8.7373 9.3127 8.80473 9.43272 8.92476C9.55275 9.04478 9.62018 9.20757 9.62018 9.3773C9.62018 9.54704 9.55275 9.70983 9.43272 9.82985C9.3127 9.94988 9.14991 10.0173 8.98018 10.0173H6.49018C5.99923 10.0182 5.52866 10.2137 5.18169 10.561C4.83472 10.9084 4.63969 11.3792 4.63938 11.8701V31.4613C4.63969 31.9523 4.83472 32.423 5.18169 32.7704C5.52866 33.1177 5.99923 33.3133 6.49018 33.3141H28.0226C28.2781 33.314 28.531 33.2615 28.7654 33.1597C28.9208 33.0915 29.097 33.0879 29.2552 33.1497C29.4133 33.2114 29.5404 33.3334 29.6086 33.4889C29.6767 33.6444 29.6803 33.8206 29.6186 33.9787C29.5569 34.1368 29.4348 34.2639 29.2794 34.3321C28.8828 34.5047 28.455 34.5939 28.0226 34.5941ZM30.5126 23.6417C30.3428 23.6417 30.1801 23.5743 30.06 23.4543C29.94 23.3342 29.8726 23.1714 29.8726 23.0017V11.8701C29.8724 11.3793 29.6775 10.9085 29.3307 10.5612C28.9838 10.2139 28.5134 10.0183 28.0226 10.0173H25.5326C25.3628 10.0173 25.2001 9.94988 25.08 9.82985C24.96 9.70983 24.8926 9.54704 24.8926 9.3773C24.8926 9.20757 24.96 9.04478 25.08 8.92476C25.2001 8.80473 25.3628 8.7373 25.5326 8.7373H28.023C28.8532 8.73868 29.6489 9.06927 30.2357 9.65657C30.8225 10.2439 31.1523 11.0399 31.153 11.8701V23.0017C31.153 23.0858 31.1364 23.169 31.1042 23.2467C31.072 23.3244 31.0249 23.395 30.9654 23.4544C30.9059 23.5138 30.8353 23.561 30.7576 23.5931C30.6799 23.6252 30.5967 23.6418 30.5126 23.6417ZM23.0618 10.0173H18.4914C18.3216 10.0173 18.1589 9.94988 18.0388 9.82985C17.9188 9.70983 17.8514 9.54704 17.8514 9.3773C17.8514 9.20757 17.9188 9.04478 18.0388 8.92476C18.1589 8.80473 18.3216 8.7373 18.4914 8.7373H23.0618C23.2315 8.7373 23.3943 8.80473 23.5143 8.92476C23.6343 9.04478 23.7018 9.20757 23.7018 9.3773C23.7018 9.54704 23.6343 9.70983 23.5143 9.82985C23.3943 9.94988 23.2315 10.0173 23.0618 10.0173Z" fill="white"/>
<path d="M9.29657 20.7453H7.61217C7.29129 20.7449 6.98366 20.6172 6.75676 20.3903C6.52986 20.1634 6.4022 19.8558 6.40177 19.5349V17.8481C6.40273 17.5275 6.53062 17.2204 6.75747 16.994C6.98431 16.7675 7.29163 16.6401 7.61217 16.6397H9.29657C9.6175 16.64 9.92518 16.7676 10.1521 16.9945C10.379 17.2215 10.5067 17.5292 10.507 17.8501V19.5369C10.5061 19.8574 10.3783 20.1646 10.1514 20.3911C9.92453 20.6176 9.61715 20.745 9.29657 20.7453ZM7.68177 19.4653H9.22697V17.9197H7.68177V19.4653ZM15.1646 20.7453H13.4794C13.1585 20.745 12.8508 20.6173 12.6238 20.3904C12.3969 20.1635 12.2693 19.8558 12.269 19.5349V17.8481C12.2698 17.5275 12.3977 17.2203 12.6245 16.9938C12.8514 16.7673 13.1588 16.64 13.4794 16.6397H15.1638C15.4847 16.6401 15.7923 16.7678 16.0192 16.9947C16.2461 17.2216 16.3738 17.5292 16.3742 17.8501V19.5369C16.3732 19.8573 16.2454 20.1643 16.0188 20.3907C15.7921 20.6172 15.485 20.7446 15.1646 20.7453ZM13.5498 19.4653H15.095V17.9197H13.5498V19.4653ZM21.0322 20.7453H19.3478C19.0269 20.7449 18.7193 20.6172 18.4924 20.3903C18.2655 20.1634 18.1378 19.8558 18.1374 19.5349V17.8481C18.1383 17.5275 18.2662 17.2204 18.4931 16.994C18.7199 16.7675 19.0272 16.6401 19.3478 16.6397H21.0322C21.3531 16.64 21.6608 16.7676 21.8877 16.9945C22.1146 17.2215 22.2423 17.5292 22.2426 17.8501V19.5369C22.2417 19.8574 22.1139 20.1646 21.887 20.3911C21.6601 20.6176 21.3527 20.745 21.0322 20.7453ZM19.4174 19.4653H20.9626V17.9197H19.4174V19.4653ZM26.9002 20.7453H25.2158C24.8949 20.745 24.5872 20.6173 24.3602 20.3904C24.1333 20.1635 24.0057 19.8558 24.0054 19.5349V17.8481C24.0062 17.5275 24.1341 17.2203 24.3609 16.9938C24.5878 16.7673 24.8952 16.64 25.2158 16.6397H26.9002C27.2211 16.6401 27.5287 16.7678 27.7556 16.9947C27.9825 17.2216 28.1102 17.5292 28.1106 17.8501V19.5369C28.1096 19.8574 27.9817 20.1645 27.7549 20.391C27.528 20.6175 27.2207 20.7449 26.9002 20.7453ZM25.2854 19.4653H26.8306V17.9197H25.2854V19.4653ZM9.29657 26.3041H7.61217C7.29129 26.3036 6.98366 26.176 6.75676 25.9491C6.52986 25.7222 6.4022 25.4146 6.40177 25.0937V23.4069C6.4022 23.086 6.52986 22.7784 6.75676 22.5515C6.98366 22.3246 7.29129 22.1969 7.61217 22.1965H9.29657C9.6175 22.1968 9.92518 22.3244 10.1521 22.5513C10.379 22.7783 10.5067 23.086 10.507 23.4069V25.0937C10.5067 25.4146 10.379 25.7223 10.1521 25.9492C9.92518 26.1761 9.6175 26.3038 9.29657 26.3041ZM7.68177 25.0241H9.22697V23.4765H7.68177V25.0241ZM15.1646 26.3041H13.4794C13.1585 26.3038 12.8508 26.1761 12.6238 25.9492C12.3969 25.7223 12.2693 25.4146 12.269 25.0937V23.4069C12.2693 23.086 12.3969 22.7783 12.6238 22.5513C12.8508 22.3244 13.1585 22.1968 13.4794 22.1965H15.1638C15.4847 22.1969 15.7923 22.3246 16.0192 22.5515C16.2461 22.7784 16.3738 23.086 16.3742 23.4069V25.0937C16.3738 25.4144 16.2462 25.7219 16.0195 25.9488C15.7927 26.1757 15.4853 26.3034 15.1646 26.3041ZM13.5498 25.0241H15.095V23.4765H13.5498V25.0241ZM21.0322 26.3041H19.3478C19.0269 26.3036 18.7193 26.176 18.4924 25.9491C18.2655 25.7222 18.1378 25.4146 18.1374 25.0937V23.4069C18.1378 23.086 18.2655 22.7784 18.4924 22.5515C18.7193 22.3246 19.0269 22.1969 19.3478 22.1965H21.0322C21.3531 22.1968 21.6608 22.3244 21.8877 22.5513C22.1146 22.7783 22.2423 23.086 22.2426 23.4069V25.0937C22.2423 25.4146 22.1146 25.7223 21.8877 25.9492C21.6608 26.1761 21.3531 26.3038 21.0322 26.3041ZM19.4174 25.0241H20.9626V23.4765H19.4174V25.0241ZM9.29657 31.8629H7.61217C7.29129 31.8625 6.98366 31.7348 6.75676 31.5079C6.52986 31.281 6.4022 30.9734 6.40177 30.6525V28.9657C6.4022 28.6448 6.52986 28.3372 6.75676 28.1103C6.98366 27.8834 7.29129 27.7557 7.61217 27.7553H9.29657C9.6175 27.7556 9.92518 27.8832 10.1521 28.1101C10.379 28.3371 10.5067 28.6448 10.507 28.9657V30.6525C10.5067 30.9734 10.379 31.2811 10.1521 31.508C9.92518 31.7349 9.6175 31.8626 9.29657 31.8629ZM7.68177 30.5829H9.22697V29.0353H7.68177V30.5829ZM15.1646 31.8629H13.4794C13.1585 31.8626 12.8508 31.7349 12.6238 31.508C12.3969 31.2811 12.2693 30.9734 12.269 30.6525V28.9657C12.2693 28.6448 12.3969 28.3371 12.6238 28.1101C12.8508 27.8832 13.1585 27.7556 13.4794 27.7553H15.1638C15.4847 27.7557 15.7923 27.8834 16.0192 28.1103C16.2461 28.3372 16.3738 28.6448 16.3742 28.9657V30.6525C16.3738 30.9732 16.2462 31.2807 16.0195 31.5076C15.7927 31.7345 15.4853 31.8622 15.1646 31.8629ZM13.5498 30.5829H15.095V29.0353H13.5498V30.5829ZM21.0322 31.8629H19.3478C19.0269 31.8625 18.7193 31.7348 18.4924 31.5079C18.2655 31.281 18.1378 30.9734 18.1374 30.6525V28.9657C18.1378 28.6448 18.2655 28.3372 18.4924 28.1103C18.7193 27.8834 19.0269 27.7557 19.3478 27.7553H21.0322C21.3531 27.7556 21.6608 27.8832 21.8877 28.1101C22.1146 28.3371 22.2423 28.6448 22.2426 28.9657V30.6525C22.2423 30.9734 22.1146 31.2811 21.8877 31.508C21.6608 31.7349 21.3531 31.8626 21.0322 31.8629ZM19.4174 30.5829H20.9626V29.0353H19.4174V30.5829ZM30.513 15.1865H3.99937C3.82964 15.1865 3.66685 15.119 3.54683 14.999C3.4268 14.879 3.35938 14.7162 3.35938 14.5465C3.35938 14.3767 3.4268 14.2139 3.54683 14.0939C3.66685 13.9739 3.82964 13.9065 3.99937 13.9065H30.513C30.6827 13.9065 30.8455 13.9739 30.9655 14.0939C31.0855 14.2139 31.153 14.3767 31.153 14.5465C31.153 14.7162 31.0855 14.879 30.9655 14.999C30.8455 15.119 30.6827 15.1865 30.513 15.1865ZM10.2394 13.3117H10.1906C9.69984 13.311 9.22939 13.1158 8.88242 12.7687C8.53546 12.4217 8.3403 11.9512 8.33977 11.4605V7.25647C8.3403 6.76574 8.53546 6.29524 8.88242 5.9482C9.22939 5.60116 9.69984 5.40591 10.1906 5.40527H10.2394C10.7301 5.40591 11.2006 5.60116 11.5475 5.9482C11.8945 6.29524 12.0896 6.76574 12.0902 7.25647V11.4605C12.0896 11.9512 11.8945 12.4217 11.5475 12.7687C11.2006 13.1158 10.7301 13.311 10.2394 13.3117ZM10.1906 6.68527C10.0392 6.68549 9.89406 6.74575 9.78705 6.85283C9.68004 6.95992 9.61988 7.10508 9.61977 7.25647V11.4605C9.61988 11.6119 9.68004 11.757 9.78705 11.8641C9.89406 11.9712 10.0392 12.0315 10.1906 12.0317H10.2394C10.3908 12.0315 10.5359 11.9712 10.6429 11.8641C10.7499 11.757 10.8101 11.6119 10.8102 11.4605V7.25647C10.8101 7.10508 10.7499 6.95992 10.6429 6.85283C10.5359 6.74575 10.3908 6.68549 10.2394 6.68527H10.1906ZM17.2794 13.3117H17.231C16.7402 13.3111 16.2696 13.1159 15.9226 12.7689C15.5755 12.4218 15.3803 11.9513 15.3798 11.4605V7.25647C15.3803 6.76567 15.5755 6.29511 15.9226 5.94806C16.2696 5.60101 16.7402 5.4058 17.231 5.40527H17.2794C17.7701 5.40591 18.2406 5.60116 18.5875 5.9482C18.9345 6.29524 19.1296 6.76574 19.1302 7.25647V11.4605C19.1296 11.9512 18.9345 12.4217 18.5875 12.7687C18.2406 13.1158 17.7701 13.311 17.2794 13.3117ZM17.231 6.68527C17.0795 6.68538 16.9343 6.74559 16.8272 6.85269C16.7201 6.95979 16.6599 7.10501 16.6598 7.25647V11.4605C16.6599 11.6119 16.7201 11.7572 16.8272 11.8643C16.9343 11.9714 17.0795 12.0316 17.231 12.0317H17.2794C17.4308 12.0315 17.5759 11.9712 17.6829 11.8641C17.7899 11.757 17.8501 11.6119 17.8502 11.4605V7.25647C17.8501 7.10508 17.7899 6.95992 17.6829 6.85283C17.5759 6.74575 17.4308 6.68549 17.2794 6.68527H17.231ZM24.3214 13.3117H24.273C23.7822 13.3111 23.3116 13.1159 22.9646 12.7689C22.6175 12.4218 22.4223 11.9513 22.4218 11.4605V7.25647C22.4223 6.76567 22.6175 6.29511 22.9646 5.94806C23.3116 5.60101 23.7822 5.4058 24.273 5.40527H24.3214C24.8122 5.4058 25.2827 5.60101 25.6298 5.94806C25.9768 6.29511 26.172 6.76567 26.1726 7.25647V11.4605C26.172 11.9513 25.9768 12.4218 25.6298 12.7689C25.2827 13.1159 24.8122 13.3111 24.3214 13.3117ZM24.273 6.68527C24.1215 6.68538 23.9763 6.74559 23.8692 6.85269C23.7621 6.95979 23.7019 7.10501 23.7018 7.25647V11.4605C23.702 11.6119 23.7622 11.7571 23.8693 11.8641C23.9764 11.9712 24.1215 12.0315 24.273 12.0317H24.3214C24.4728 12.0315 24.618 11.9712 24.725 11.8641C24.8321 11.7571 24.8924 11.6119 24.8926 11.4605V7.25647C24.8925 7.10501 24.8323 6.95979 24.7252 6.85269C24.6181 6.74559 24.4728 6.68538 24.3214 6.68527H24.273ZM30.5234 34.5941C27.1506 34.5941 24.407 31.8505 24.407 28.4781C24.407 25.1057 27.1506 22.3617 30.5234 22.3617C33.8962 22.3617 36.6394 25.1057 36.6394 28.4797C36.6394 31.8537 33.8958 34.5941 30.5234 34.5941ZM30.5234 23.6417C29.5669 23.6416 28.6318 23.9251 27.8365 24.4564C27.0411 24.9878 26.4212 25.743 26.055 26.6266C25.6888 27.5103 25.5929 28.4826 25.7793 29.4208C25.9658 30.3589 26.4262 31.2207 27.1024 31.8972C27.7786 32.5737 28.6402 33.0345 29.5783 33.2213C30.5164 33.4081 31.4888 33.3126 32.3726 32.9468C33.2564 32.581 34.0118 31.9614 34.5435 31.1662C35.0751 30.3711 35.3591 29.4362 35.3594 28.4797C35.3588 27.1971 34.8492 25.9671 33.9425 25.06C33.0357 24.1529 31.806 23.6427 30.5234 23.6417Z" fill="white"/>
<path d="M29.5231 31.1201C29.439 31.1201 29.3557 31.1036 29.278 31.0714C29.2003 31.0392 29.1297 30.992 29.0703 30.9325L27.0703 28.9325C26.9502 28.8125 26.8828 28.6497 26.8828 28.4799C26.8828 28.3102 26.9502 28.1474 27.0703 28.0273C27.1903 27.9073 27.3531 27.8398 27.5229 27.8398C27.6926 27.8398 27.8554 27.9073 27.9755 28.0273L29.5231 29.5749L33.0703 26.0273C33.1297 25.9679 33.2003 25.9207 33.2779 25.8886C33.3556 25.8564 33.4388 25.8398 33.5229 25.8398C33.6069 25.8398 33.6902 25.8564 33.7678 25.8886C33.8455 25.9207 33.916 25.9679 33.9755 26.0273C34.0349 26.0868 34.0821 26.1573 34.1142 26.235C34.1464 26.3126 34.163 26.3959 34.163 26.4799C34.163 26.564 34.1464 26.6472 34.1142 26.7249C34.0821 26.8025 34.0349 26.8731 33.9755 26.9325L29.9755 30.9325C29.8555 31.0526 29.6928 31.12 29.5231 31.1201Z" fill="white"/>
</svg>
