<svg width="40" height="40" viewBox="0 0 40 40" fill="none" xmlns="http://www.w3.org/2000/svg">
<g clip-path="url(#clip0_23497_852)">
<path d="M34.177 27.6167C31.9186 32.161 27.5392 35.4652 22.334 36.234M5.85156 13.5104C8.44858 8.32652 13.8102 4.76782 20.003 4.76782C26.1958 4.76782 31.5574 8.32644 34.1544 13.5104" stroke="white" stroke-width="1.5" stroke-miterlimit="10"/>
<path d="M3.13281 13.8473C5.80904 7.15317 12.3539 2.42407 20.0034 2.42407C27.653 2.42407 34.1978 7.15317 36.8741 13.8473" stroke="white" stroke-width="1.5" stroke-miterlimit="10"/>
<path d="M5.93933 17.0711V13.5559H4.64293C2.40227 13.5559 0.585938 15.3723 0.585938 17.6129V23.5597C0.585938 25.8003 2.40235 27.6167 4.64293 27.6167H5.93933V18.2428M35.3572 27.6167H34.0608V13.5559H35.3572C37.5979 13.5559 39.4142 15.3723 39.4142 17.6129V23.5597C39.4142 25.8002 37.5978 27.6167 35.3572 27.6167ZM21.1718 37.5763H18.8283C18.1812 37.5763 17.6566 37.0517 17.6566 36.4046C17.6566 35.7575 18.1812 35.2329 18.8283 35.2329H21.1718C21.8189 35.2329 22.3435 35.7575 22.3435 36.4046C22.3435 37.0517 21.8189 37.5763 21.1718 37.5763Z" stroke="white" stroke-width="1.5" stroke-miterlimit="10"/>
<path d="M19.9985 31.717C26.4698 31.717 31.7158 26.471 31.7158 19.9998C31.7158 13.5285 26.4698 8.28247 19.9985 8.28247C13.5273 8.28247 8.28125 13.5285 8.28125 19.9998C8.28125 26.471 13.5273 31.717 19.9985 31.717Z" stroke="white" stroke-width="1.5" stroke-miterlimit="10"/>
<path d="M14.756 22.3353H11.8125V21.4762L13.7787 19.7229C13.9036 19.6114 14.0036 19.4748 14.0721 19.322C14.1406 19.1692 14.176 19.0037 14.176 18.8362C14.176 18.1802 13.6441 17.6483 12.9881 17.6483C12.3388 17.6483 11.8126 18.1746 11.8126 18.8238V19.0993M18.8322 17.0679V22.9249M16.5019 17.0679V20.0047H18.8322M25.2675 17.6483H28.206V18.1485L26.5062 22.7314M23.5191 16.5227L21.1756 23.4775" stroke="white" stroke-width="1.5" stroke-miterlimit="10"/>
<path d="M14.9981 12.6565C13.9839 13.2979 13.1016 14.1271 12.3984 15.0995" stroke="white" stroke-width="1.5" stroke-miterlimit="10" stroke-dasharray="15 15"/>
</g>
<defs>
<clipPath id="clip0_23497_852">
<rect width="40" height="40" fill="white"/>
</clipPath>
</defs>
</svg>
