<svg width="819" height="882" viewBox="0 0 819 882" fill="none" xmlns="http://www.w3.org/2000/svg">
<path d="M358.015 859.199C319.255 887.594 263.806 888.949 221.511 866.159C179.216 843.369 150.526 798.836 142.798 751.429C135.071 704.021 147.176 654.499 171.961 613.354C191.382 581.078 219.641 548.351 213.373 511.23C209.221 486.551 190.047 466.903 168.837 453.598C147.628 440.294 123.768 431.753 102.209 419.002C39.5881 382.005 1.17708 309.631 0.0261898 236.949C-1.45353 142.771 59.9136 50.7078 147.484 15.7837C235.055 -19.1405 343.012 5.37415 406.866 74.6681C443.366 114.273 468.213 168.025 517.105 190.651C561.189 211.059 612.609 200.301 661.131 202.949C763.417 208.554 858.571 282.098 889.706 379.582C920.842 477.066 885.904 592.083 805.773 655.834C745.228 704.001 667.502 721.083 592.18 729.172C541.952 734.552 472.693 723.3 434.899 763.789C406.764 793.949 392.234 834.13 358.015 859.199Z" fill="#FF791F"/>
</svg>
