<svg width="60" height="60" viewBox="0 0 60 60" fill="none" xmlns="http://www.w3.org/2000/svg">
<path d="M21.5009 21.3312C23.2217 21.3312 24.6217 19.9312 24.6217 18.2104C24.6217 16.4896 23.2217 15.09 21.5009 15.09C19.7801 15.09 18.3805 16.4896 18.3805 18.2104C18.3805 19.9312 19.7801 21.3312 21.5009 21.3312ZM21.5009 16.6902C22.3395 16.6902 23.0217 17.3722 23.0217 18.2106C23.0217 19.0492 22.3397 19.7314 21.5009 19.7314C20.6627 19.7314 19.9805 19.0494 19.9805 18.2106C19.9805 17.3722 20.6625 16.6902 21.5009 16.6902ZM39.2929 21.3312C41.0137 21.3312 42.4133 19.9312 42.4133 18.2104C42.4133 16.4896 41.0137 15.09 39.2929 15.09C37.5721 15.09 36.1721 16.4896 36.1721 18.2104C36.1721 19.9312 37.5723 21.3312 39.2929 21.3312ZM39.2929 16.6902C40.1311 16.6902 40.8133 17.3722 40.8133 18.2106C40.8133 19.0492 40.1313 19.7314 39.2929 19.7314C38.4543 19.7314 37.7721 19.0494 37.7721 18.2106C37.7723 17.3722 38.4543 16.6902 39.2929 16.6902ZM33.8777 15.8852C35.5813 15.8852 36.9671 14.4992 36.9671 12.7958C36.9671 11.0926 35.5811 9.70684 33.8777 9.70684C32.1745 9.70684 30.7887 11.0928 30.7887 12.7958C30.7887 14.4992 32.1747 15.8852 33.8777 15.8852ZM33.8777 11.3066C34.6987 11.3066 35.3671 11.9746 35.3671 12.7956C35.3671 13.6166 34.6987 14.285 33.8777 14.285C33.0567 14.285 32.3887 13.6166 32.3887 12.7956C32.3887 11.9746 33.0567 11.3066 33.8777 11.3066ZM26.9161 15.8852C28.6193 15.8852 30.0051 14.4992 30.0051 12.7958C30.0051 11.0926 28.6191 9.70684 26.9161 9.70684C25.2125 9.70684 23.8267 11.0928 23.8267 12.7958C23.8265 14.4992 25.2125 15.8852 26.9161 15.8852ZM26.9161 11.3066C27.7371 11.3066 28.4051 11.9746 28.4051 12.7956C28.4051 13.6166 27.7371 14.285 26.9161 14.285C26.0951 14.285 25.4267 13.6166 25.4267 12.7956C25.4267 11.9746 26.0949 11.3066 26.9161 11.3066ZM10.7969 9.36124C11.0091 9.36124 11.2125 9.27696 11.3626 9.12693C11.5126 8.9769 11.5969 8.77342 11.5969 8.56124V6.96124C11.5969 6.74907 11.5126 6.54559 11.3626 6.39556C11.2125 6.24553 11.0091 6.16124 10.7969 6.16124C10.5847 6.16124 10.3812 6.24553 10.2312 6.39556C10.0812 6.54559 9.99688 6.74907 9.99688 6.96124V8.56124C9.99688 8.77342 10.0812 8.9769 10.2312 9.12693C10.3812 9.27696 10.5847 9.36124 10.7969 9.36124ZM10.7969 10.9612C10.5847 10.9612 10.3812 11.0455 10.2312 11.1956C10.0812 11.3456 9.99688 11.5491 9.99688 11.7612V13.3612C9.99688 13.5734 10.0812 13.7769 10.2312 13.9269C10.3812 14.077 10.5847 14.1612 10.7969 14.1612C11.0091 14.1612 11.2125 14.077 11.3626 13.9269C11.5126 13.7769 11.5969 13.5734 11.5969 13.3612V11.7612C11.5969 11.5491 11.5126 11.3456 11.3626 11.1956C11.2125 11.0455 11.0091 10.9612 10.7969 10.9612ZM7.59688 10.9612H9.19688C9.40905 10.9612 9.61254 10.877 9.76257 10.7269C9.91259 10.5769 9.99688 10.3734 9.99688 10.1612C9.99688 9.94907 9.91259 9.74559 9.76257 9.59556C9.61254 9.44553 9.40905 9.36124 9.19688 9.36124H7.59688C7.38471 9.36124 7.18122 9.44553 7.03119 9.59556C6.88117 9.74559 6.79688 9.94907 6.79688 10.1612C6.79688 10.3734 6.88117 10.5769 7.03119 10.7269C7.18122 10.877 7.38471 10.9612 7.59688 10.9612ZM12.3969 10.9612H13.9969C14.2091 10.9612 14.4125 10.877 14.5626 10.7269C14.7126 10.5769 14.7969 10.3734 14.7969 10.1612C14.7969 9.94907 14.7126 9.74559 14.5626 9.59556C14.4125 9.44553 14.2091 9.36124 13.9969 9.36124H12.3969C12.1847 9.36124 11.9812 9.44553 11.8312 9.59556C11.6812 9.74559 11.5969 9.94907 11.5969 10.1612C11.5969 10.3734 11.6812 10.5769 11.8312 10.7269C11.9812 10.877 12.1847 10.9612 12.3969 10.9612ZM21.2073 7.55024C21.4341 7.55024 21.6516 7.46014 21.812 7.29976C21.9724 7.13938 22.0625 6.92186 22.0625 6.69504C22.0625 6.46823 21.9724 6.25071 21.812 6.09033C21.6516 5.92994 21.4341 5.83984 21.2073 5.83984C20.9805 5.83984 20.7629 5.92994 20.6026 6.09033C20.4422 6.25071 20.3521 6.46823 20.3521 6.69504C20.3521 6.92186 20.4422 7.13938 20.6026 7.29976C20.7629 7.46014 20.9805 7.55024 21.2073 7.55024ZM38.6813 26.064C38.6813 22.8448 32.9177 17.9132 30.8985 16.4394C30.7616 16.3393 30.5965 16.2854 30.427 16.2854C30.2574 16.2854 30.0923 16.3393 29.9555 16.4394C27.9363 17.9132 22.1727 22.8448 22.1727 26.064C22.1727 29.2054 24.5379 31.7612 27.4453 31.7612C28.5161 31.7612 29.5519 31.4092 30.4269 30.758C31.3019 31.4092 32.3379 31.7612 33.4085 31.7612C36.3161 31.7612 38.6813 29.2054 38.6813 26.064ZM30.4269 28.907C30.2172 28.907 30.0159 28.9893 29.8663 29.1362C29.1929 29.7972 28.3331 30.1612 27.4453 30.1612C25.4203 30.1612 23.7727 28.3234 23.7727 26.064C23.7727 24.1546 27.5527 20.2944 30.4269 18.085C33.3011 20.2944 37.0811 24.1546 37.0811 26.064C37.0811 28.3234 35.4335 30.1612 33.4085 30.1612C32.5207 30.1612 31.6609 29.7972 30.9875 29.1362C30.8379 28.9892 30.6366 28.9069 30.4269 28.907ZM51.7461 18.3628C51.3012 18.0722 50.7905 17.8979 50.2607 17.8559C49.731 17.814 49.1992 17.9057 48.7141 18.1226L47.7883 18.534C46.7701 18.9848 45.88 19.6819 45.1983 20.5624C44.5166 21.4429 44.0647 22.4792 43.8833 23.5778L42.8595 29.7188L34.1243 36.4188C32.5723 37.5478 31.6453 39.3676 31.6453 41.2872V53.3614C31.6453 53.5736 31.7296 53.7771 31.8796 53.9271C32.0296 54.0772 32.2331 54.1614 32.4453 54.1614H40.3969C40.6091 54.1614 40.8125 54.0772 40.9626 53.9271C41.1126 53.7771 41.1969 53.5736 41.1969 53.3614C41.1969 50.6052 42.5101 47.9684 44.7101 46.3082L46.9347 44.6286C50.8559 41.8616 53.1969 37.3448 53.1969 32.5456V21.0358C53.1978 20.5045 53.0655 19.9814 52.8121 19.5145C52.5586 19.0475 52.1921 18.6515 51.7461 18.3628ZM45.4613 23.8406C45.6867 22.4868 46.4405 21.3088 47.5301 20.5266L46.9185 27.8682C46.2041 27.661 45.4089 27.7712 44.7297 28.2294L45.4613 23.8406ZM51.5969 32.5456C51.5969 36.8252 49.5091 40.8538 45.9915 43.3362L43.7461 45.0308C41.3617 46.8304 39.8593 49.6016 39.6281 52.5612H33.2453V41.287C33.2453 39.8776 33.9257 38.5412 35.0817 37.7002L44.0981 30.785L45.6493 29.5366C46.0473 29.2592 46.5641 29.3148 46.9051 29.6706C47.2851 30.0682 47.3219 30.7042 46.9911 31.1498L40.3215 40.1178C40.1949 40.2881 40.1411 40.5016 40.1719 40.7115C40.2028 40.9214 40.3157 41.1104 40.4859 41.237C40.5701 41.2999 40.6659 41.3455 40.7678 41.3713C40.8697 41.397 40.9756 41.4024 41.0796 41.3872C41.1836 41.3719 41.2835 41.3362 41.3737 41.2823C41.4639 41.2283 41.5425 41.1571 41.6051 41.0726L48.2751 32.1046C48.9407 31.209 48.9733 29.9922 48.4249 29.0594L49.2085 19.654L49.3641 19.5848C49.8649 19.363 50.4153 19.407 50.8743 19.7044C51.3337 20.0028 51.5969 20.4884 51.5969 21.036V32.5456ZM25.8867 36.4316L17.1293 29.6898L16.1105 23.5776C15.9291 22.479 15.4771 21.4427 14.7954 20.5622C14.1137 19.6817 13.2237 18.9847 12.2055 18.5338L11.2797 18.1228C10.7946 17.9059 10.2628 17.8141 9.73309 17.856C9.20336 17.8979 8.69261 18.0721 8.24768 18.3626C7.80165 18.6514 7.43515 19.0474 7.18169 19.5144C6.92824 19.9814 6.79594 20.5045 6.79688 21.0358V32.5456C6.79688 37.3448 9.13788 41.862 13.0383 44.6136L15.2837 46.3082C17.4837 47.9684 18.7969 50.605 18.7969 53.3612C18.7969 53.5734 18.8812 53.7769 19.0312 53.9269C19.1812 54.077 19.3847 54.1612 19.5969 54.1612H27.5485C27.7607 54.1612 27.9641 54.077 28.1142 53.9269C28.2642 53.7769 28.3485 53.5734 28.3485 53.3612V41.287C28.3485 39.3676 27.4215 37.5476 25.8867 36.4316ZM14.5325 23.841L15.2633 28.227L15.2601 28.2242C14.9462 28.0041 14.5867 27.8577 14.2084 27.796C13.83 27.7343 13.4426 27.7589 13.0751 27.8678L12.4633 20.5266C13.5531 21.3086 14.3069 22.4868 14.5325 23.841ZM26.7485 52.5612H20.3657C20.1345 49.6014 18.6321 46.8304 16.2477 45.0308L13.9817 43.3214C10.4847 40.8538 8.39688 36.8258 8.39688 32.5456V21.0358C8.39688 20.4882 8.66008 20.0026 9.11948 19.7042C9.57888 19.4062 10.1301 19.362 10.6297 19.585L10.7851 19.654L11.5689 29.0596C11.0205 29.9922 11.0531 31.209 11.7191 32.1044L18.3887 41.0724C18.5153 41.2426 18.7044 41.3555 18.9143 41.3863C19.1241 41.4171 19.3376 41.3634 19.5079 41.2368C19.5922 41.1742 19.6633 41.0955 19.7172 41.0053C19.7711 40.9152 19.8067 40.8152 19.822 40.7113C19.8373 40.6074 19.8319 40.5014 19.8062 40.3996C19.7805 40.2977 19.735 40.2019 19.6723 40.1176L13.0031 31.1496C12.6719 30.7038 12.7085 30.068 13.0891 29.6704C13.4301 29.3138 13.9469 29.259 14.3075 29.5086L24.9283 37.7122C25.4913 38.123 25.9496 38.6608 26.2659 39.2819C26.5822 39.903 26.7476 40.5899 26.7487 41.2868V52.5612H26.7485Z" fill="#6839CC"/>
</svg>
