<svg width="60" height="60" viewBox="0 0 60 60" fill="none" xmlns="http://www.w3.org/2000/svg">
<path d="M29.0625 23.175V23.4375C29.0625 23.9531 28.6406 24.375 28.125 24.375C27.6094 24.375 27.1875 24.7969 27.1875 25.3125C27.1875 25.8281 27.6094 26.25 28.125 26.25C28.8469 26.25 29.5031 25.9687 30 25.5187C30.4969 25.9687 31.1531 26.25 31.875 26.25C32.3906 26.25 32.8125 25.8281 32.8125 25.3125C32.8125 24.7969 32.3906 24.375 31.875 24.375C31.3594 24.375 30.9375 23.9531 30.9375 23.4375V23.175C31.2209 23.0114 31.4565 22.7765 31.621 22.4936C31.7855 22.2107 31.873 21.8897 31.875 21.5625C31.875 21 31.6125 20.7094 31.3875 20.5688C30.9 20.25 30.4125 20.4563 30.1781 20.5594C30.1125 20.5875 30.0187 20.625 30.0094 20.6344C29.9719 20.6344 29.8781 20.5875 29.8125 20.5594C29.5781 20.4563 29.0906 20.25 28.6031 20.5688C28.3781 20.7188 28.1156 21.0094 28.1156 21.5625C28.1176 21.8897 28.2052 22.2107 28.3696 22.4936C28.5341 22.7765 28.7697 23.0114 29.0531 23.175H29.0625ZM23.4375 17.8125C23.9531 17.8125 24.375 17.3906 24.375 16.875C24.375 16.3594 24.7969 15.9375 25.3125 15.9375C25.8281 15.9375 26.25 16.3594 26.25 16.875C26.25 17.3906 26.6719 17.8125 27.1875 17.8125C27.7031 17.8125 28.125 17.3906 28.125 16.875C28.125 15.3281 26.8594 14.0625 25.3125 14.0625C23.7656 14.0625 22.5 15.3281 22.5 16.875C22.5 17.3906 22.9219 17.8125 23.4375 17.8125ZM32.8125 17.8125C33.3281 17.8125 33.75 17.3906 33.75 16.875C33.75 16.3594 34.1719 15.9375 34.6875 15.9375C35.2031 15.9375 35.625 16.3594 35.625 16.875C35.625 17.3906 36.0469 17.8125 36.5625 17.8125C37.0781 17.8125 37.5 17.3906 37.5 16.875C37.5 15.3281 36.2344 14.0625 34.6875 14.0625C33.1406 14.0625 31.875 15.3281 31.875 16.875C31.875 17.3906 32.2969 17.8125 32.8125 17.8125Z" fill="#6839CC"/>
<path d="M55.3125 41.25H48.75C48.75 39.1406 46.9875 37.4156 44.8781 37.5C44.5875 36.3563 43.7531 35.4281 42.675 34.9781C41.8003 32.7745 40.5329 30.7479 38.9344 28.9969C39.975 28.2563 40.9219 27.3938 41.7375 26.4375C43.5 27.1125 45.2719 28.7906 45.2906 28.8C45.4688 28.9781 45.7031 29.0625 45.9375 29.0625C46.1719 29.0625 46.4344 28.9688 46.6125 28.7719C46.9688 28.3969 46.9594 27.8063 46.5844 27.45C46.5094 27.375 44.8031 25.7719 42.8719 24.8906C43.3312 24.1781 43.7156 23.4281 44.0344 22.6406C45.9094 23.2594 47.25 24.1875 47.2687 24.1969C47.4375 24.3188 47.625 24.375 47.8125 24.375C48.1031 24.375 48.3938 24.2344 48.5719 23.9813C48.6436 23.8816 48.6948 23.7688 48.7228 23.6493C48.7508 23.5298 48.7548 23.406 48.7348 23.2849C48.7148 23.1638 48.671 23.0479 48.6061 22.9437C48.5411 22.8396 48.4562 22.7494 48.3563 22.6781C48.2812 22.6219 46.7719 21.5625 44.6156 20.8594C44.8594 19.875 45 18.8531 45 17.8125C45 17.5031 44.85 17.2219 44.5969 17.0438C44.3063 16.8375 43.8187 16.0125 43.3594 15.2156C43.0125 14.6156 42.6 13.9219 42.1125 13.1906C43.2094 10.6687 43.5938 7.9125 43.2 5.18438L43.1156 4.56562C43.0781 4.3125 42.9469 4.07812 42.7406 3.92813C42.5438 3.77813 42.2812 3.72188 42.0281 3.75938L41.0344 3.92813C38.5781 4.34063 36.2719 5.50312 34.4625 7.2C34.2188 7.125 33.9656 7.05937 33.7031 6.99375C33.7219 6.85313 33.75 6.7125 33.75 6.5625C33.75 4.45312 31.9688 2.7375 29.8781 2.8125C29.4656 1.2 27.9937 0 26.25 0C24.8813 0 23.6438 0.75 22.9969 1.9125C21.4031 1.69687 19.8563 2.57812 19.1531 3.96563C19.0875 3.95625 19.0312 3.9375 18.975 3.92813L17.9719 3.75938C17.7188 3.72188 17.4656 3.77813 17.2594 3.92813C17.0531 4.07812 16.9219 4.3125 16.8844 4.56562L16.8 5.175C16.4062 7.9125 16.7906 10.6687 17.8875 13.1906C17.4 13.9219 16.9875 14.6156 16.6406 15.2156C16.1812 16.0125 15.6938 16.8375 15.4031 17.0438C15.15 17.2219 15 17.5031 15 17.8125C15 18.8531 15.1406 19.875 15.3844 20.8594C13.2281 21.5625 11.7188 22.6219 11.6438 22.6781C11.2219 22.9781 11.1281 23.5594 11.4281 23.9813C11.6062 24.2344 11.8969 24.375 12.1875 24.375C12.375 24.375 12.5719 24.3188 12.7312 24.1969C12.75 24.1875 14.0813 23.2594 15.9656 22.6406C16.2844 23.4281 16.6688 24.1781 17.1281 24.8906C15.1969 25.7719 13.4906 27.375 13.4156 27.45C13.3268 27.5349 13.2557 27.6364 13.2062 27.7488C13.1567 27.8612 13.1299 27.9823 13.1273 28.1051C13.1247 28.2279 13.1463 28.35 13.191 28.4644C13.2356 28.5788 13.3024 28.6833 13.3875 28.7719C13.5656 28.9688 13.8188 29.0625 14.0625 29.0625C14.3062 29.0625 14.5312 28.9781 14.7094 28.8C14.7281 28.7906 16.5 27.1125 18.2625 26.4375C19.0862 27.4044 20.028 28.2643 21.0656 28.9969C19.1791 31.066 17.7567 33.5144 16.8938 36.1781C16.3313 35.8312 15.6844 35.625 15 35.625C14.1521 35.6261 13.3295 35.9139 12.6658 36.4414C12.0021 36.969 11.5362 37.7055 11.3438 38.5312C10.6778 38.6895 10.0676 39.0263 9.57873 39.5053C9.08981 39.9843 8.74065 40.5875 8.56875 41.25H4.6875C3.14062 41.25 1.875 42.5156 1.875 44.0625C1.875 45.2812 2.6625 46.3125 3.75 46.7062V51.5625C3.75 56.2125 7.5375 60 12.1875 60H47.8125C52.4625 60 56.25 56.2125 56.25 51.5625V46.7062C57.3375 46.3125 58.125 45.2812 58.125 44.0625C58.125 42.5156 56.8594 41.25 55.3125 41.25ZM43.125 38.3906C43.125 38.3906 43.1063 38.5687 43.1063 38.6156C43.1063 38.925 43.2562 39.2156 43.5094 39.3844C43.7625 39.5625 44.0906 39.6 44.3719 39.4969C45.6281 39.0187 46.875 40.0031 46.875 41.25H35.8781C35.7188 40.9688 35.625 40.65 35.625 40.3125C35.625 39.0375 36.9469 38.0813 38.2031 38.5781C38.4469 38.6719 38.7281 38.6625 38.9719 38.5406C39.2156 38.4281 39.3844 38.2031 39.4594 37.95C39.675 37.1344 40.4062 36.5625 41.25 36.5625C42.2812 36.5625 43.125 37.4062 43.125 38.3906ZM41.3438 5.78438H41.3906C41.6156 7.69688 41.3906 9.61875 40.7812 11.4281C39.6844 10.1437 38.2875 8.8875 36.4406 7.96875C37.8563 6.84375 39.5531 6.075 41.3438 5.78438ZM23.2031 3.89062C23.4469 3.98438 23.7281 3.975 23.9719 3.85313C24.2156 3.74063 24.3844 3.51562 24.4594 3.2625C24.675 2.44688 25.4062 1.875 26.25 1.875C27.2812 1.875 28.125 2.71875 28.125 3.70312C28.1156 3.75 28.1062 3.88125 28.1062 3.92813C28.1062 4.2375 28.2563 4.52813 28.5094 4.69688C28.7625 4.875 29.0906 4.9125 29.3719 4.80938C30.6281 4.33125 31.875 5.31563 31.875 6.5625C31.875 6.6 31.8656 6.6375 31.8656 6.675C31.2656 6.60938 30.6562 6.5625 30 6.5625C28.3125 6.5625 26.8406 6.80625 25.5375 7.2C24.2444 5.97954 22.7076 5.0466 21.0281 4.4625C21.525 3.85313 22.3781 3.5625 23.2031 3.89062ZM18.6094 5.775H18.6656C20.4469 6.075 22.1437 6.84375 23.5594 7.96875C21.7125 8.8875 20.3156 10.1437 19.2188 11.4281C18.6 9.61875 18.3844 7.69687 18.6094 5.775ZM20.5219 26.1281C21 26.1562 21.3281 26.2219 21.3469 26.2219C21.8531 26.3438 22.3594 26.0344 22.4719 25.5281C22.5016 25.4086 22.5072 25.2844 22.4883 25.1628C22.4693 25.0411 22.4263 24.9245 22.3617 24.8197C22.297 24.7149 22.2121 24.6241 22.1119 24.5525C22.0117 24.481 21.8982 24.4302 21.7781 24.4031C21.7125 24.3844 20.475 24.1125 18.9937 24.3281C18.5344 23.6719 18.1406 22.9781 17.8313 22.2469C18.825 22.2188 20.4563 22.3687 21.4406 22.4906C21.9563 22.5562 22.425 22.2 22.4906 21.6844C22.5562 21.1687 22.2 20.7 21.6844 20.6344C21.3562 20.5875 18.6562 20.25 17.1938 20.4094C17.025 19.6969 16.9125 18.975 16.8844 18.225C17.3344 17.7469 17.7469 17.0531 18.2625 16.1625C19.6031 13.8656 21.4594 10.6969 25.3125 9.23438V10.3125C25.3125 10.8281 25.7344 11.25 26.25 11.25C26.7656 11.25 27.1875 10.8281 27.1875 10.3125V8.70938C27.7687 8.59688 28.3969 8.5125 29.0625 8.475V11.25C29.0625 11.7656 29.4844 12.1875 30 12.1875C30.5156 12.1875 30.9375 11.7656 30.9375 11.25V8.475C31.6031 8.5125 32.2313 8.59688 32.8125 8.70938V10.3125C32.8125 10.8281 33.2344 11.25 33.75 11.25C34.2656 11.25 34.6875 10.8281 34.6875 10.3125V9.23438C38.5406 10.6969 40.3969 13.8656 41.7375 16.1625C42.2531 17.0531 42.6656 17.7469 43.1156 18.225C43.0875 18.975 42.975 19.6969 42.8063 20.4094C41.3438 20.25 38.6437 20.5875 38.3156 20.6344C37.8 20.7 37.4437 21.1687 37.5094 21.6844C37.575 22.2 38.0438 22.5562 38.5594 22.4906C39.5438 22.3594 41.175 22.2188 42.1781 22.2469C41.8594 22.9781 41.4656 23.6719 41.0063 24.3281C39.525 24.1125 38.2875 24.3844 38.2219 24.4031C37.7156 24.5156 37.4062 25.0219 37.5281 25.5281C37.6406 26.0344 38.1469 26.3438 38.6531 26.2219C38.6625 26.2219 38.9906 26.1562 39.4781 26.1281C38.9062 26.6906 38.2687 27.2063 37.5938 27.6656C37.5281 27.6094 37.4625 27.5437 37.3969 27.4781L36.2438 26.4844C36.1515 26.4029 36.0441 26.3404 35.9277 26.3005C35.8113 26.2607 35.6881 26.2442 35.5653 26.252C35.4425 26.2598 35.3224 26.2919 35.212 26.3462C35.1016 26.4006 35.003 26.4762 34.9219 26.5688C34.8404 26.661 34.7779 26.7684 34.738 26.8848C34.6981 27.0012 34.6817 27.1244 34.6895 27.2472C34.6973 27.37 34.7294 27.4901 34.7837 27.6005C34.8381 27.7109 34.9137 27.8095 35.0062 27.8906L35.8781 28.65C34.0969 29.5031 32.1 30 30 30C27.4406 30 25.0219 29.2687 22.9688 28.0312C22.9312 28.0125 22.8938 27.9844 22.8469 27.9656C21.9938 27.4406 21.225 26.8125 20.5219 26.1281ZM22.6875 30.0188C24.8719 31.1906 27.3656 31.875 30 31.875C32.6344 31.875 35.1375 31.1906 37.3125 30.0188C38.6437 31.4156 39.7406 33.0188 40.5469 34.7625C39.4688 34.9688 38.5312 35.6437 37.9969 36.6C37.8281 36.5719 37.6688 36.5625 37.5 36.5625C35.4281 36.5625 33.75 38.2406 33.75 40.3125C33.75 40.6312 33.8062 40.9406 33.8812 41.25H30.9375C30.9375 39.1406 29.175 37.4156 27.0656 37.5C26.6531 35.8875 25.1812 34.6875 23.4375 34.6875C22.0688 34.6875 20.8313 35.4375 20.1844 36.6C19.6781 36.525 19.1719 36.5812 18.6938 36.7125C19.5094 34.2188 20.8688 31.9312 22.6875 30.0188ZM12.1875 40.3125C12.7031 40.3125 13.125 39.8906 13.125 39.375C13.125 38.3438 13.9688 37.5 15 37.5C15.7875 37.5 16.4719 37.9875 16.7531 38.7375C16.8656 39.0469 17.1375 39.2719 17.4563 39.3281C17.775 39.3937 18.1031 39.2812 18.3281 39.0469C18.8438 38.4844 19.65 38.2781 20.3906 38.5781C20.6344 38.6719 20.9156 38.6625 21.1594 38.5406C21.4031 38.4281 21.5719 38.2031 21.6469 37.95C21.8625 37.1344 22.5938 36.5625 23.4375 36.5625C24.4688 36.5625 25.3125 37.4062 25.3125 38.3906C25.3031 38.4375 25.2937 38.5687 25.2937 38.6156C25.2937 38.925 25.4438 39.2156 25.6969 39.3844C25.95 39.5625 26.2781 39.6 26.5594 39.4969C27.8156 39.0187 29.0625 40.0031 29.0625 41.25H10.575C10.7386 40.9666 10.9735 40.731 11.2564 40.5665C11.5393 40.4021 11.8603 40.3145 12.1875 40.3125ZM54.375 51.5625C54.375 55.1813 51.4313 58.125 47.8125 58.125H12.1875C8.56875 58.125 5.625 55.1813 5.625 51.5625V46.875H54.375V51.5625ZM55.3125 45H4.6875C4.17188 45 3.75 44.5781 3.75 44.0625C3.75 43.5469 4.17188 43.125 4.6875 43.125H55.3125C55.8281 43.125 56.25 43.5469 56.25 44.0625C56.25 44.5781 55.8281 45 55.3125 45Z" fill="#6839CC"/>
<path d="M10.3125 17.8125C11.8594 17.8125 13.125 16.5469 13.125 15C13.125 13.4531 11.8594 12.1875 10.3125 12.1875C8.76562 12.1875 7.5 13.4531 7.5 15C7.5 16.5469 8.76562 17.8125 10.3125 17.8125ZM10.3125 14.0625C10.8281 14.0625 11.25 14.4844 11.25 15C11.25 15.5156 10.8281 15.9375 10.3125 15.9375C9.79688 15.9375 9.375 15.5156 9.375 15C9.375 14.4844 9.79688 14.0625 10.3125 14.0625ZM48.75 11.25C48.75 12.7969 50.0156 14.0625 51.5625 14.0625C53.1094 14.0625 54.375 12.7969 54.375 11.25C54.375 9.70312 53.1094 8.4375 51.5625 8.4375C50.0156 8.4375 48.75 9.70312 48.75 11.25ZM52.5 11.25C52.5 11.7656 52.0781 12.1875 51.5625 12.1875C51.0469 12.1875 50.625 11.7656 50.625 11.25C50.625 10.7344 51.0469 10.3125 51.5625 10.3125C52.0781 10.3125 52.5 10.7344 52.5 11.25ZM48.75 5.625C50.2969 5.625 51.5625 4.35938 51.5625 2.8125C51.5625 1.26562 50.2969 0 48.75 0C47.2031 0 45.9375 1.26562 45.9375 2.8125C45.9375 4.35938 47.2031 5.625 48.75 5.625ZM48.75 1.875C49.2656 1.875 49.6875 2.29688 49.6875 2.8125C49.6875 3.32812 49.2656 3.75 48.75 3.75C48.2344 3.75 47.8125 3.32812 47.8125 2.8125C47.8125 2.29688 48.2344 1.875 48.75 1.875Z" fill="#6839CC"/>
</svg>
