<svg width="60" height="60" viewBox="0 0 60 60" fill="none" xmlns="http://www.w3.org/2000/svg">
<g clip-path="url(#clip0_23436_943)">
<path d="M58.8616 48.5043C56.7509 44.8027 52.8823 44.1098 52.1274 44.0088C52.0833 44.0028 52.0388 43.9998 51.9944 43.9998H41.4095L40.9906 43.5809C41.527 43.3943 42.0411 43.1488 42.5234 42.849C43.0143 42.543 43.4313 42.199 43.8003 41.8421L47.7198 42.9619L48.2688 41.0392L45.1331 40.1433C45.5471 39.4363 45.807 38.7714 45.952 38.2895C45.9803 38.1957 45.9947 38.0984 45.995 38.0005V35.9457L48.3888 34.9198L47.6018 33.082L45.995 33.7709V33.001C45.9951 32.8196 45.9457 32.6415 45.852 32.4861L42.8524 27.4866C42.7742 27.3564 42.6673 27.2457 42.54 27.1629C42.4127 27.0801 42.2682 27.0274 42.1174 27.0087C41.8165 26.9757 41.5075 27.0757 41.2885 27.2946L38.5818 30.0014H37.9959V17.4167L39.4097 16.0029H40.6926L43.4403 17.8347C43.9002 18.1416 44.5202 18.0167 44.8271 17.5577L46.8269 14.558C46.9365 14.3939 46.9949 14.2009 46.9949 14.0036C46.9949 13.8062 46.9365 13.6133 46.8269 13.4491L42.8274 7.4498C42.7362 7.31269 42.6125 7.20025 42.4674 7.12245C42.3222 7.04465 42.1601 7.00391 41.9955 7.00385H38.9958C38.81 7.00389 38.6279 7.05563 38.4698 7.15329C38.3118 7.25094 38.184 7.39065 38.1009 7.55679L36.3781 11.0034H25.6152L23.8914 7.55679C23.8086 7.39061 23.681 7.25084 23.5231 7.15316C23.3652 7.05548 23.1832 7.00377 22.9975 7.00385H18.9979C18.8388 7.00376 18.682 7.04175 18.5406 7.11463C18.3992 7.18752 18.2773 7.29318 18.185 7.4228L13.1856 14.422C13.0481 14.6146 12.9833 14.8496 13.0027 15.0854C13.0221 15.3212 13.1245 15.5424 13.2916 15.7099L15.2913 17.7097C15.6283 18.0476 16.1562 18.0976 16.5532 17.8347L19.3009 16.0029H21.5837L21.9976 16.4168V27.2856C19.3579 28.2445 12.1507 31.5342 9.06402 39.6453C7.24322 44.4308 7.64717 48.8983 8.3181 51.825L5.99935 50.4331V46.9995C5.99935 45.8556 5.36342 44.8277 4.34153 44.3168C3.31764 43.8049 2.11377 43.9148 1.19887 44.6008C0.447951 45.1647 0 46.0616 0 46.9995V53.9987C0 54.3437 0.177981 54.6637 0.469949 54.8467L8.46908 59.8461C8.62803 59.9454 8.81164 59.998 8.99903 59.9981H53.9942C54.1491 59.9981 54.3031 59.9621 54.4411 59.8931L58.4407 57.8933C58.6211 57.8033 58.7699 57.6607 58.8676 57.4844C58.9716 57.2984 61.3634 52.8869 58.8616 48.5043ZM31.9975 49.9932L26.0762 49.9742L26.0702 51.974L31.9965 51.993V57.9983H29.9968C29.9968 55.7926 28.2029 53.9987 25.9972 53.9987H23.9974C23.9974 49.0373 19.9608 44.9997 14.9984 44.9997H13.9985V46.9995H14.9984C18.857 46.9995 21.9976 50.1392 21.9976 53.9987V54.9986C21.9976 55.5506 22.4446 55.9985 22.9975 55.9985H25.9972C27.1001 55.9985 27.997 56.8954 27.997 57.9983H9.28599L1.99978 53.4448V46.9995C2.00009 46.8444 2.03626 46.6915 2.10547 46.5528C2.17468 46.414 2.27506 46.2931 2.39874 46.1996C2.70871 45.9676 3.09966 45.9316 3.44663 46.1056C3.79259 46.2786 3.99957 46.6125 3.99957 46.9995V50.9991C3.99967 51.1716 4.04438 51.3412 4.12935 51.4913C4.21432 51.6414 4.33667 51.7671 4.48451 51.856L9.48397 54.8557C9.66134 54.9622 9.86742 55.0111 10.0738 54.9955C10.2801 54.9799 10.4765 54.9007 10.6358 54.7687C10.795 54.6367 10.9094 54.4586 10.9633 54.259C11.0172 54.0594 11.0079 53.8479 10.9368 53.6538C10.1889 51.618 8.69106 46.2466 10.9328 40.3552C11.0798 39.9683 11.2468 39.6043 11.4138 39.2414L11.4158 39.2424C14.7824 31.9261 21.9006 29.3894 23.2945 28.9555C23.4983 28.8926 23.6766 28.766 23.8031 28.5943C23.9296 28.4226 23.9977 28.2149 23.9974 28.0016V16.0029C23.9974 15.7379 23.8924 15.4829 23.7044 15.2959L22.7045 14.2961C22.6119 14.203 22.5017 14.1292 22.3804 14.0789C22.259 14.0287 22.129 14.0029 21.9976 14.0031H18.9979C18.8005 14.0034 18.6075 14.0618 18.443 14.1711L16.1253 15.7159L15.3043 14.895L19.5129 9.00363H22.3796L24.1034 12.4503C24.1862 12.6164 24.3138 12.7562 24.4717 12.8539C24.6296 12.9516 24.8116 13.0033 24.9973 13.0032H36.996C37.375 13.0032 37.7209 12.7892 37.8909 12.4503L39.6137 9.00363H41.4605L44.7931 14.0031L43.7183 15.6159L41.5505 14.1711C41.386 14.0618 41.193 14.0034 40.9956 14.0031H38.9958C38.7298 14.0031 38.4758 14.1081 38.2889 14.2961L36.2891 16.2958C36.1961 16.3886 36.1224 16.4988 36.0721 16.6201C36.0218 16.7414 35.996 16.8714 35.9961 17.0028V30.0014H33.4104L30.7037 27.2946C30.5962 27.1873 30.4657 27.1058 30.3221 27.0563C30.1785 27.0067 30.0256 26.9905 29.8748 27.0087C29.724 27.0272 29.5794 27.0799 29.4521 27.1627C29.3247 27.2456 29.2179 27.3563 29.1398 27.4866L26.1402 32.4861C26.0465 32.6415 25.9971 32.8196 25.9972 33.001V33.7709L24.3914 33.083L23.6044 34.9208L25.9972 35.9457V38.0005C25.9972 38.0985 26.0122 38.1955 26.0402 38.2895C26.2242 38.9014 26.5871 39.8033 27.2321 40.7192L23.6464 42.064L24.3494 43.9368L28.7029 42.304C28.9473 42.5009 29.2034 42.6829 29.4698 42.849C30.2367 43.3269 31.0966 43.6689 31.9975 43.8588V49.9932ZM57.2458 56.2545L53.7582 57.9983H44.7152L43.9952 55.8366V53.3018L45.2751 51.382C45.3532 51.2642 45.4593 51.1675 45.5839 51.1007C45.7084 51.0339 45.8476 50.9989 45.989 50.9991C46.421 50.9991 46.643 51.284 46.7179 51.406C46.7939 51.529 46.9489 51.855 46.7559 52.2399L46.1 53.5518C46.0062 53.7395 45.9739 53.952 46.0076 54.1591C46.0414 54.3662 46.1395 54.5574 46.288 54.7057L47.2879 55.7056C47.3806 55.7986 47.4907 55.8724 47.6121 55.9227C47.7334 55.973 47.8635 55.9987 47.9948 55.9985H52.9943V53.9987H48.4088L48.2118 53.8018L48.5457 53.1348C48.9917 52.2429 48.9437 51.2031 48.4198 50.3551C47.8958 49.5072 46.9859 48.9993 45.989 48.9993C45.5186 48.999 45.0554 49.115 44.6406 49.3369C44.2257 49.5588 43.8722 49.8797 43.6113 50.2712L42.1634 52.4439C42.0543 52.6085 41.9959 52.8014 41.9955 52.9989V55.9985C41.9955 56.1055 42.0135 56.2125 42.0474 56.3145L42.6084 57.9983H38.9958V50.9991H36.996V57.9983H33.9963V42.9999C33.9963 42.7508 33.9033 42.5107 33.7356 42.3265C33.5679 42.1423 33.3374 42.0273 33.0894 42.0041C32.3575 41.9361 31.6706 41.7401 31.0356 41.4281L32.3485 40.9362L31.6456 39.0634L29.1858 39.9863C28.5369 39.2204 28.1799 38.4104 27.997 37.8475V36.8016L30.6027 37.9185L31.3896 36.0807L27.997 34.6279V33.278L30.1947 29.6144L32.2895 31.7082C32.3822 31.8012 32.4924 31.875 32.6137 31.9253C32.735 31.9756 32.8651 32.0013 32.9964 32.0011H38.9958C39.2617 32.0011 39.5157 31.8961 39.7027 31.7082L41.7975 29.6144L43.9952 33.278V34.6279L40.6016 36.0817L41.3885 37.9195L43.9952 36.8026V37.8475C43.8452 38.3084 43.5763 38.9364 43.1293 39.5703L41.2705 39.0394L40.7216 40.9622L41.4395 41.1671C40.6766 41.6361 39.8247 41.9191 38.9038 42.0051C38.7148 42.0226 38.5347 42.0936 38.3845 42.2098C38.2344 42.3259 38.1204 42.4824 38.0559 42.661C37.9912 42.8394 37.9788 43.0326 38.0201 43.2178C38.0613 43.4031 38.1546 43.5727 38.2889 43.7069L40.2886 45.7066C40.3813 45.7997 40.4915 45.8735 40.6128 45.9238C40.7342 45.9741 40.8642 45.9998 40.9956 45.9996H51.9234C52.4953 46.0866 55.518 46.6755 57.1258 49.4952C58.7716 52.3799 57.6468 55.3726 57.2458 56.2545Z" fill="#6839CC"/>
<path d="M59.071 13.1942C57.2702 8.18972 51.4248 0.557548 42.6957 0.0456031C36.7624 -0.311358 32.2459 4.31414 30.0851 6.5339L29.9611 6.66089C29.9051 6.60389 29.8481 6.5439 29.7871 6.48091C27.6594 4.27115 23.1978 -0.336356 17.3015 0.0216057C8.57243 0.53355 2.72707 8.16472 0.926264 13.1702C-1.47848 19.8595 0.850272 28.4065 7.31657 36.6196L8.8894 35.3828C2.85805 27.7236 0.641295 19.8735 2.80906 13.8461C4.42888 9.3406 9.65732 2.47234 17.4185 2.01739C22.4279 1.73642 26.4265 5.87397 28.3473 7.86876C28.7142 8.24871 29.0112 8.55568 29.2312 8.75066C29.3526 8.85864 29.4984 8.9355 29.6561 8.97464L29.7591 8.99963C29.9168 9.03868 30.0816 9.03869 30.2393 8.99966C30.397 8.96063 30.5428 8.88375 30.664 8.77566C30.877 8.58668 31.164 8.29271 31.5189 7.92775C33.4717 5.92197 37.5483 1.75742 42.5787 2.04139C50.3409 2.49734 55.5683 9.36559 57.1882 13.8711C59.6529 20.7224 56.4472 29.8624 48.6141 38.3204L50.0809 39.6793C58.432 30.6623 61.7927 20.7614 59.071 13.1942Z" fill="#6839CC"/>
<path d="M26 17.0029H27.9998V19.0027H26V17.0029ZM31.9993 17.0029H33.9991V19.0027H31.9993V17.0029ZM27.9998 21.0024H31.9993V23.0022H27.9998V21.0024ZM31.9993 34.001H33.9991V36.0008H31.9993V34.001ZM37.9987 34.001H39.9985V36.0008H37.9987V34.001ZM34.999 37.0007H36.9988V39.0005H34.999V37.0007Z" fill="#6839CC"/>
</g>
<defs>
<clipPath id="clip0_23436_943">
<rect width="60" height="60" fill="white"/>
</clipPath>
</defs>
</svg>
