<svg width="60" height="60" viewBox="0 0 60 60" fill="none" xmlns="http://www.w3.org/2000/svg">
<path d="M11.9998 31.9923H13.9998V33.9922H11.9998V31.9923ZM19.9996 53.9917C21.6564 53.9917 22.9995 52.6486 22.9995 50.9918C22.9995 49.335 21.6564 47.9919 19.9996 47.9919C18.3428 47.9919 16.9997 49.335 16.9997 50.9918C17.0015 52.6479 18.3435 53.9899 19.9996 53.9917ZM19.9996 49.9918C20.1974 49.9918 20.3907 50.0505 20.5552 50.1604C20.7196 50.2702 20.8478 50.4264 20.9235 50.6091C20.9991 50.7919 21.0189 50.9929 20.9804 51.1869C20.9418 51.3809 20.8465 51.559 20.7067 51.6989C20.5668 51.8387 20.3887 51.934 20.1947 51.9726C20.0007 52.0111 19.7996 51.9913 19.6169 51.9157C19.4342 51.84 19.278 51.7118 19.1682 51.5474C19.0583 51.3829 18.9996 51.1896 18.9996 50.9918C19 50.7267 19.1054 50.4725 19.2929 50.2851C19.4803 50.0976 19.7345 49.9922 19.9996 49.9918ZM6.99993 53.9917C8.65676 53.9917 9.99985 52.6486 9.99985 50.9918C9.99985 49.335 8.65676 47.9919 6.99993 47.9919C5.34309 47.9919 4 49.335 4 50.9918C4.00187 52.6479 5.34384 53.9899 6.99993 53.9917ZM6.99993 49.9918C7.1977 49.9918 7.39104 50.0505 7.55548 50.1604C7.71993 50.2702 7.8481 50.4264 7.92378 50.6091C7.99947 50.7919 8.01927 50.9929 7.98069 51.1869C7.9421 51.3809 7.84686 51.559 7.70701 51.6989C7.56716 51.8387 7.38899 51.934 7.19501 51.9726C7.00103 52.0111 6.79997 51.9913 6.61725 51.9157C6.43453 51.84 6.27835 51.7118 6.16848 51.5474C6.0586 51.3829 5.99995 51.1896 5.99995 50.9918C6.00028 50.7267 6.10574 50.4725 6.2932 50.2851C6.48066 50.0976 6.73482 49.9922 6.99993 49.9918Z" fill="#6839CC"/>
<path d="M7.00136 57.9919C9.86466 57.9884 12.438 56.2437 13.5012 53.5852C14.9338 57.1753 19.0056 58.9245 22.5958 57.4919C26.1861 56.0593 27.9352 51.9876 26.5026 48.3973C26.052 47.268 25.3149 46.2755 24.3641 45.5177C23.4132 44.7599 22.2813 44.2629 21.0799 44.0756L17.0012 36.7333V15.7017C17.0005 13.4261 16.7365 11.1583 16.2145 8.94339C15.6911 6.72857 14.913 4.58182 13.8957 2.54605C13.8126 2.37994 13.685 2.24024 13.527 2.14261C13.369 2.04497 13.187 1.99326 13.0013 1.99326C12.8156 1.99326 12.6335 2.04497 12.4755 2.14261C12.3176 2.24024 12.1899 2.37994 12.1069 2.54605C10.07 6.63273 9.00701 11.1356 9.00131 15.7017V36.7334L4.76391 44.3611C1.10125 45.5966 -0.866448 49.5673 0.369021 53.2299C1.329 56.076 3.99781 57.9922 7.00136 57.9919ZM10.3548 44.8496L13.0012 41.8726L16.0038 45.2507C14.881 46.0343 14.0113 47.1285 13.5012 48.399C12.8945 46.8876 11.7825 45.6333 10.3548 44.8496ZM25.0009 50.9921C25.0009 53.7534 22.7623 55.992 20.001 55.992C17.2397 55.992 15.0012 53.7534 15.0012 50.9921C15.0012 48.2308 17.2397 45.9922 20.001 45.9922C22.7611 45.9953 24.9978 48.232 25.0009 50.9921ZM11.0013 15.7017C11.0056 12.1797 11.6844 8.69101 13.0012 5.42435C13.5235 6.71638 13.9467 8.04627 14.2672 9.4025C14.7539 11.4669 15.0002 13.5807 15.0012 15.7017V36.9924C15.0013 37.1623 15.0445 37.3294 15.1269 37.4781L18.8038 44.0968C18.4841 44.1518 18.1687 44.2292 17.8598 44.3285L11.0013 36.6122V15.7017ZM10.1906 38.7106L11.6637 40.3674L8.32745 44.1199C7.97279 44.0518 7.61339 44.0112 7.25247 43.9986L10.1906 38.7106ZM7.00136 45.9922C9.76266 45.9922 12.0012 48.2308 12.0012 50.9921C12.0012 53.7534 9.76266 55.992 7.00136 55.992C4.24005 55.992 2.00148 53.7534 2.00148 50.9921C2.00461 48.232 4.2413 45.9953 7.00136 45.9922ZM36.095 24.859C37.6575 22.3418 38.5178 19.0156 38.5178 15.493C38.5178 11.9703 37.6573 8.64415 36.095 6.12696C34.4405 3.4614 32.1905 1.99331 29.7594 1.99331C27.3283 1.99331 25.0783 3.4614 23.4237 6.12696C21.8614 8.64415 21.001 11.9703 21.001 15.493C21.001 19.0156 21.8614 22.3418 23.4237 24.859C24.058 25.9145 24.8798 26.8453 25.8486 27.6054L26.7509 33.0255L26.0634 39.9077C25.8593 41.9491 27.3486 43.7695 29.3899 43.9736C31.4312 44.1778 33.2517 42.6884 33.4558 40.6471C33.4804 40.4013 33.4804 40.1537 33.4558 39.9079L32.7683 33.0255L33.6707 27.6053C34.6393 26.8451 35.4608 25.9144 36.095 24.859ZM31.0311 41.4282C30.3959 42.1306 29.3115 42.1848 28.6092 41.5496C28.41 41.3694 28.256 41.145 28.1594 40.8944C28.0629 40.6438 28.0265 40.3741 28.0533 40.1069L28.7546 33.092C28.7634 33.0041 28.7605 32.9154 28.7459 32.8283L28.0661 28.7475C29.1716 29.0744 30.348 29.0744 31.4535 28.7475L30.7736 32.8283C30.759 32.9154 30.7561 33.0041 30.7649 33.092L31.4662 40.107C31.4913 40.3455 31.4654 40.5865 31.3904 40.8143C31.3154 41.042 31.193 41.2513 31.0311 41.4282ZM29.7594 26.9927C28.0457 26.9927 26.3992 25.8603 25.123 23.8043C23.7546 21.5996 23.001 18.6479 23.001 15.493C23.001 12.3381 23.7546 9.38638 25.123 7.18168C26.3992 5.12561 28.0457 3.99326 29.7594 3.99326C31.4731 3.99326 33.1196 5.12561 34.3958 7.18168C35.7641 9.38638 36.5179 12.3381 36.5179 15.493C36.5179 18.6479 35.7641 21.5996 34.3958 23.8043C33.1196 25.8603 31.473 26.9927 29.7594 26.9927Z" fill="#6839CC"/>
<path d="M26.7578 15.9929H28.7578V17.9929H26.7578V15.9929ZM26.7578 19.9928H28.7578V21.9928H26.7578V19.9928ZM26.7578 7.99311H28.7578V9.99306H26.7578V7.99311ZM26.7578 11.993H28.7578V13.993H26.7578V11.993ZM30.7577 7.99311H32.7577V9.99306H30.7577V7.99311ZM30.7577 11.993H32.7577V13.993H30.7577V11.993ZM30.7577 19.9928H32.7577V21.9928H30.7577V19.9928ZM30.7577 15.9929H32.7577V17.9929H30.7577V15.9929ZM53.9985 35.6033V4.99318C53.9966 3.33722 52.6545 1.99513 50.9986 1.99326H42.9988C42.7336 1.99326 42.4792 2.09861 42.2917 2.28614C42.1042 2.47367 41.9988 2.72802 41.9988 2.99323C41.9988 3.25844 42.1042 3.51279 42.2917 3.70032C42.4792 3.88785 42.7336 3.99321 42.9988 3.99321H47.9987V5.99316H42.9988C42.7336 5.99316 42.4792 6.09851 42.2917 6.28604C42.1042 6.47357 41.9988 6.72792 41.9988 6.99313C41.9988 7.25834 42.1042 7.51269 42.2917 7.70022C42.4792 7.88775 42.7336 7.99311 42.9988 7.99311H47.9987V9.99306H42.9988C42.7336 9.99306 42.4792 10.0984 42.2917 10.2859C42.1042 10.4735 41.9988 10.7278 41.9988 10.993C41.9988 11.2582 42.1042 11.5126 42.2917 11.7001C42.4792 11.8877 42.7336 11.993 42.9988 11.993H47.9987V13.993H42.9988C42.7336 13.993 42.4792 14.0983 42.2917 14.2858C42.1042 14.4734 41.9988 14.7277 41.9988 14.9929C41.9988 15.2581 42.1042 15.5125 42.2917 15.7C42.4792 15.8876 42.7336 15.9929 42.9988 15.9929H47.9987V17.9929H42.9988C42.7336 17.9929 42.4792 18.0982 42.2917 18.2857C42.1042 18.4733 41.9988 18.7276 41.9988 18.9928C41.9988 19.258 42.1042 19.5124 42.2917 19.6999C42.4792 19.8875 42.7336 19.9928 42.9988 19.9928H47.9987V21.9928H42.9988C42.7336 21.9928 42.4792 22.0981 42.2917 22.2856C42.1042 22.4732 41.9988 22.7275 41.9988 22.9927C41.9988 23.2579 42.1042 23.5123 42.2917 23.6998C42.4792 23.8874 42.7336 23.9927 42.9988 23.9927H47.9987V25.9927H42.9988C42.7336 25.9927 42.4792 26.098 42.2917 26.2855C42.1042 26.4731 41.9988 26.7274 41.9988 26.9926C41.9988 27.2578 42.1042 27.5122 42.2917 27.6997C42.4792 27.8873 42.7336 27.9926 42.9988 27.9926H47.9987V29.9926H42.9988C42.7336 29.9926 42.4792 30.0979 42.2917 30.2854C42.1042 30.473 41.9988 30.7273 41.9988 30.9925C41.9988 31.2577 42.1042 31.5121 42.2917 31.6996C42.4792 31.8872 42.7336 31.9925 42.9988 31.9925H47.9987V33.9925C41.3673 33.9883 35.9881 39.3607 35.984 45.9922C35.9798 52.6235 41.3522 58.0027 47.9837 58.0069C54.615 58.011 59.9942 52.6386 59.9984 46.0072C59.9997 43.8989 59.4459 41.8275 58.3927 40.0012C57.3394 38.1749 55.8239 36.6581 53.9985 35.6033ZM49.9986 3.99321H50.9986C51.2637 3.99354 51.5178 4.099 51.7053 4.28646C51.8928 4.47392 51.9982 4.72807 51.9986 4.99318V34.6788C51.3482 34.4482 50.679 34.2747 49.9986 34.1601V3.99321ZM47.9987 55.9919C42.4759 55.9919 37.9989 51.5149 37.9989 45.9922C37.9989 40.4694 42.4759 35.9924 47.9987 35.9924C53.5214 35.9924 57.9984 40.4694 57.9984 45.9922C57.9922 51.5123 53.5188 55.9857 47.9987 55.9919Z" fill="#6839CC"/>
<path d="M50.8709 47.1205C50.3906 45.5347 48.7158 44.6386 47.1301 45.119C46.6575 45.2621 46.2276 45.5197 45.8785 45.8688C45.5293 46.218 45.2718 46.6479 45.1286 47.1205C43.5427 47.5999 42.6458 49.2743 43.1253 50.8602C43.3118 51.4772 43.6921 52.0178 44.2099 52.4017C44.7276 52.7857 45.3553 52.9926 45.9999 52.9919H49.9998C51.6566 52.9927 53.0003 51.6501 53.0009 49.9933C53.0012 49.3493 52.7942 48.7223 52.4106 48.205C52.027 47.6878 51.4872 47.3077 50.8709 47.121V47.1205ZM49.9998 50.992H46.0186C45.8554 50.9946 45.694 50.9575 45.5484 50.8839C45.3476 50.7825 45.1869 50.6164 45.0923 50.4124C44.9976 50.2084 44.9746 49.9784 45.027 49.7597C45.0793 49.541 45.2039 49.3463 45.3806 49.2072C45.5573 49.0681 45.7758 48.9928 46.0007 48.9933C46.2658 48.993 46.5199 48.8876 46.7072 48.7001C46.8946 48.5126 46.9998 48.2584 46.9998 47.9933V47.9847C47.0003 47.8534 47.0267 47.7234 47.0774 47.6023C47.1281 47.4811 47.2021 47.3712 47.2953 47.2787C47.3885 47.1862 47.499 47.1129 47.6205 47.0631C47.742 47.0133 47.8722 46.9879 48.0035 46.9884C48.1348 46.9889 48.2647 47.0152 48.3859 47.0659C48.507 47.1166 48.617 47.1907 48.7095 47.2839C48.802 47.3771 48.8753 47.4876 48.9251 47.6091C48.9749 47.7306 49.0003 47.8607 48.9998 47.9921C48.9998 48.5443 49.4475 48.992 49.9998 48.992C50.265 48.992 50.5193 49.0974 50.7068 49.2849C50.8944 49.4724 50.9997 49.7268 50.9997 49.992C50.9997 50.2572 50.8944 50.5116 50.7068 50.6991C50.5193 50.8866 50.265 50.992 49.9998 50.992ZM47.9998 43.9922C49.3805 43.9922 50.4997 42.8729 50.4997 41.4922C50.4997 40.1115 49.3805 38.9923 47.9998 38.9923C46.6191 38.9923 45.4999 40.1115 45.4999 41.4922C45.5015 42.8722 46.6198 43.9905 47.9998 43.9922ZM47.9998 40.9922C48.1324 40.9922 48.2596 41.0449 48.3533 41.1387C48.4471 41.2324 48.4998 41.3596 48.4998 41.4922C48.4998 41.6248 48.4471 41.752 48.3533 41.8458C48.2596 41.9395 48.1324 41.9922 47.9998 41.9922C47.8672 41.9922 47.74 41.9395 47.6463 41.8458C47.5525 41.752 47.4998 41.6248 47.4998 41.4922C47.4998 41.3596 47.5525 41.2324 47.6463 41.1387C47.74 41.0449 47.8672 40.9922 47.9998 40.9922ZM44.9999 44.4921C44.9999 43.1114 43.8807 41.9922 42.4999 41.9922C41.1192 41.9922 40 43.1114 40 44.4921C40 45.8729 41.1192 46.9921 42.4999 46.9921C43.8799 46.9905 44.9983 45.8721 44.9999 44.4921ZM42.4999 44.9921C42.3673 44.9921 42.2402 44.9395 42.1464 44.8457C42.0526 44.7519 42 44.6247 42 44.4921C42 44.3595 42.0526 44.2324 42.1464 44.1386C42.2402 44.0448 42.3673 43.9922 42.4999 43.9922C42.6325 43.9922 42.7597 44.0448 42.8535 44.1386C42.9472 44.2324 42.9999 44.3595 42.9999 44.4921C42.9999 44.6247 42.9472 44.7519 42.8535 44.8457C42.7597 44.9395 42.6325 44.9921 42.4999 44.9921ZM50.9997 44.4921C50.9997 45.8729 52.1189 46.9921 53.4997 46.9921C54.8804 46.9921 55.9996 45.8729 55.9996 44.4921C55.9996 43.1114 54.8804 41.9922 53.4997 41.9922C52.1197 41.9938 51.0014 43.1122 50.9997 44.4921ZM53.9997 44.4921C53.9997 44.6247 53.947 44.7519 53.8532 44.8457C53.7594 44.9395 53.6323 44.9921 53.4997 44.9921C53.3671 44.9921 53.2399 44.9395 53.1461 44.8457C53.0524 44.7519 52.9997 44.6247 52.9997 44.4921C52.9997 44.3595 53.0524 44.2324 53.1461 44.1386C53.2399 44.0448 53.3671 43.9922 53.4997 43.9922C53.6323 43.9922 53.7594 44.0448 53.8532 44.1386C53.947 44.2324 53.9997 44.3595 53.9997 44.4921Z" fill="#6839CC"/>
</svg>
