<svg width="60" height="60" viewBox="0 0 60 60" fill="none" xmlns="http://www.w3.org/2000/svg">
<path d="M46.7852 39.3729C50.5714 35.2876 52.89 29.8238 52.89 23.8277C52.8898 11.2061 42.6214 0.9375 29.9996 0.9375C17.3778 0.9375 7.10938 11.2061 7.10938 23.8277C7.10938 30.2858 9.79859 36.1269 14.1148 40.2926L8.47332 52.4099C8.40098 52.5652 8.3726 52.7374 8.39125 52.9077C8.4099 53.078 8.47487 53.24 8.5791 53.376C8.68334 53.512 8.82285 53.6168 8.98248 53.6791C9.1421 53.7413 9.31575 53.7587 9.48453 53.7292L16.4077 52.5195L19.9388 58.5961C20.0249 58.7443 20.1499 58.8661 20.3003 58.9482C20.4507 59.0303 20.6208 59.0696 20.7919 59.0618C20.9631 59.054 21.1289 58.9995 21.2713 58.9041C21.4136 58.8087 21.5271 58.6761 21.5994 58.5207L27.1755 46.5437C28.1012 46.6581 29.0435 46.718 29.9996 46.718C31.3748 46.718 32.722 46.5959 34.0311 46.3623L38.2397 56.1335C38.3074 56.2909 38.417 56.4267 38.5566 56.5261C38.6961 56.6256 38.8602 56.6849 39.0311 56.6976C39.202 56.7103 39.3731 56.6759 39.5258 56.5982C39.6785 56.5205 39.807 56.4024 39.8973 56.2568L43.6031 50.2852L50.4881 51.6952C50.6559 51.7297 50.8301 51.7175 50.9914 51.6599C51.1528 51.6023 51.2953 51.5015 51.4033 51.3684C51.5115 51.2356 51.5811 51.0756 51.6047 50.9059C51.6283 50.7362 51.605 50.5633 51.5373 50.406L46.7852 39.3729ZM20.6577 56.1011L17.7007 51.0124C17.6043 50.8468 17.4594 50.7146 17.2857 50.6337C17.1119 50.5528 16.9175 50.5271 16.7287 50.56L10.9312 51.5731L15.579 41.5902C18.3454 43.8404 21.6452 45.4586 25.2568 46.2225L20.6577 56.1011ZM8.98438 23.8277C8.98438 12.2399 18.4118 2.8125 29.9996 2.8125C41.5875 2.8125 51.0148 12.2399 51.0148 23.8277C51.0148 35.4156 41.5875 44.843 29.9996 44.843C18.4118 44.843 8.98438 35.4156 8.98438 23.8277ZM43.3391 48.3175C43.1513 48.2789 42.9562 48.2988 42.7801 48.3747C42.604 48.4505 42.4554 48.5786 42.3545 48.7416L39.2512 53.7422L35.8939 45.9472C39.4634 44.9952 42.6928 43.2011 45.3539 40.7898L49.1046 49.4982L43.3391 48.3175ZM45.7555 30.2793C45.7106 29.904 45.6688 29.5702 45.6311 29.2704C45.4783 28.0523 45.4017 27.4412 45.487 26.9577C45.5723 26.4743 45.8533 25.926 46.4135 24.8338C46.5513 24.565 46.7048 24.2655 46.8752 23.9284C47.7638 22.1705 47.3959 20.0836 45.9596 18.7356C45.6841 18.477 45.4374 18.2482 45.2159 18.0427C44.3161 17.2078 43.8643 16.7889 43.6189 16.3637C43.3735 15.9387 43.2364 15.338 42.9635 14.1413C42.8962 13.8466 42.8214 13.5188 42.7352 13.1508C42.286 11.2329 40.6626 9.87082 38.6959 9.76137C38.3186 9.74027 37.9827 9.72363 37.6809 9.70863C36.4549 9.64758 35.8395 9.61699 35.3782 9.44906C34.9169 9.28102 34.4258 8.90906 33.4474 8.16773C33.1776 7.96286 32.9071 7.75883 32.636 7.55566C31.059 6.37535 28.9401 6.37535 27.363 7.55566C27.0604 7.78207 26.7923 7.98527 26.5515 8.16773C25.5731 8.90895 25.082 9.28102 24.6207 9.44906C24.1593 9.61699 23.544 9.64746 22.3181 9.70863C22.0163 9.72363 21.6804 9.74039 21.3031 9.76137C19.3364 9.87082 17.7131 11.2329 17.2638 13.1508C17.1777 13.5186 17.1028 13.8466 17.0356 14.1411C16.7626 15.3379 16.6255 15.9386 16.3801 16.3637C16.1347 16.7889 15.6829 17.2078 14.7832 18.0425C14.5345 18.2728 14.2866 18.5038 14.0394 18.7356C12.6031 20.0836 12.2352 22.1705 13.1238 23.9284C13.2943 24.2655 13.4477 24.565 13.5855 24.8338C14.1457 25.926 14.4268 26.4743 14.512 26.9577C14.5973 27.4412 14.5205 28.0525 14.3679 29.2704C14.3302 29.5703 14.2884 29.904 14.2435 30.2793C14.0097 32.235 15.0692 34.0702 16.88 34.8457C17.2273 34.9945 17.5374 35.1252 17.8159 35.2425C18.947 35.7191 19.5147 35.9584 19.8908 36.274C20.2668 36.5896 20.6011 37.1071 21.2669 38.1383C21.4307 38.3922 21.6133 38.6747 21.8202 38.991C22.653 40.2645 24.0307 40.9867 25.4837 40.9866C25.9115 40.9866 26.3462 40.9239 26.7751 40.7943C27.1367 40.6849 27.4582 40.5858 27.7468 40.4967C28.9197 40.1347 29.5085 39.9531 29.9994 39.9531C30.4903 39.9531 31.079 40.1347 32.2521 40.4967C32.5407 40.5858 32.8623 40.6849 33.2238 40.7943C35.1092 41.3641 37.1006 40.6395 38.1787 38.9909C38.3855 38.6746 38.568 38.392 38.732 38.1382C39.3978 37.107 39.732 36.5893 40.1081 36.2739C40.4841 35.9584 41.0519 35.7191 42.183 35.2424C42.4614 35.1251 42.7715 34.9944 43.1189 34.8456C44.9298 34.0702 45.9893 32.235 45.7555 30.2793ZM44.7451 23.9781C43.4556 26.4929 43.4191 26.6995 43.7708 29.5036C43.8079 29.8001 43.8494 30.1304 43.8937 30.5017C44.03 31.6416 43.4361 32.6701 42.3808 33.1221C42.0371 33.2693 41.7304 33.3984 41.4549 33.5146C38.8507 34.612 38.69 34.7469 37.157 37.121C36.9754 37.4028 36.793 37.6839 36.6097 37.9645C35.9814 38.9252 34.8654 39.3315 33.7664 38.9993C33.4086 38.8911 33.0905 38.7931 32.805 38.7049C30.1045 37.8716 29.8947 37.8715 27.1941 38.7049C26.9086 38.7931 26.5905 38.8911 26.2327 38.9993C25.1336 39.3318 24.0178 38.9252 23.3894 37.9645C23.1848 37.6518 23.0042 37.372 22.8421 37.121C21.3091 34.7468 21.1484 34.612 18.5442 33.5146C18.2687 33.3986 17.962 33.2693 17.6183 33.1221C16.563 32.6701 15.9691 31.6414 16.1054 30.5017C16.1497 30.1304 16.1912 29.8002 16.2284 29.5036C16.5801 26.6994 16.5437 26.4929 15.2541 23.9781C15.1177 23.7121 14.966 23.4159 14.7973 23.0823C14.2795 22.0579 14.4856 20.8882 15.3227 20.1026C15.5954 19.8466 15.8394 19.6204 16.0585 19.417C18.1303 17.495 18.2352 17.3134 18.8638 14.558C18.9302 14.2666 19.0043 13.9421 19.0895 13.5782C19.3512 12.4604 20.2611 11.697 21.4073 11.6332C21.7805 11.6125 22.1129 11.5959 22.4114 11.5811C25.2341 11.4405 25.4312 11.3687 27.6839 9.66211C27.9221 9.48164 28.1874 9.28066 28.4867 9.0566C28.9462 8.71266 29.473 8.54074 29.9996 8.54074C30.5263 8.54074 31.0529 8.71277 31.5125 9.0566C31.8118 9.28055 32.077 9.48164 32.3152 9.66211C34.5679 11.3687 34.765 11.4405 37.5877 11.5811C37.8862 11.5959 38.2187 11.6126 38.5918 11.6332C39.738 11.697 40.6479 12.4604 40.9096 13.5782C40.995 13.9421 41.0689 14.2668 41.1355 14.5581C41.7641 17.3134 41.8689 17.495 43.9408 19.417C44.16 19.6204 44.4039 19.8468 44.6765 20.1026C45.5136 20.8882 45.7197 22.0579 45.2019 23.0823C45.0506 23.3814 44.8983 23.68 44.7451 23.9781ZM38.0425 20.7019L33.029 20.4574L31.2474 15.7649C31.0493 15.2428 30.5594 14.9054 29.9996 14.9054C29.4397 14.9054 28.9498 15.2428 28.7518 15.7649L26.9702 20.4574L21.9568 20.7019C21.398 20.7289 20.9252 21.0902 20.7522 21.6224C20.5793 22.1545 20.7493 22.7248 21.1854 23.0754L25.0977 26.2199L23.7808 31.0635C23.6341 31.6032 23.8318 32.1646 24.2844 32.4934C24.5119 32.66 24.7864 32.75 25.0684 32.7505C25.3216 32.7505 25.5754 32.6773 25.7998 32.5303L29.9996 29.7814L34.1993 32.5305C34.6674 32.837 35.2623 32.8222 35.715 32.4936C36.1675 32.1647 36.3651 31.6034 36.2183 31.0637L34.9016 26.2201L38.814 23.0756C39.25 22.725 39.42 22.1548 39.247 21.6226C39.074 21.0905 38.6012 20.7291 38.0425 20.7019ZM29.4945 16.4305C29.4945 16.4304 29.4945 16.4304 29.4945 16.4305V16.4305ZM33.4513 24.9802C33.2488 25.1428 33.0982 25.361 33.0179 25.608C32.9376 25.8549 32.9312 26.12 32.9994 26.3706L34.0357 30.1825L30.7306 28.0191C30.5134 27.8768 30.2593 27.801 29.9996 27.8009C29.7398 27.8009 29.4858 27.8767 29.2685 28.0189L25.9633 30.1825L26.9998 26.3701C27.0678 26.1196 27.0613 25.8546 26.981 25.6078C26.9007 25.3609 26.7502 25.1428 26.5479 24.9802L23.4689 22.5054L27.4141 22.313C27.6736 22.3005 27.9238 22.2125 28.134 22.0599C28.3442 21.9072 28.5053 21.6965 28.5975 21.4536L29.9996 17.7607L31.4018 21.4539C31.4939 21.6967 31.6549 21.9073 31.865 22.0599C32.0752 22.2125 32.3253 22.3005 32.5846 22.3131L36.5302 22.5055L33.4513 24.9802Z" fill="#6839CC"/>
</svg>
