<svg width="60" height="60" viewBox="0 0 60 60" fill="none" xmlns="http://www.w3.org/2000/svg">
<path d="M29.9976 56.25C29.7395 56.2504 29.4839 56.1994 29.2457 56.1C26.4851 54.8862 23.8733 53.359 21.4617 51.5484C6.81321 41.0747 7.09915 19.7766 7.22196 10.6828C7.22946 10.1316 7.23696 9.6225 7.23978 9.16125C7.24182 8.76541 7.36664 8.37995 7.59703 8.05806C7.82741 7.73616 8.152 7.49368 8.52603 7.36406C15.4385 5.00404 22.6887 3.78344 29.9929 3.75C37.3 3.78201 44.5532 5.00264 51.4682 7.36406C51.8423 7.49347 52.167 7.73574 52.3975 8.05746C52.628 8.37919 52.7531 8.76452 52.7554 9.16031C52.7582 9.6225 52.7657 10.1316 52.7732 10.6828C52.8951 19.7766 53.1829 41.0737 38.5326 51.5484C36.1215 53.3585 33.5103 54.8854 30.7504 56.0991C30.5119 56.1988 30.2561 56.2501 29.9976 56.25ZM29.9695 54.3703C29.9878 54.3759 30.0074 54.3759 30.0257 54.3703C32.6575 53.2132 35.1461 51.7544 37.4413 50.0231C51.2957 40.1194 51.0163 19.5094 50.8982 10.7081C50.8907 10.1522 50.8832 9.63937 50.8804 9.17344C48.1712 8.22437 45.3987 7.46627 42.5835 6.90469C38.4379 6.07404 34.2218 5.64549 29.9938 5.625C22.8963 5.65855 15.8513 6.84526 9.13446 9.13875C9.1129 9.63844 9.1054 10.1512 9.0979 10.7081C8.97884 19.5094 8.7004 40.1194 22.5548 50.0231C24.8498 51.7547 27.3384 53.2136 29.9704 54.3703H29.9695Z" fill="#6839CC"/>
<path d="M27.8295 27.5754C27.663 27.5757 27.4994 27.5316 27.3556 27.4477C27.2118 27.3639 27.0929 27.2432 27.011 27.0983C26.9877 27.0567 26.9538 27.0221 26.9127 26.998C26.8716 26.9739 26.8248 26.9612 26.7771 26.9612C26.7295 26.9612 26.6827 26.9739 26.6416 26.998C26.6005 27.0221 26.5665 27.0567 26.5432 27.0983C26.421 27.3148 26.2178 27.474 25.9782 27.5407C25.7387 27.6074 25.4824 27.5762 25.2659 27.454C25.0493 27.3318 24.8902 27.1286 24.8234 26.8891C24.7567 26.6495 24.7879 26.3933 24.9101 26.1767C25.0968 25.8457 25.3681 25.5703 25.6962 25.3786C26.0244 25.1869 26.3976 25.0859 26.7776 25.0859C27.1576 25.0859 27.5308 25.1869 27.859 25.3786C28.1871 25.5703 28.4584 25.8457 28.6451 26.1767C28.7257 26.3193 28.7675 26.4805 28.7664 26.6443C28.7653 26.8081 28.7213 26.9687 28.6388 27.1102C28.5563 27.2517 28.4382 27.3691 28.2962 27.4507C28.1542 27.5323 27.9933 27.5753 27.8295 27.5754ZM34.2739 27.5754C34.1075 27.5755 33.9442 27.5313 33.8005 27.4475C33.6569 27.3636 33.5381 27.2431 33.4564 27.0983C33.4331 27.0565 33.3992 27.0216 33.3579 26.9974C33.3167 26.9731 33.2698 26.9604 33.222 26.9604C33.1742 26.9604 33.1272 26.9731 33.086 26.9974C33.0448 27.0216 33.0108 27.0565 32.9876 27.0983C32.8654 27.3148 32.6622 27.474 32.4226 27.5407C32.1831 27.6074 31.9268 27.5762 31.7103 27.454C31.4937 27.3318 31.3345 27.1286 31.2678 26.8891C31.2011 26.6495 31.2323 26.3933 31.3545 26.1767C31.5412 25.8457 31.8125 25.5703 32.1406 25.3786C32.4688 25.1869 32.842 25.0859 33.222 25.0859C33.602 25.0859 33.9752 25.1869 34.3033 25.3786C34.6315 25.5703 34.9028 25.8457 35.0895 26.1767C35.1701 26.3193 35.2119 26.4805 35.2108 26.6443C35.2097 26.8081 35.1657 26.9687 35.0832 27.1102C35.0007 27.2517 34.8825 27.3691 34.7405 27.4507C34.5985 27.5323 34.4376 27.5753 34.2739 27.5754Z" fill="#6839CC"/>
<path d="M39.8641 45.4013C49.3404 35.2416 49.121 18.0769 49.031 11.1853C49.0284 10.9867 48.9628 10.7941 48.8437 10.6353C48.7246 10.4764 48.5581 10.3594 48.3682 10.3012C46.3445 9.68081 44.2914 9.1608 42.2163 8.74313C38.198 7.9371 34.1112 7.5208 30.0129 7.5C25.9052 7.51978 21.809 7.93609 17.7813 8.74313C15.7063 9.16048 13.6532 9.68017 11.6294 10.3003C11.4396 10.3585 11.2731 10.4754 11.154 10.6343C11.0348 10.7932 10.9692 10.9858 10.9666 11.1844C10.8766 18.0759 10.6573 35.2416 20.1335 45.4013C20.1438 45.4163 20.1588 45.4275 20.1701 45.4425C21.2248 46.5734 22.3889 47.5972 23.6454 48.4988C25.5137 49.8944 27.5058 51.1164 29.5966 52.1494C29.7223 52.2091 29.8597 52.2401 29.9988 52.2401C30.138 52.2401 30.2754 52.2091 30.401 52.1494C32.4923 51.1165 34.4844 49.8938 36.3523 48.4969C37.6076 47.5964 38.7707 46.5739 39.8248 45.4444C39.8369 45.4284 39.8529 45.4163 39.8641 45.4013ZM12.8323 11.8969C14.5849 11.3805 16.3594 10.9416 18.1507 10.5816C22.0567 9.79853 26.0292 9.39447 30.0129 9.375C33.9872 9.39526 37.9503 9.79932 41.8469 10.5816C43.6282 10.9388 45.4123 11.3813 47.1654 11.8978C47.2516 19.1475 47.1888 33.5916 39.5735 42.9038C38.9634 40.9174 37.9533 39.0768 36.6054 37.4953C37.0071 37.2734 37.3805 37.0036 37.7173 36.6919C38.7948 35.6757 39.4754 34.3091 39.6373 32.8369H39.656C41.3979 32.8369 42.6232 32.4469 43.3029 31.6744C43.7823 31.0399 44.1073 30.3025 44.2522 29.5206C44.397 28.7387 44.3577 27.9338 44.1373 27.1697C43.5654 24.2728 41.6182 21.2606 39.7029 20.3128C38.3011 19.7301 36.7784 19.4977 35.2666 19.6359C35.1841 19.5534 35.1063 19.47 35.0173 19.3884C33.6766 18.1509 31.7098 18.1134 30.4076 18.0891L29.9688 18.0806L29.6032 18.09C28.2982 18.1153 26.3276 18.1556 24.9813 19.3959C24.896 19.4756 24.8201 19.5572 24.7404 19.6369C23.2253 19.4975 21.699 19.7295 20.2938 20.3128C18.3785 21.2597 16.4313 24.2728 15.8594 27.1697C15.6392 27.9336 15.5999 28.7384 15.7448 29.5201C15.8896 30.3018 16.2145 31.0391 16.6938 31.6734C17.3754 32.4469 18.6007 32.8378 20.3426 32.8378H20.3613C20.5225 34.3126 21.2038 35.6816 22.2832 36.6994C22.6183 37.0094 22.9898 37.2776 23.3894 37.4981C22.043 39.0791 21.0339 40.9187 20.4241 42.9038C12.8088 33.5897 12.746 19.1475 12.8323 11.8969ZM34.6807 36.33C33.4699 36.7102 32.2051 36.8901 30.9363 36.8625V32.8125C31.2404 32.6543 31.5109 32.4387 31.7332 32.1778C32.1401 31.698 32.3985 31.1099 32.4766 30.4856C32.4907 30.3433 32.4721 30.1996 32.4222 30.0656C32.3723 29.9316 32.2925 29.8107 32.1888 29.7122C31.8941 29.443 31.5486 29.2355 31.1724 29.1018C30.7963 28.9682 30.3973 28.9112 29.9988 28.9341C29.6001 28.9086 29.2003 28.9642 28.8236 29.0975C28.4469 29.2307 28.101 29.4389 27.8069 29.7094C27.7025 29.8083 27.6222 29.9299 27.5723 30.0649C27.5224 30.1998 27.5042 30.3444 27.5191 30.4875C27.5991 31.1109 27.8576 31.6979 28.2635 32.1778C28.4862 32.4387 28.7571 32.6542 29.0613 32.8125V36.8625C26.5844 36.8681 24.6073 36.3281 23.5807 35.3447C22.2898 34.1072 22.0854 32.6794 22.1744 30.9169C22.2476 29.4703 22.6966 28.2572 23.5901 25.8394L23.6651 25.6359C24.7882 22.5872 25.2729 21.6788 26.2526 20.7731C27.0766 20.0147 28.5588 19.9856 29.6416 19.9631L29.9688 19.9538L30.3719 19.9631C31.4501 19.9838 32.9294 20.0119 33.7451 20.7656C34.7266 21.6703 35.2113 22.5797 36.3363 25.6275L36.4066 25.8197C37.3019 28.2431 37.7519 29.4591 37.8251 30.9094C37.9151 32.6719 37.7116 34.0997 36.4188 35.3372C35.9219 35.7843 35.3354 36.1205 34.6985 36.3234L34.6807 36.33ZM30.3091 30.9591C30.2258 31.0589 30.1192 31.1368 29.9988 31.1859C29.878 31.137 29.7711 31.0591 29.6876 30.9591C29.6537 30.9196 29.6223 30.8779 29.5938 30.8344C29.8624 30.7991 30.1343 30.7991 30.4029 30.8344C30.3742 30.8778 30.3429 30.9195 30.3091 30.9591ZM20.3013 30.8222L20.2976 30.9581C19.5261 31.0521 18.7466 30.8658 18.101 30.4331C17.8243 30.0092 17.6448 29.5293 17.5754 29.0278C17.506 28.5263 17.5485 28.0156 17.6998 27.5325C18.1948 25.0228 19.9029 22.5984 21.1254 21.9928C21.8333 21.6925 22.5924 21.5311 23.3613 21.5175C22.8007 22.6411 22.314 23.8001 21.9044 24.9872L21.8294 25.1906C20.9013 27.705 20.3904 29.0897 20.3013 30.8222ZM39.7019 30.9581L39.6982 30.8147C39.6091 29.0803 39.0963 27.6909 38.1663 25.1709L38.096 24.9797C37.6868 23.7951 37.2011 22.6382 36.6419 21.5166C37.409 21.5311 38.1662 21.6928 38.8723 21.9928C40.0957 22.5984 41.8029 25.0228 42.2979 27.5334C42.4492 28.0166 42.4916 28.5273 42.4221 29.0289C42.3525 29.5304 42.1728 30.0103 41.8957 30.4341C41.2508 30.8659 40.4725 31.0513 39.7019 30.9581ZM35.2619 46.9725C33.6003 48.21 31.84 49.3093 29.9988 50.2594C28.1581 49.3086 26.3982 48.209 24.7366 46.9716C23.7341 46.2518 22.7939 45.449 21.926 44.5716C22.4322 42.2073 23.5738 40.0258 25.2279 38.2622C26.7876 38.658 28.3989 38.8117 30.0054 38.7178L30.0738 38.7216C30.3307 38.7328 30.6138 38.7403 30.9194 38.7403C32.2172 38.751 33.5105 38.588 34.7651 38.2556C36.422 40.0204 37.5654 42.2044 38.0716 44.5716C37.204 45.4489 36.2641 46.2527 35.2619 46.9725Z" fill="#6839CC"/>
</svg>
