<svg width="435" height="431" viewBox="0 0 435 431" fill="none" xmlns="http://www.w3.org/2000/svg">
<path d="M163.266 420.172C143.913 433.305 116.923 432.996 96.7427 421.172C76.5621 409.347 63.3918 387.185 60.4672 363.997C57.5425 340.81 64.2967 316.934 77.0656 297.351C87.078 281.997 101.396 266.573 99.0011 248.406C97.4098 236.335 88.4263 226.435 78.3417 219.597C68.2571 212.759 56.7971 208.182 46.5352 201.612C16.7193 182.52 -0.692579 146.651 0.0211204 111.281C0.947149 65.4485 32.4165 21.7431 75.6205 6.2849C118.826 -9.1732 170.918 4.63433 200.765 39.4562C217.825 59.3587 228.974 85.9359 252.364 97.7962C273.454 108.492 298.649 104.155 322.205 106.297C371.857 110.811 416.857 148.238 430.296 196.196C443.735 244.154 424.726 299.479 384.636 329.086C354.341 351.459 316.23 358.407 279.452 361.02C254.925 362.764 221.435 356.079 202.345 375.109C188.121 389.287 180.351 408.577 163.266 420.172Z" fill="#FF791F"/>
</svg>
